%TF.GenerationSoftware,KiCad,Pcbnew,7.0.5*%
%TF.CreationDate,2024-05-20T19:12:35+03:00*%
%TF.ProjectId,Tempuino,54656d70-7569-46e6-9f2e-6b696361645f,rev?*%
%TF.SameCoordinates,Original*%
%TF.FileFunction,Copper,L2,Bot*%
%TF.FilePolarity,Positive*%
%FSLAX46Y46*%
G04 Gerber Fmt 4.6, Leading zero omitted, Abs format (unit mm)*
G04 Created by KiCad (PCBNEW 7.0.5) date 2024-05-20 19:12:35*
%MOMM*%
%LPD*%
G01*
G04 APERTURE LIST*
%TA.AperFunction,ComponentPad*%
%ADD10C,1.244600*%
%TD*%
%TA.AperFunction,ComponentPad*%
%ADD11C,1.508000*%
%TD*%
%TA.AperFunction,ComponentPad*%
%ADD12C,1.308000*%
%TD*%
%TA.AperFunction,ComponentPad*%
%ADD13C,2.000000*%
%TD*%
%TA.AperFunction,ComponentPad*%
%ADD14R,1.700000X1.700000*%
%TD*%
%TA.AperFunction,ComponentPad*%
%ADD15O,1.700000X1.700000*%
%TD*%
%TA.AperFunction,ComponentPad*%
%ADD16C,1.575000*%
%TD*%
%TA.AperFunction,ComponentPad*%
%ADD17R,1.575000X1.575000*%
%TD*%
%TA.AperFunction,ComponentPad*%
%ADD18O,1.550000X1.000000*%
%TD*%
%TA.AperFunction,ComponentPad*%
%ADD19O,0.950000X1.250000*%
%TD*%
%TA.AperFunction,ViaPad*%
%ADD20C,0.800000*%
%TD*%
%TA.AperFunction,Conductor*%
%ADD21C,0.200000*%
%TD*%
%TA.AperFunction,Conductor*%
%ADD22C,0.300000*%
%TD*%
G04 APERTURE END LIST*
D10*
%TO.P,U1,1,SCL/VZ*%
%TO.N,/I2C_SCL*%
X210300000Y-84300000D03*
%TO.P,U1,2,SDA/PWM*%
%TO.N,/I2C_SDA*%
X210300000Y-87892103D03*
%TO.P,U1,3,VDD*%
%TO.N,/5V*%
X206707897Y-87892103D03*
%TO.P,U1,4,VSS*%
%TO.N,GND*%
X206707897Y-84300000D03*
%TD*%
D11*
%TO.P,U4,GND*%
%TO.N,GND*%
X88500000Y-94400000D03*
%TO.P,U4,GND1*%
X96500000Y-94400000D03*
D12*
%TO.P,U4,1*%
%TO.N,unconnected-(U4-Pad1)*%
X90500000Y-94400000D03*
%TO.P,U4,2*%
%TO.N,Net-(J6-BAT)*%
X92500000Y-94400000D03*
%TO.P,U4,3*%
%TO.N,/BAT_OUT*%
X94500000Y-94400000D03*
%TD*%
D13*
%TO.P,SW1,1,A*%
%TO.N,Net-(SW1-A)*%
X153250000Y-82550000D03*
X153250000Y-89050000D03*
%TO.P,SW1,2,B*%
%TO.N,GND*%
X157750000Y-82550000D03*
X157750000Y-89050000D03*
%TD*%
D14*
%TO.P,J9,1,Pin_1*%
%TO.N,/5V*%
X93200000Y-78700000D03*
%TD*%
%TO.P,J8,1,Pin_1*%
%TO.N,/BAT_OUT*%
X92400000Y-87400000D03*
%TD*%
%TO.P,J5,1,Pin_1*%
%TO.N,GND*%
X64300000Y-92900000D03*
%TD*%
D15*
%TO.P,J2,4,Pin_4*%
%TO.N,GND*%
X166000000Y-91080000D03*
%TO.P,J2,3,Pin_3*%
%TO.N,/5V*%
X166000000Y-88540000D03*
%TO.P,J2,2,Pin_2*%
%TO.N,/I2C_SCL*%
X166000000Y-86000000D03*
D14*
%TO.P,J2,1,Pin_1*%
%TO.N,/I2C_SDA*%
X166000000Y-83460000D03*
%TD*%
%TO.P,J3,1,Pin_1*%
%TO.N,/MISO_PB4*%
X139825000Y-88975000D03*
D15*
%TO.P,J3,2,Pin_2*%
%TO.N,/5V*%
X142365000Y-88975000D03*
%TO.P,J3,3,Pin_3*%
%TO.N,/SCK_PB5*%
X139825000Y-91515000D03*
%TO.P,J3,4,Pin_4*%
%TO.N,/MOSI_PB3*%
X142365000Y-91515000D03*
%TO.P,J3,5,Pin_5*%
%TO.N,/PROG_SS*%
X139825000Y-94055000D03*
%TO.P,J3,6,Pin_6*%
%TO.N,GND*%
X142365000Y-94055000D03*
%TD*%
D16*
%TO.P,J7,2,2*%
%TO.N,Net-(IC1-GND)*%
X85400000Y-79500000D03*
D17*
%TO.P,J7,1,1*%
%TO.N,Net-(J6-BAT)*%
X85400000Y-82000000D03*
%TD*%
D18*
%TO.P,J4,SH*%
%TO.N,unconnected-(J4-PadSH)*%
X59975000Y-89300000D03*
X59975000Y-82300000D03*
D19*
X62675000Y-83300000D03*
X62675000Y-88300000D03*
%TD*%
D14*
%TO.P,J1,1,Pin_1*%
%TO.N,/DTR*%
X134640000Y-84025000D03*
D15*
%TO.P,J1,2,Pin_2*%
%TO.N,/TX*%
X137180000Y-84025000D03*
%TO.P,J1,3,Pin_3*%
%TO.N,/RX*%
X139720000Y-84025000D03*
%TO.P,J1,4,Pin_4*%
%TO.N,/5V*%
X142260000Y-84025000D03*
%TO.P,J1,5,Pin_5*%
%TO.N,unconnected-(J1-Pin_5-Pad5)*%
X144800000Y-84025000D03*
%TO.P,J1,6,Pin_6*%
%TO.N,GND*%
X147340000Y-84025000D03*
%TD*%
D20*
%TO.N,GND*%
X151900000Y-94400000D03*
X129900000Y-94000000D03*
X144500000Y-76600000D03*
X140700000Y-76700000D03*
X137900000Y-76600000D03*
X134900000Y-76800000D03*
X109700000Y-94100000D03*
X112500000Y-93700000D03*
X110800000Y-91000000D03*
X110800000Y-81000000D03*
X161400000Y-94600000D03*
X161500000Y-90300000D03*
X161400000Y-86200000D03*
X161400000Y-82700000D03*
X161400000Y-79900000D03*
X160900000Y-76100000D03*
X86100000Y-94700000D03*
X86800000Y-88900000D03*
X89000000Y-85900000D03*
X89600000Y-81900000D03*
X89800000Y-78800000D03*
X90400000Y-75700000D03*
X129400000Y-84400000D03*
X62100000Y-90200000D03*
X64400000Y-88700000D03*
X65300000Y-87200000D03*
X61000000Y-87100000D03*
X61000000Y-84700000D03*
X64400000Y-85800000D03*
X95500000Y-81800000D03*
X95100000Y-83700000D03*
X94500000Y-86800000D03*
X107300000Y-80100000D03*
X107000000Y-84700000D03*
X115700000Y-84300000D03*
X131700000Y-81200000D03*
X122300000Y-81400000D03*
X124500000Y-78400000D03*
X128900000Y-92400000D03*
X126400000Y-94700000D03*
X123400000Y-95000000D03*
X108300000Y-87200000D03*
X70900000Y-86500000D03*
X69000000Y-86500000D03*
X70400000Y-91400000D03*
X81800000Y-92500000D03*
X79500000Y-89300000D03*
X73700000Y-87700000D03*
X71200000Y-94900000D03*
%TO.N,Net-(SW1-A)*%
X122600000Y-85500000D03*
%TO.N,/I2C_SCL*%
X132206755Y-79206755D03*
X123500000Y-83499503D03*
%TO.N,/I2C_SDA*%
X131500000Y-78500000D03*
X123500000Y-82500000D03*
%TO.N,/SCK_PB5*%
X130800000Y-83400000D03*
X133400000Y-81400000D03*
%TO.N,/MISO_PB4*%
X131000000Y-89000000D03*
X127900000Y-87500000D03*
X133000000Y-89600000D03*
%TO.N,/MOSI_PB3*%
X127000000Y-88400000D03*
X129100000Y-89700000D03*
%TO.N,/PROG_SS*%
X124100000Y-86000000D03*
X132200000Y-85400000D03*
%TO.N,/RX*%
X133200000Y-86600000D03*
X120400000Y-84400000D03*
%TO.N,/TX*%
X122900000Y-87100000D03*
%TO.N,/DTR*%
X114700000Y-77500000D03*
%TO.N,/5V*%
X125300000Y-91200000D03*
X122000000Y-87900000D03*
%TO.N,Net-(IC1-OD)*%
X78600000Y-84600000D03*
X76400000Y-89800000D03*
%TO.N,Net-(IC1-GND)*%
X77200000Y-83200000D03*
X77200000Y-80600000D03*
%TD*%
D21*
%TO.N,/RX*%
X133100000Y-86700000D02*
X133200000Y-86600000D01*
X123189950Y-86400000D02*
X123489950Y-86700000D01*
X122400000Y-86400000D02*
X123189950Y-86400000D01*
X123489950Y-86700000D02*
X133100000Y-86700000D01*
X120400000Y-84400000D02*
X122400000Y-86400000D01*
%TO.N,/PROG_SS*%
X124100000Y-86000000D02*
X124700000Y-85400000D01*
X124700000Y-85400000D02*
X132200000Y-85400000D01*
%TO.N,Net-(SW1-A)*%
X129210050Y-96100000D02*
X146200000Y-96100000D01*
X146200000Y-96100000D02*
X153250000Y-89050000D01*
X119700000Y-84110050D02*
X119700000Y-86589950D01*
X119700000Y-86589950D02*
X129210050Y-96100000D01*
X120110050Y-83700000D02*
X119700000Y-84110050D01*
X122600000Y-85500000D02*
X120800000Y-83700000D01*
X120800000Y-83700000D02*
X120110050Y-83700000D01*
%TO.N,/I2C_SCL*%
X127914007Y-83499503D02*
X132206755Y-79206755D01*
X123500000Y-83499503D02*
X127914007Y-83499503D01*
%TO.N,/I2C_SDA*%
X123500000Y-82500000D02*
X127500000Y-82500000D01*
X127500000Y-82500000D02*
X131500000Y-78500000D01*
%TO.N,/SCK_PB5*%
X131400000Y-83400000D02*
X130800000Y-83400000D01*
X133400000Y-81400000D02*
X131400000Y-83400000D01*
%TO.N,/MISO_PB4*%
X138625000Y-88975000D02*
X139825000Y-88975000D01*
X133800000Y-90400000D02*
X137200000Y-90400000D01*
X133000000Y-89600000D02*
X133800000Y-90400000D01*
X137200000Y-90400000D02*
X138625000Y-88975000D01*
%TO.N,/DTR*%
X131900000Y-77500000D02*
X134640000Y-80240000D01*
X114700000Y-77500000D02*
X131900000Y-77500000D01*
X134640000Y-80240000D02*
X134640000Y-84025000D01*
%TO.N,/MISO_PB4*%
X129500000Y-87500000D02*
X131000000Y-89000000D01*
X127900000Y-87500000D02*
X129500000Y-87500000D01*
%TO.N,/MOSI_PB3*%
X129000000Y-89800000D02*
X129100000Y-89700000D01*
X128400000Y-89800000D02*
X129000000Y-89800000D01*
X127000000Y-88400000D02*
X128400000Y-89800000D01*
%TO.N,/TX*%
X126400000Y-90600000D02*
X130605000Y-90600000D01*
X122900000Y-87100000D02*
X126400000Y-90600000D01*
X130605000Y-90600000D02*
X137180000Y-84025000D01*
D22*
%TO.N,/5V*%
X122000000Y-87900000D02*
X125300000Y-91200000D01*
D21*
%TO.N,Net-(IC1-GND)*%
X77200000Y-80600000D02*
X77200000Y-83200000D01*
X78300000Y-79500000D02*
X85500000Y-79500000D01*
X77200000Y-80600000D02*
X78300000Y-79500000D01*
%TO.N,Net-(IC1-OD)*%
X77900000Y-85300000D02*
X78600000Y-84600000D01*
X77900000Y-88300000D02*
X77900000Y-85300000D01*
X76400000Y-89800000D02*
X77900000Y-88300000D01*
%TD*%
%TA.AperFunction,Conductor*%
%TO.N,GND*%
G36*
X212502019Y-74900633D02*
G01*
X212540149Y-74903131D01*
X212583793Y-74905992D01*
X212765459Y-74918985D01*
X212773102Y-74920015D01*
X212889451Y-74943158D01*
X213033666Y-74974531D01*
X213040383Y-74976395D01*
X213158618Y-75016531D01*
X213160224Y-75017103D01*
X213291740Y-75066156D01*
X213297483Y-75068635D01*
X213411830Y-75125024D01*
X213414042Y-75126173D01*
X213534913Y-75192173D01*
X213539641Y-75195037D01*
X213646649Y-75266537D01*
X213649358Y-75268454D01*
X213758652Y-75350271D01*
X213762345Y-75353265D01*
X213859502Y-75438469D01*
X213862448Y-75441228D01*
X213958769Y-75537549D01*
X213961526Y-75540492D01*
X214046729Y-75637648D01*
X214049732Y-75641353D01*
X214101564Y-75710592D01*
X214131543Y-75750639D01*
X214133461Y-75753349D01*
X214204961Y-75860357D01*
X214207828Y-75865091D01*
X214273802Y-75985912D01*
X214274992Y-75988204D01*
X214331356Y-76102499D01*
X214333842Y-76108258D01*
X214382878Y-76239727D01*
X214383497Y-76241465D01*
X214423597Y-76359596D01*
X214425472Y-76366352D01*
X214456848Y-76510590D01*
X214479980Y-76626880D01*
X214481015Y-76634560D01*
X214494021Y-76816413D01*
X214499367Y-76897966D01*
X214499500Y-76902023D01*
X214499500Y-94797976D01*
X214499367Y-94802033D01*
X214494021Y-94883585D01*
X214481015Y-95065438D01*
X214479980Y-95073118D01*
X214456848Y-95189408D01*
X214425472Y-95333646D01*
X214423597Y-95340402D01*
X214383497Y-95458533D01*
X214382878Y-95460271D01*
X214333842Y-95591740D01*
X214331356Y-95597499D01*
X214274992Y-95711794D01*
X214273802Y-95714086D01*
X214207828Y-95834907D01*
X214204961Y-95839641D01*
X214133461Y-95946649D01*
X214131543Y-95949359D01*
X214049744Y-96058631D01*
X214046723Y-96062357D01*
X213961529Y-96159502D01*
X213958755Y-96162464D01*
X213862464Y-96258755D01*
X213859502Y-96261529D01*
X213762357Y-96346723D01*
X213758631Y-96349744D01*
X213649359Y-96431543D01*
X213646649Y-96433461D01*
X213539641Y-96504961D01*
X213534907Y-96507828D01*
X213414086Y-96573802D01*
X213411794Y-96574992D01*
X213297499Y-96631356D01*
X213291740Y-96633842D01*
X213160271Y-96682878D01*
X213158533Y-96683497D01*
X213040402Y-96723597D01*
X213033646Y-96725472D01*
X212889408Y-96756848D01*
X212773118Y-96779980D01*
X212765438Y-96781015D01*
X212583584Y-96794021D01*
X212522186Y-96798045D01*
X212502010Y-96799368D01*
X212498001Y-96799500D01*
X207431687Y-96802803D01*
X59102042Y-96899497D01*
X59097962Y-96899365D01*
X59066839Y-96897325D01*
X59016308Y-96894013D01*
X58834560Y-96881015D01*
X58826880Y-96879980D01*
X58710590Y-96856848D01*
X58566352Y-96825472D01*
X58559596Y-96823597D01*
X58441465Y-96783497D01*
X58439727Y-96782878D01*
X58308258Y-96733842D01*
X58302499Y-96731356D01*
X58188204Y-96674992D01*
X58185912Y-96673802D01*
X58065091Y-96607828D01*
X58060357Y-96604961D01*
X57953349Y-96533461D01*
X57950639Y-96531543D01*
X57875894Y-96475590D01*
X57841353Y-96449732D01*
X57837648Y-96446729D01*
X57740492Y-96361526D01*
X57737549Y-96358769D01*
X57641228Y-96262448D01*
X57638469Y-96259502D01*
X57605450Y-96221851D01*
X57553265Y-96162345D01*
X57550271Y-96158652D01*
X57468454Y-96049358D01*
X57466537Y-96046649D01*
X57395037Y-95939641D01*
X57392170Y-95934907D01*
X57326173Y-95814042D01*
X57325024Y-95811830D01*
X57268635Y-95697483D01*
X57266156Y-95691740D01*
X57255504Y-95663181D01*
X57217103Y-95560224D01*
X57216531Y-95558618D01*
X57176395Y-95440383D01*
X57174531Y-95433666D01*
X57143158Y-95289451D01*
X57120015Y-95173102D01*
X57118985Y-95165459D01*
X57105983Y-94983655D01*
X57105550Y-94977052D01*
X57100631Y-94902008D01*
X57100500Y-94897993D01*
X57100500Y-94200000D01*
X58444341Y-94200000D01*
X58464936Y-94435403D01*
X58464938Y-94435413D01*
X58526094Y-94663655D01*
X58526096Y-94663659D01*
X58526097Y-94663663D01*
X58571797Y-94761667D01*
X58625964Y-94877828D01*
X58625965Y-94877830D01*
X58761505Y-95071402D01*
X58928597Y-95238494D01*
X59122169Y-95374034D01*
X59122171Y-95374035D01*
X59336337Y-95473903D01*
X59564592Y-95535063D01*
X59741032Y-95550499D01*
X59741033Y-95550500D01*
X59741034Y-95550500D01*
X59858967Y-95550500D01*
X59858967Y-95550499D01*
X60035408Y-95535063D01*
X60263663Y-95473903D01*
X60477829Y-95374035D01*
X60671401Y-95238495D01*
X60838495Y-95071401D01*
X60974035Y-94877830D01*
X61073903Y-94663663D01*
X61135063Y-94435408D01*
X61138161Y-94400000D01*
X89540882Y-94400000D01*
X89559310Y-94587115D01*
X89559311Y-94587117D01*
X89613891Y-94767040D01*
X89702518Y-94932851D01*
X89702523Y-94932857D01*
X89821800Y-95078199D01*
X89967142Y-95197476D01*
X89967148Y-95197481D01*
X90132959Y-95286108D01*
X90132961Y-95286109D01*
X90236472Y-95317509D01*
X90312882Y-95340688D01*
X90312884Y-95340689D01*
X90329660Y-95342341D01*
X90500000Y-95359118D01*
X90687115Y-95340689D01*
X90867039Y-95286109D01*
X90956120Y-95238494D01*
X91032851Y-95197481D01*
X91032853Y-95197478D01*
X91032857Y-95197477D01*
X91178199Y-95078199D01*
X91297477Y-94932857D01*
X91297478Y-94932853D01*
X91297481Y-94932851D01*
X91388981Y-94761667D01*
X91390444Y-94762449D01*
X91429271Y-94714259D01*
X91495563Y-94692188D01*
X91563264Y-94709462D01*
X91610879Y-94760595D01*
X91613420Y-94766159D01*
X91702518Y-94932851D01*
X91702523Y-94932857D01*
X91821800Y-95078199D01*
X91967142Y-95197476D01*
X91967148Y-95197481D01*
X92132959Y-95286108D01*
X92132961Y-95286109D01*
X92236472Y-95317509D01*
X92312882Y-95340688D01*
X92312884Y-95340689D01*
X92329660Y-95342341D01*
X92500000Y-95359118D01*
X92687115Y-95340689D01*
X92867039Y-95286109D01*
X92956120Y-95238494D01*
X93032851Y-95197481D01*
X93032853Y-95197478D01*
X93032857Y-95197477D01*
X93178199Y-95078199D01*
X93297477Y-94932857D01*
X93297478Y-94932853D01*
X93297481Y-94932851D01*
X93388981Y-94761667D01*
X93390444Y-94762449D01*
X93429271Y-94714259D01*
X93495563Y-94692188D01*
X93563264Y-94709462D01*
X93610879Y-94760595D01*
X93613420Y-94766159D01*
X93702518Y-94932851D01*
X93702523Y-94932857D01*
X93821800Y-95078199D01*
X93967142Y-95197476D01*
X93967148Y-95197481D01*
X94132959Y-95286108D01*
X94132961Y-95286109D01*
X94236472Y-95317509D01*
X94312882Y-95340688D01*
X94312884Y-95340689D01*
X94329660Y-95342341D01*
X94500000Y-95359118D01*
X94687115Y-95340689D01*
X94867039Y-95286109D01*
X94956120Y-95238494D01*
X95032851Y-95197481D01*
X95032853Y-95197478D01*
X95032857Y-95197477D01*
X95178199Y-95078199D01*
X95297477Y-94932857D01*
X95297478Y-94932853D01*
X95297481Y-94932851D01*
X95386108Y-94767040D01*
X95386109Y-94767039D01*
X95440689Y-94587115D01*
X95459118Y-94400000D01*
X95440689Y-94212885D01*
X95386109Y-94032961D01*
X95386108Y-94032959D01*
X95297481Y-93867148D01*
X95297476Y-93867142D01*
X95178199Y-93721800D01*
X95032857Y-93602523D01*
X95032851Y-93602518D01*
X94867040Y-93513891D01*
X94687117Y-93459311D01*
X94687115Y-93459310D01*
X94500000Y-93440882D01*
X94312884Y-93459310D01*
X94312882Y-93459311D01*
X94132959Y-93513891D01*
X93967148Y-93602518D01*
X93967142Y-93602523D01*
X93821800Y-93721800D01*
X93702523Y-93867142D01*
X93702518Y-93867148D01*
X93611019Y-94038333D01*
X93609557Y-94037551D01*
X93570720Y-94085746D01*
X93504426Y-94107811D01*
X93436726Y-94090532D01*
X93389116Y-94039394D01*
X93386579Y-94033839D01*
X93297481Y-93867148D01*
X93297476Y-93867142D01*
X93178199Y-93721800D01*
X93032857Y-93602523D01*
X93032851Y-93602518D01*
X92867040Y-93513891D01*
X92687117Y-93459311D01*
X92687115Y-93459310D01*
X92500000Y-93440882D01*
X92312884Y-93459310D01*
X92312882Y-93459311D01*
X92132959Y-93513891D01*
X91967148Y-93602518D01*
X91967142Y-93602523D01*
X91821800Y-93721800D01*
X91702523Y-93867142D01*
X91702518Y-93867148D01*
X91611019Y-94038333D01*
X91609557Y-94037551D01*
X91570720Y-94085746D01*
X91504426Y-94107811D01*
X91436726Y-94090532D01*
X91389116Y-94039394D01*
X91386579Y-94033839D01*
X91297481Y-93867148D01*
X91297476Y-93867142D01*
X91178199Y-93721800D01*
X91032857Y-93602523D01*
X91032851Y-93602518D01*
X90867040Y-93513891D01*
X90687117Y-93459311D01*
X90687115Y-93459310D01*
X90500000Y-93440882D01*
X90312884Y-93459310D01*
X90312882Y-93459311D01*
X90132959Y-93513891D01*
X89967148Y-93602518D01*
X89967142Y-93602523D01*
X89821800Y-93721800D01*
X89702523Y-93867142D01*
X89702518Y-93867148D01*
X89613891Y-94032959D01*
X89559311Y-94212882D01*
X89559310Y-94212884D01*
X89540882Y-94400000D01*
X61138161Y-94400000D01*
X61155659Y-94200000D01*
X61135063Y-93964592D01*
X61073903Y-93736337D01*
X60974035Y-93522171D01*
X60974034Y-93522169D01*
X60838494Y-93328597D01*
X60671402Y-93161505D01*
X60477830Y-93025965D01*
X60477828Y-93025964D01*
X60370745Y-92976031D01*
X60263663Y-92926097D01*
X60263659Y-92926096D01*
X60263655Y-92926094D01*
X60035413Y-92864938D01*
X60035403Y-92864936D01*
X59858967Y-92849500D01*
X59858966Y-92849500D01*
X59741034Y-92849500D01*
X59741033Y-92849500D01*
X59564596Y-92864936D01*
X59564586Y-92864938D01*
X59336344Y-92926094D01*
X59336335Y-92926098D01*
X59122171Y-93025964D01*
X59122169Y-93025965D01*
X58928597Y-93161505D01*
X58761506Y-93328597D01*
X58761501Y-93328604D01*
X58625967Y-93522165D01*
X58625965Y-93522169D01*
X58526098Y-93736335D01*
X58526094Y-93736344D01*
X58464938Y-93964586D01*
X58464936Y-93964596D01*
X58444341Y-94199999D01*
X58444341Y-94200000D01*
X57100500Y-94200000D01*
X57100500Y-89300003D01*
X58894435Y-89300003D01*
X58914630Y-89479249D01*
X58914631Y-89479254D01*
X58974211Y-89649523D01*
X59033049Y-89743162D01*
X59070184Y-89802262D01*
X59197738Y-89929816D01*
X59277311Y-89979815D01*
X59305876Y-89997764D01*
X59350478Y-90025789D01*
X59497419Y-90077206D01*
X59520745Y-90085368D01*
X59520750Y-90085369D01*
X59611246Y-90095565D01*
X59655040Y-90100499D01*
X59655043Y-90100500D01*
X59655046Y-90100500D01*
X60294957Y-90100500D01*
X60294958Y-90100499D01*
X60362104Y-90092934D01*
X60429249Y-90085369D01*
X60429252Y-90085368D01*
X60429255Y-90085368D01*
X60599522Y-90025789D01*
X60752262Y-89929816D01*
X60879816Y-89802262D01*
X60881238Y-89799999D01*
X75694355Y-89799999D01*
X75714859Y-89968869D01*
X75714860Y-89968874D01*
X75775182Y-90127931D01*
X75828449Y-90205100D01*
X75871817Y-90267929D01*
X75975905Y-90360143D01*
X75999150Y-90380736D01*
X76149773Y-90459789D01*
X76149775Y-90459790D01*
X76314944Y-90500500D01*
X76485056Y-90500500D01*
X76650225Y-90459790D01*
X76757133Y-90403680D01*
X76800849Y-90380736D01*
X76800850Y-90380734D01*
X76800852Y-90380734D01*
X76928183Y-90267929D01*
X77024818Y-90127930D01*
X77085140Y-89968872D01*
X77105645Y-89800000D01*
X77097844Y-89735758D01*
X77109304Y-89666837D01*
X77133256Y-89633135D01*
X78205483Y-88560909D01*
X78228050Y-88538342D01*
X78238109Y-88518597D01*
X78248271Y-88502014D01*
X78261296Y-88484090D01*
X78268140Y-88463022D01*
X78275586Y-88445045D01*
X78285646Y-88425304D01*
X78289112Y-88403415D01*
X78293652Y-88384501D01*
X78300499Y-88363433D01*
X78300499Y-88334076D01*
X78300500Y-88334051D01*
X78300500Y-88294856D01*
X91249500Y-88294856D01*
X91249502Y-88294882D01*
X91252413Y-88319987D01*
X91252415Y-88319991D01*
X91297793Y-88422764D01*
X91297794Y-88422765D01*
X91377235Y-88502206D01*
X91480009Y-88547585D01*
X91505135Y-88550500D01*
X93294864Y-88550499D01*
X93294879Y-88550497D01*
X93294882Y-88550497D01*
X93319987Y-88547586D01*
X93319988Y-88547585D01*
X93319991Y-88547585D01*
X93422765Y-88502206D01*
X93502206Y-88422765D01*
X93547585Y-88319991D01*
X93550500Y-88294865D01*
X93550499Y-86505136D01*
X93550497Y-86505117D01*
X93547586Y-86480012D01*
X93547585Y-86480010D01*
X93547585Y-86480009D01*
X93502206Y-86377235D01*
X93422765Y-86297794D01*
X93422764Y-86297793D01*
X93319992Y-86252415D01*
X93294865Y-86249500D01*
X91505143Y-86249500D01*
X91505117Y-86249502D01*
X91480012Y-86252413D01*
X91480008Y-86252415D01*
X91377235Y-86297793D01*
X91297794Y-86377234D01*
X91252415Y-86480006D01*
X91252415Y-86480008D01*
X91249500Y-86505131D01*
X91249500Y-88294856D01*
X78300500Y-88294856D01*
X78300500Y-85517253D01*
X78320185Y-85450214D01*
X78336815Y-85429576D01*
X78429572Y-85336818D01*
X78490895Y-85303334D01*
X78517253Y-85300500D01*
X78685056Y-85300500D01*
X78850225Y-85259790D01*
X78952303Y-85206215D01*
X79000849Y-85180736D01*
X79000850Y-85180734D01*
X79000852Y-85180734D01*
X79128183Y-85067929D01*
X79224818Y-84927930D01*
X79285140Y-84768872D01*
X79305645Y-84600000D01*
X79285140Y-84431128D01*
X79224818Y-84272070D01*
X79128183Y-84132071D01*
X79007934Y-84025540D01*
X79000849Y-84019263D01*
X78850226Y-83940210D01*
X78685056Y-83899500D01*
X78514944Y-83899500D01*
X78349773Y-83940210D01*
X78199150Y-84019263D01*
X78071816Y-84132072D01*
X77975182Y-84272068D01*
X77914860Y-84431125D01*
X77914859Y-84431130D01*
X77894355Y-84600000D01*
X77894354Y-84600001D01*
X77902154Y-84664240D01*
X77890693Y-84733164D01*
X77866740Y-84766866D01*
X77594516Y-85039091D01*
X77594513Y-85039093D01*
X77594513Y-85039094D01*
X77583231Y-85050376D01*
X77571948Y-85061659D01*
X77571948Y-85061660D01*
X77561891Y-85081397D01*
X77551731Y-85097977D01*
X77538706Y-85115905D01*
X77538703Y-85115910D01*
X77531854Y-85136988D01*
X77524413Y-85154952D01*
X77514354Y-85174696D01*
X77514352Y-85174699D01*
X77510886Y-85196582D01*
X77506347Y-85215490D01*
X77499499Y-85236566D01*
X77499499Y-85236567D01*
X77499497Y-85319816D01*
X77499500Y-85319844D01*
X77499500Y-88082745D01*
X77479815Y-88149784D01*
X77463181Y-88170426D01*
X76570426Y-89063181D01*
X76509103Y-89096666D01*
X76482745Y-89099500D01*
X76314944Y-89099500D01*
X76149773Y-89140210D01*
X75999150Y-89219263D01*
X75871816Y-89332072D01*
X75775182Y-89472068D01*
X75714860Y-89631125D01*
X75714859Y-89631130D01*
X75694355Y-89799999D01*
X60881238Y-89799999D01*
X60975789Y-89649522D01*
X61035368Y-89479255D01*
X61036644Y-89467929D01*
X61055565Y-89300003D01*
X61055565Y-89299996D01*
X61035369Y-89120750D01*
X61035368Y-89120745D01*
X61014039Y-89059790D01*
X60975789Y-88950478D01*
X60969343Y-88940220D01*
X60923919Y-88867927D01*
X60879816Y-88797738D01*
X60752262Y-88670184D01*
X60715287Y-88646951D01*
X60599523Y-88574211D01*
X60429254Y-88514631D01*
X60429249Y-88514630D01*
X60294960Y-88499500D01*
X60294954Y-88499500D01*
X59655046Y-88499500D01*
X59655039Y-88499500D01*
X59520750Y-88514630D01*
X59520745Y-88514631D01*
X59350476Y-88574211D01*
X59197737Y-88670184D01*
X59070184Y-88797737D01*
X58974211Y-88950476D01*
X58914631Y-89120745D01*
X58914630Y-89120750D01*
X58894435Y-89299996D01*
X58894435Y-89300003D01*
X57100500Y-89300003D01*
X57100500Y-88493558D01*
X61899500Y-88493558D01*
X61914157Y-88623648D01*
X61914159Y-88623658D01*
X61966967Y-88774572D01*
X61971878Y-88788606D01*
X62064853Y-88936576D01*
X62188424Y-89060147D01*
X62336394Y-89153122D01*
X62501343Y-89210841D01*
X62501349Y-89210841D01*
X62501351Y-89210842D01*
X62674996Y-89230407D01*
X62675000Y-89230407D01*
X62675004Y-89230407D01*
X62848648Y-89210842D01*
X62848647Y-89210842D01*
X62848657Y-89210841D01*
X63013606Y-89153122D01*
X63161576Y-89060147D01*
X63285147Y-88936576D01*
X63378122Y-88788606D01*
X63435841Y-88623657D01*
X63450500Y-88493552D01*
X63450500Y-88106448D01*
X63435841Y-87976343D01*
X63378122Y-87811394D01*
X63285147Y-87663424D01*
X63161576Y-87539853D01*
X63013606Y-87446878D01*
X63013605Y-87446877D01*
X63013604Y-87446877D01*
X62848658Y-87389159D01*
X62848648Y-87389157D01*
X62675004Y-87369593D01*
X62674996Y-87369593D01*
X62501351Y-87389157D01*
X62501341Y-87389159D01*
X62336395Y-87446877D01*
X62188423Y-87539853D01*
X62064853Y-87663423D01*
X61971877Y-87811395D01*
X61914159Y-87976341D01*
X61914157Y-87976351D01*
X61899500Y-88106441D01*
X61899500Y-88493558D01*
X57100500Y-88493558D01*
X57100500Y-83493558D01*
X61899500Y-83493558D01*
X61914157Y-83623648D01*
X61914159Y-83623658D01*
X61964716Y-83768139D01*
X61971878Y-83788606D01*
X62064853Y-83936576D01*
X62188424Y-84060147D01*
X62336394Y-84153122D01*
X62501343Y-84210841D01*
X62501349Y-84210841D01*
X62501351Y-84210842D01*
X62674996Y-84230407D01*
X62675000Y-84230407D01*
X62675004Y-84230407D01*
X62848648Y-84210842D01*
X62848647Y-84210842D01*
X62848657Y-84210841D01*
X63013606Y-84153122D01*
X63161576Y-84060147D01*
X63285147Y-83936576D01*
X63378122Y-83788606D01*
X63435841Y-83623657D01*
X63450500Y-83493552D01*
X63450500Y-83200000D01*
X76494355Y-83200000D01*
X76514859Y-83368869D01*
X76514860Y-83368874D01*
X76575182Y-83527931D01*
X76632144Y-83610453D01*
X76671817Y-83667929D01*
X76769653Y-83754604D01*
X76799150Y-83780736D01*
X76941540Y-83855468D01*
X76949775Y-83859790D01*
X77114944Y-83900500D01*
X77285056Y-83900500D01*
X77450225Y-83859790D01*
X77539966Y-83812690D01*
X77600849Y-83780736D01*
X77600850Y-83780734D01*
X77600852Y-83780734D01*
X77728183Y-83667929D01*
X77824818Y-83527930D01*
X77885140Y-83368872D01*
X77905645Y-83200000D01*
X77885140Y-83031128D01*
X77874182Y-83002235D01*
X77846718Y-82929816D01*
X77824818Y-82872070D01*
X77823734Y-82870500D01*
X77797405Y-82832356D01*
X84312000Y-82832356D01*
X84312002Y-82832382D01*
X84314913Y-82857487D01*
X84314915Y-82857491D01*
X84360293Y-82960264D01*
X84360294Y-82960265D01*
X84439735Y-83039706D01*
X84542509Y-83085085D01*
X84567635Y-83088000D01*
X86232364Y-83087999D01*
X86232379Y-83087997D01*
X86232382Y-83087997D01*
X86257487Y-83085086D01*
X86257488Y-83085085D01*
X86257491Y-83085085D01*
X86360265Y-83039706D01*
X86439706Y-82960265D01*
X86485085Y-82857491D01*
X86488000Y-82832365D01*
X86487999Y-81167636D01*
X86487997Y-81167617D01*
X86485086Y-81142512D01*
X86485085Y-81142510D01*
X86485085Y-81142509D01*
X86439706Y-81039735D01*
X86360265Y-80960294D01*
X86360263Y-80960293D01*
X86257492Y-80914915D01*
X86232365Y-80912000D01*
X84567643Y-80912000D01*
X84567617Y-80912002D01*
X84542512Y-80914913D01*
X84542508Y-80914915D01*
X84439735Y-80960293D01*
X84360294Y-81039734D01*
X84314915Y-81142506D01*
X84314915Y-81142508D01*
X84312000Y-81167631D01*
X84312000Y-82832356D01*
X77797405Y-82832356D01*
X77758983Y-82776692D01*
X77728183Y-82732071D01*
X77691418Y-82699500D01*
X77642273Y-82655961D01*
X77605146Y-82596772D01*
X77600500Y-82563146D01*
X77600500Y-81236853D01*
X77620185Y-81169814D01*
X77642268Y-81144042D01*
X77728183Y-81067929D01*
X77824818Y-80927930D01*
X77885140Y-80768872D01*
X77905645Y-80600000D01*
X77897844Y-80535758D01*
X77909304Y-80466837D01*
X77933256Y-80433135D01*
X78429573Y-79936819D01*
X78490897Y-79903334D01*
X78517255Y-79900500D01*
X84307228Y-79900500D01*
X84374267Y-79920185D01*
X84418226Y-79969226D01*
X84461390Y-80055910D01*
X84471002Y-80075214D01*
X84517337Y-80136571D01*
X84592514Y-80236121D01*
X84741525Y-80371962D01*
X84872094Y-80452807D01*
X84909268Y-80475825D01*
X84912959Y-80478110D01*
X85100979Y-80550949D01*
X85299182Y-80588000D01*
X85299184Y-80588000D01*
X85500816Y-80588000D01*
X85500818Y-80588000D01*
X85699021Y-80550949D01*
X85887041Y-80478110D01*
X86058475Y-80371962D01*
X86207486Y-80236121D01*
X86328999Y-80075212D01*
X86418876Y-79894715D01*
X86474056Y-79700776D01*
X86483871Y-79594856D01*
X92049500Y-79594856D01*
X92049502Y-79594882D01*
X92052413Y-79619987D01*
X92052415Y-79619991D01*
X92097793Y-79722764D01*
X92097794Y-79722765D01*
X92177235Y-79802206D01*
X92280009Y-79847585D01*
X92305135Y-79850500D01*
X94094864Y-79850499D01*
X94094879Y-79850497D01*
X94094882Y-79850497D01*
X94119987Y-79847586D01*
X94119988Y-79847585D01*
X94119991Y-79847585D01*
X94222765Y-79802206D01*
X94302206Y-79722765D01*
X94347585Y-79619991D01*
X94350500Y-79594865D01*
X94350499Y-77805136D01*
X94350497Y-77805117D01*
X94347586Y-77780012D01*
X94347585Y-77780010D01*
X94347585Y-77780009D01*
X94302206Y-77677235D01*
X94222765Y-77597794D01*
X94222764Y-77597793D01*
X94119992Y-77552415D01*
X94094865Y-77549500D01*
X92305143Y-77549500D01*
X92305117Y-77549502D01*
X92280012Y-77552413D01*
X92280008Y-77552415D01*
X92177235Y-77597793D01*
X92097794Y-77677234D01*
X92052415Y-77780006D01*
X92052415Y-77780008D01*
X92049500Y-77805131D01*
X92049500Y-79594856D01*
X86483871Y-79594856D01*
X86492661Y-79500000D01*
X86474056Y-79299224D01*
X86418876Y-79105285D01*
X86328999Y-78924788D01*
X86207486Y-78763879D01*
X86058475Y-78628038D01*
X85993190Y-78587615D01*
X85887042Y-78521890D01*
X85887040Y-78521889D01*
X85749561Y-78468630D01*
X85699021Y-78449051D01*
X85500818Y-78412000D01*
X85299182Y-78412000D01*
X85100979Y-78449051D01*
X85100976Y-78449051D01*
X85100976Y-78449052D01*
X84912959Y-78521889D01*
X84912957Y-78521890D01*
X84741523Y-78628039D01*
X84592515Y-78763877D01*
X84471002Y-78924785D01*
X84471001Y-78924788D01*
X84418226Y-79030773D01*
X84370726Y-79082008D01*
X84307228Y-79099500D01*
X78236567Y-79099500D01*
X78215491Y-79106347D01*
X78196582Y-79110887D01*
X78174695Y-79114354D01*
X78154952Y-79124413D01*
X78136988Y-79131854D01*
X78115910Y-79138703D01*
X78115905Y-79138706D01*
X78097977Y-79151731D01*
X78081397Y-79161891D01*
X78061660Y-79171948D01*
X78061659Y-79171948D01*
X78050376Y-79183231D01*
X78039094Y-79194513D01*
X78039093Y-79194513D01*
X78039091Y-79194516D01*
X77370425Y-79863181D01*
X77309102Y-79896666D01*
X77282744Y-79899500D01*
X77114944Y-79899500D01*
X76949773Y-79940210D01*
X76799150Y-80019263D01*
X76671816Y-80132072D01*
X76575182Y-80272068D01*
X76514860Y-80431125D01*
X76514859Y-80431130D01*
X76494355Y-80600000D01*
X76514859Y-80768869D01*
X76514860Y-80768874D01*
X76575182Y-80927931D01*
X76597521Y-80960294D01*
X76671817Y-81067929D01*
X76757728Y-81144040D01*
X76794853Y-81203226D01*
X76799500Y-81236853D01*
X76799500Y-82563146D01*
X76779815Y-82630185D01*
X76757727Y-82655961D01*
X76671818Y-82732069D01*
X76575182Y-82872068D01*
X76514860Y-83031125D01*
X76514859Y-83031130D01*
X76494355Y-83200000D01*
X63450500Y-83200000D01*
X63450500Y-83106448D01*
X63435841Y-82976343D01*
X63378122Y-82811394D01*
X63285147Y-82663424D01*
X63161576Y-82539853D01*
X63013606Y-82446878D01*
X63013605Y-82446877D01*
X63013604Y-82446877D01*
X62848658Y-82389159D01*
X62848648Y-82389157D01*
X62675004Y-82369593D01*
X62674996Y-82369593D01*
X62501351Y-82389157D01*
X62501341Y-82389159D01*
X62336395Y-82446877D01*
X62188423Y-82539853D01*
X62064853Y-82663423D01*
X61971877Y-82811395D01*
X61914159Y-82976341D01*
X61914157Y-82976351D01*
X61899500Y-83106441D01*
X61899500Y-83493558D01*
X57100500Y-83493558D01*
X57100500Y-82300003D01*
X58894435Y-82300003D01*
X58914630Y-82479249D01*
X58914631Y-82479254D01*
X58974211Y-82649523D01*
X59054117Y-82776692D01*
X59070184Y-82802262D01*
X59197738Y-82929816D01*
X59271782Y-82976341D01*
X59303858Y-82996496D01*
X59350478Y-83025789D01*
X59519933Y-83085084D01*
X59520745Y-83085368D01*
X59520750Y-83085369D01*
X59611246Y-83095565D01*
X59655040Y-83100499D01*
X59655043Y-83100500D01*
X59655046Y-83100500D01*
X60294957Y-83100500D01*
X60294958Y-83100499D01*
X60362104Y-83092934D01*
X60429249Y-83085369D01*
X60429252Y-83085368D01*
X60429255Y-83085368D01*
X60599522Y-83025789D01*
X60752262Y-82929816D01*
X60879816Y-82802262D01*
X60975789Y-82649522D01*
X61035368Y-82479255D01*
X61039016Y-82446877D01*
X61055565Y-82300003D01*
X61055565Y-82299996D01*
X61035369Y-82120750D01*
X61035368Y-82120745D01*
X61014039Y-82059790D01*
X60975789Y-81950478D01*
X60879816Y-81797738D01*
X60752262Y-81670184D01*
X60752262Y-81670183D01*
X60599523Y-81574211D01*
X60429254Y-81514631D01*
X60429249Y-81514630D01*
X60294960Y-81499500D01*
X60294954Y-81499500D01*
X59655046Y-81499500D01*
X59655039Y-81499500D01*
X59520750Y-81514630D01*
X59520745Y-81514631D01*
X59350476Y-81574211D01*
X59197737Y-81670184D01*
X59070184Y-81797737D01*
X58974211Y-81950476D01*
X58914631Y-82120745D01*
X58914630Y-82120750D01*
X58894435Y-82299996D01*
X58894435Y-82300003D01*
X57100500Y-82300003D01*
X57100500Y-77500000D01*
X58344341Y-77500000D01*
X58364936Y-77735403D01*
X58364938Y-77735413D01*
X58426094Y-77963655D01*
X58426096Y-77963659D01*
X58426097Y-77963663D01*
X58462695Y-78042147D01*
X58525964Y-78177828D01*
X58525965Y-78177830D01*
X58661505Y-78371402D01*
X58828597Y-78538494D01*
X59022169Y-78674034D01*
X59022171Y-78674035D01*
X59236337Y-78773903D01*
X59464592Y-78835063D01*
X59641032Y-78850499D01*
X59641033Y-78850500D01*
X59641034Y-78850500D01*
X59758967Y-78850500D01*
X59758967Y-78850499D01*
X59935408Y-78835063D01*
X60163663Y-78773903D01*
X60377829Y-78674035D01*
X60571401Y-78538495D01*
X60738495Y-78371401D01*
X60874035Y-78177830D01*
X60973903Y-77963663D01*
X61035063Y-77735408D01*
X61055659Y-77500000D01*
X61055659Y-77499999D01*
X113994355Y-77499999D01*
X114014859Y-77668869D01*
X114014860Y-77668874D01*
X114075182Y-77827931D01*
X114137475Y-77918177D01*
X114171817Y-77967929D01*
X114244219Y-78032071D01*
X114299150Y-78080736D01*
X114449773Y-78159789D01*
X114449775Y-78159790D01*
X114614944Y-78200500D01*
X114785056Y-78200500D01*
X114950225Y-78159790D01*
X115029692Y-78118081D01*
X115100849Y-78080736D01*
X115100850Y-78080734D01*
X115100852Y-78080734D01*
X115228183Y-77967929D01*
X115237756Y-77954059D01*
X115292039Y-77910070D01*
X115339806Y-77900500D01*
X130826371Y-77900500D01*
X130893410Y-77920185D01*
X130939165Y-77972989D01*
X130949109Y-78042147D01*
X130928421Y-78094940D01*
X130875183Y-78172068D01*
X130875182Y-78172068D01*
X130814860Y-78331125D01*
X130814859Y-78331130D01*
X130794354Y-78500000D01*
X130794354Y-78500002D01*
X130802154Y-78564242D01*
X130790693Y-78633165D01*
X130766739Y-78666867D01*
X127370426Y-82063181D01*
X127309103Y-82096666D01*
X127282745Y-82099500D01*
X124139806Y-82099500D01*
X124072767Y-82079815D01*
X124037756Y-82045940D01*
X124028183Y-82032071D01*
X123900849Y-81919263D01*
X123750226Y-81840210D01*
X123585056Y-81799500D01*
X123414944Y-81799500D01*
X123249773Y-81840210D01*
X123099150Y-81919263D01*
X122971816Y-82032072D01*
X122875182Y-82172068D01*
X122814860Y-82331125D01*
X122814859Y-82331130D01*
X122794355Y-82500000D01*
X122814859Y-82668869D01*
X122814860Y-82668874D01*
X122866669Y-82805484D01*
X122875182Y-82827930D01*
X122945161Y-82929312D01*
X122967044Y-82995665D01*
X122949579Y-83063317D01*
X122945161Y-83070191D01*
X122875183Y-83171571D01*
X122875182Y-83171571D01*
X122814860Y-83330628D01*
X122814859Y-83330633D01*
X122794355Y-83499503D01*
X122814859Y-83668372D01*
X122814860Y-83668377D01*
X122875182Y-83827434D01*
X122937475Y-83917680D01*
X122971817Y-83967432D01*
X123037706Y-84025804D01*
X123099150Y-84080239D01*
X123193760Y-84129894D01*
X123249775Y-84159293D01*
X123414944Y-84200003D01*
X123585056Y-84200003D01*
X123750225Y-84159293D01*
X123849704Y-84107082D01*
X123900849Y-84080239D01*
X123900850Y-84080237D01*
X123900852Y-84080237D01*
X124028183Y-83967432D01*
X124037756Y-83953562D01*
X124092039Y-83909573D01*
X124139806Y-83900003D01*
X127977438Y-83900003D01*
X127977440Y-83900003D01*
X127998508Y-83893157D01*
X128017424Y-83888615D01*
X128039311Y-83885149D01*
X128059051Y-83875089D01*
X128077018Y-83867647D01*
X128098097Y-83860799D01*
X128116033Y-83847766D01*
X128132595Y-83837617D01*
X128152349Y-83827553D01*
X128167841Y-83812060D01*
X128167848Y-83812055D01*
X129125088Y-82854815D01*
X132036327Y-79943573D01*
X132097650Y-79910089D01*
X132124008Y-79907255D01*
X132291811Y-79907255D01*
X132456980Y-79866545D01*
X132536447Y-79824836D01*
X132607604Y-79787491D01*
X132607605Y-79787489D01*
X132607607Y-79787489D01*
X132734938Y-79674684D01*
X132831573Y-79534685D01*
X132891895Y-79375627D01*
X132895557Y-79345461D01*
X132923177Y-79281285D01*
X132981110Y-79242227D01*
X133050963Y-79240690D01*
X133106334Y-79272726D01*
X134203181Y-80369573D01*
X134236666Y-80430896D01*
X134239500Y-80457254D01*
X134239500Y-80985160D01*
X134219815Y-81052199D01*
X134167011Y-81097954D01*
X134097853Y-81107898D01*
X134034297Y-81078873D01*
X134013450Y-81055601D01*
X134011102Y-81052199D01*
X133928183Y-80932071D01*
X133800852Y-80819266D01*
X133800849Y-80819263D01*
X133650226Y-80740210D01*
X133485056Y-80699500D01*
X133314944Y-80699500D01*
X133149773Y-80740210D01*
X132999150Y-80819263D01*
X132871816Y-80932072D01*
X132775182Y-81072068D01*
X132714860Y-81231125D01*
X132714859Y-81231130D01*
X132694354Y-81400000D01*
X132694354Y-81400002D01*
X132702154Y-81464242D01*
X132690693Y-81533165D01*
X132666739Y-81566867D01*
X131396590Y-82837015D01*
X131335267Y-82870500D01*
X131265575Y-82865516D01*
X131226682Y-82842149D01*
X131200852Y-82819266D01*
X131200850Y-82819264D01*
X131050226Y-82740210D01*
X130885056Y-82699500D01*
X130714944Y-82699500D01*
X130549773Y-82740210D01*
X130399150Y-82819263D01*
X130271816Y-82932072D01*
X130175182Y-83072068D01*
X130114860Y-83231125D01*
X130114859Y-83231130D01*
X130094355Y-83399999D01*
X130114859Y-83568869D01*
X130114860Y-83568874D01*
X130175182Y-83727931D01*
X130233250Y-83812055D01*
X130271817Y-83867929D01*
X130359191Y-83945335D01*
X130399150Y-83980736D01*
X130524674Y-84046616D01*
X130549775Y-84059790D01*
X130714944Y-84100500D01*
X130885056Y-84100500D01*
X131050225Y-84059790D01*
X131151508Y-84006632D01*
X131200849Y-83980736D01*
X131200850Y-83980734D01*
X131200852Y-83980734D01*
X131328183Y-83867929D01*
X131337756Y-83854059D01*
X131392039Y-83810070D01*
X131439806Y-83800500D01*
X131463431Y-83800500D01*
X131463433Y-83800500D01*
X131484501Y-83793654D01*
X131503417Y-83789112D01*
X131525304Y-83785646D01*
X131545044Y-83775586D01*
X131563011Y-83768144D01*
X131584090Y-83761296D01*
X131602026Y-83748263D01*
X131618588Y-83738114D01*
X131638342Y-83728050D01*
X131653834Y-83712557D01*
X131653841Y-83712552D01*
X132041981Y-83324412D01*
X133229572Y-82136818D01*
X133290895Y-82103334D01*
X133317253Y-82100500D01*
X133485056Y-82100500D01*
X133650225Y-82059790D01*
X133729692Y-82018081D01*
X133800849Y-81980736D01*
X133800850Y-81980734D01*
X133800852Y-81980734D01*
X133928183Y-81867929D01*
X134013450Y-81744398D01*
X134067733Y-81700409D01*
X134137182Y-81692749D01*
X134199747Y-81723853D01*
X134235564Y-81783843D01*
X134239500Y-81814839D01*
X134239500Y-82750500D01*
X134219815Y-82817539D01*
X134167011Y-82863294D01*
X134115500Y-82874500D01*
X133745143Y-82874500D01*
X133745117Y-82874502D01*
X133720012Y-82877413D01*
X133720008Y-82877415D01*
X133617235Y-82922793D01*
X133537794Y-83002234D01*
X133492415Y-83105006D01*
X133492415Y-83105008D01*
X133489500Y-83130131D01*
X133489500Y-84919856D01*
X133489502Y-84919882D01*
X133492413Y-84944987D01*
X133492415Y-84944991D01*
X133537793Y-85047764D01*
X133537793Y-85047765D01*
X133537794Y-85047765D01*
X133617235Y-85127206D01*
X133720009Y-85172585D01*
X133745135Y-85175500D01*
X135163745Y-85175499D01*
X135230784Y-85195184D01*
X135276539Y-85247987D01*
X135286483Y-85317146D01*
X135257458Y-85380702D01*
X135251426Y-85387180D01*
X134100120Y-86538485D01*
X134038797Y-86571970D01*
X133969105Y-86566986D01*
X133913172Y-86525114D01*
X133889343Y-86465750D01*
X133885140Y-86431128D01*
X133879931Y-86417394D01*
X133834573Y-86297793D01*
X133824818Y-86272070D01*
X133809240Y-86249502D01*
X133752523Y-86167334D01*
X133728183Y-86132071D01*
X133600852Y-86019266D01*
X133600849Y-86019263D01*
X133450226Y-85940210D01*
X133285056Y-85899500D01*
X133114944Y-85899500D01*
X132942492Y-85942005D01*
X132941879Y-85939519D01*
X132884387Y-85943929D01*
X132822893Y-85910760D01*
X132789093Y-85849610D01*
X132793719Y-85779893D01*
X132808070Y-85752192D01*
X132824818Y-85727930D01*
X132885140Y-85568872D01*
X132905645Y-85400000D01*
X132885140Y-85231128D01*
X132824818Y-85072070D01*
X132824735Y-85071950D01*
X132751396Y-84965701D01*
X132728183Y-84932071D01*
X132624493Y-84840210D01*
X132600849Y-84819263D01*
X132450226Y-84740210D01*
X132285056Y-84699500D01*
X132114944Y-84699500D01*
X131949773Y-84740210D01*
X131799150Y-84819263D01*
X131671816Y-84932071D01*
X131662244Y-84945940D01*
X131607961Y-84989930D01*
X131560194Y-84999500D01*
X124636567Y-84999500D01*
X124615491Y-85006347D01*
X124596582Y-85010887D01*
X124574696Y-85014354D01*
X124554955Y-85024412D01*
X124536987Y-85031854D01*
X124515912Y-85038702D01*
X124515908Y-85038704D01*
X124497984Y-85051727D01*
X124481398Y-85061891D01*
X124461659Y-85071949D01*
X124461656Y-85071951D01*
X124421653Y-85111952D01*
X124421649Y-85111958D01*
X124270426Y-85263181D01*
X124209103Y-85296666D01*
X124182745Y-85299500D01*
X124014944Y-85299500D01*
X123849773Y-85340210D01*
X123699150Y-85419263D01*
X123571815Y-85532072D01*
X123529888Y-85592814D01*
X123475605Y-85636804D01*
X123406156Y-85644463D01*
X123343592Y-85613359D01*
X123307775Y-85553368D01*
X123304743Y-85507425D01*
X123305645Y-85500000D01*
X123285140Y-85331128D01*
X123273524Y-85300500D01*
X123228761Y-85182467D01*
X123224818Y-85172070D01*
X123200602Y-85136988D01*
X123183321Y-85111952D01*
X123128183Y-85032071D01*
X123010632Y-84927930D01*
X123000849Y-84919263D01*
X122850226Y-84840210D01*
X122685056Y-84799500D01*
X122517254Y-84799500D01*
X122450215Y-84779815D01*
X122429573Y-84763181D01*
X121059287Y-83392893D01*
X121059256Y-83392864D01*
X121038342Y-83371950D01*
X121038341Y-83371949D01*
X121018600Y-83361890D01*
X121002014Y-83351726D01*
X120984090Y-83338704D01*
X120984091Y-83338704D01*
X120963018Y-83331857D01*
X120945045Y-83324412D01*
X120925307Y-83314355D01*
X120925304Y-83314354D01*
X120903418Y-83310887D01*
X120884507Y-83306346D01*
X120863439Y-83299501D01*
X120863434Y-83299500D01*
X120863433Y-83299500D01*
X120831519Y-83299500D01*
X120078531Y-83299500D01*
X120075998Y-83299500D01*
X120075974Y-83299501D01*
X120046614Y-83299501D01*
X120025549Y-83306346D01*
X120006632Y-83310887D01*
X119984750Y-83314352D01*
X119984745Y-83314354D01*
X119965000Y-83324414D01*
X119947036Y-83331855D01*
X119925957Y-83338705D01*
X119908034Y-83351727D01*
X119891449Y-83361890D01*
X119871709Y-83371948D01*
X119849143Y-83394515D01*
X119849141Y-83394517D01*
X119394516Y-83849141D01*
X119394513Y-83849143D01*
X119394513Y-83849144D01*
X119383231Y-83860426D01*
X119371948Y-83871709D01*
X119371948Y-83871710D01*
X119361891Y-83891447D01*
X119351731Y-83908027D01*
X119338706Y-83925955D01*
X119338703Y-83925960D01*
X119331854Y-83947038D01*
X119324413Y-83965002D01*
X119314354Y-83984746D01*
X119314352Y-83984749D01*
X119310886Y-84006632D01*
X119306347Y-84025540D01*
X119299499Y-84046616D01*
X119299499Y-84046617D01*
X119299497Y-84129866D01*
X119299500Y-84129894D01*
X119299500Y-86653379D01*
X119299501Y-86653389D01*
X119306346Y-86674457D01*
X119310887Y-86693368D01*
X119314354Y-86715254D01*
X119314355Y-86715257D01*
X119324412Y-86734995D01*
X119331857Y-86752968D01*
X119338704Y-86774040D01*
X119351726Y-86791964D01*
X119361890Y-86808550D01*
X119371950Y-86828292D01*
X119392864Y-86849206D01*
X119392893Y-86849237D01*
X128951036Y-96407380D01*
X128951056Y-96407398D01*
X128971708Y-96428050D01*
X128991440Y-96438104D01*
X128991448Y-96438108D01*
X129008037Y-96448274D01*
X129025959Y-96461295D01*
X129025960Y-96461295D01*
X129025961Y-96461296D01*
X129047030Y-96468142D01*
X129064999Y-96475584D01*
X129084746Y-96485646D01*
X129106632Y-96489112D01*
X129125547Y-96493653D01*
X129146617Y-96500500D01*
X129146619Y-96500500D01*
X146263431Y-96500500D01*
X146263433Y-96500500D01*
X146284501Y-96493654D01*
X146303417Y-96489112D01*
X146325304Y-96485646D01*
X146345044Y-96475586D01*
X146363011Y-96468144D01*
X146384090Y-96461296D01*
X146402026Y-96448263D01*
X146418588Y-96438114D01*
X146438342Y-96428050D01*
X146453834Y-96412557D01*
X146453841Y-96412552D01*
X147988565Y-94877828D01*
X148666393Y-94200000D01*
X185744341Y-94200000D01*
X185764936Y-94435403D01*
X185764938Y-94435413D01*
X185826094Y-94663655D01*
X185826096Y-94663659D01*
X185826097Y-94663663D01*
X185871797Y-94761667D01*
X185925964Y-94877828D01*
X185925965Y-94877830D01*
X186061505Y-95071402D01*
X186228597Y-95238494D01*
X186422169Y-95374034D01*
X186422171Y-95374035D01*
X186636337Y-95473903D01*
X186864592Y-95535063D01*
X187041032Y-95550499D01*
X187041033Y-95550500D01*
X187041034Y-95550500D01*
X187158967Y-95550500D01*
X187158967Y-95550499D01*
X187335408Y-95535063D01*
X187563663Y-95473903D01*
X187777829Y-95374035D01*
X187971401Y-95238495D01*
X188138495Y-95071401D01*
X188274035Y-94877830D01*
X188373903Y-94663663D01*
X188435063Y-94435408D01*
X188455659Y-94200000D01*
X188435063Y-93964592D01*
X188373903Y-93736337D01*
X188274035Y-93522171D01*
X188274034Y-93522169D01*
X188138494Y-93328597D01*
X187971402Y-93161505D01*
X187777830Y-93025965D01*
X187777828Y-93025964D01*
X187670746Y-92976031D01*
X187563663Y-92926097D01*
X187563659Y-92926096D01*
X187563655Y-92926094D01*
X187335413Y-92864938D01*
X187335403Y-92864936D01*
X187158967Y-92849500D01*
X187158966Y-92849500D01*
X187041034Y-92849500D01*
X187041033Y-92849500D01*
X186864596Y-92864936D01*
X186864586Y-92864938D01*
X186636344Y-92926094D01*
X186636335Y-92926098D01*
X186422171Y-93025964D01*
X186422169Y-93025965D01*
X186228597Y-93161505D01*
X186061506Y-93328597D01*
X186061501Y-93328604D01*
X185925967Y-93522165D01*
X185925965Y-93522169D01*
X185826098Y-93736335D01*
X185826094Y-93736344D01*
X185764938Y-93964586D01*
X185764936Y-93964596D01*
X185744341Y-94199999D01*
X185744341Y-94200000D01*
X148666393Y-94200000D01*
X152596267Y-90270124D01*
X152657588Y-90236641D01*
X152727280Y-90241625D01*
X152736350Y-90245425D01*
X152803497Y-90276736D01*
X152803499Y-90276736D01*
X152803504Y-90276739D01*
X153023308Y-90335635D01*
X153185230Y-90349801D01*
X153249998Y-90355468D01*
X153250000Y-90355468D01*
X153250002Y-90355468D01*
X153306672Y-90350509D01*
X153476692Y-90335635D01*
X153696496Y-90276739D01*
X153902734Y-90180568D01*
X154089139Y-90050047D01*
X154250047Y-89889139D01*
X154380568Y-89702734D01*
X154476739Y-89496496D01*
X154535635Y-89276692D01*
X154554580Y-89060146D01*
X154555468Y-89050001D01*
X154555468Y-89049998D01*
X154545863Y-88940220D01*
X154535635Y-88823308D01*
X154476739Y-88603504D01*
X154447126Y-88540000D01*
X164844571Y-88540000D01*
X164864244Y-88752310D01*
X164904688Y-88894455D01*
X164922596Y-88957392D01*
X164922596Y-88957394D01*
X165017632Y-89148253D01*
X165132230Y-89300003D01*
X165146128Y-89318407D01*
X165303698Y-89462052D01*
X165484981Y-89574298D01*
X165683802Y-89651321D01*
X165893390Y-89690500D01*
X165893392Y-89690500D01*
X166106608Y-89690500D01*
X166106610Y-89690500D01*
X166316198Y-89651321D01*
X166515019Y-89574298D01*
X166696302Y-89462052D01*
X166853872Y-89318407D01*
X166982366Y-89148255D01*
X167008054Y-89096666D01*
X167077403Y-88957394D01*
X167077403Y-88957393D01*
X167077405Y-88957389D01*
X167135756Y-88752310D01*
X167155429Y-88540000D01*
X167155275Y-88538343D01*
X167153078Y-88514630D01*
X167135756Y-88327690D01*
X167077405Y-88122611D01*
X167077403Y-88122606D01*
X167077403Y-88122605D01*
X166982367Y-87931746D01*
X166952430Y-87892103D01*
X205780014Y-87892103D01*
X205800290Y-88085021D01*
X205800291Y-88085024D01*
X205860231Y-88269500D01*
X205860234Y-88269507D01*
X205957224Y-88437499D01*
X205971847Y-88453739D01*
X206087016Y-88581649D01*
X206087019Y-88581651D01*
X206087022Y-88581654D01*
X206211470Y-88672071D01*
X206243955Y-88695673D01*
X206421160Y-88774570D01*
X206421165Y-88774572D01*
X206610907Y-88814903D01*
X206804887Y-88814903D01*
X206994629Y-88774572D01*
X207171839Y-88695673D01*
X207328772Y-88581654D01*
X207329050Y-88581346D01*
X207359449Y-88547584D01*
X207458570Y-88437499D01*
X207555560Y-88269507D01*
X207615504Y-88085021D01*
X207635780Y-87892103D01*
X209372117Y-87892103D01*
X209392393Y-88085021D01*
X209392394Y-88085024D01*
X209452334Y-88269500D01*
X209452337Y-88269507D01*
X209549327Y-88437499D01*
X209563950Y-88453739D01*
X209679119Y-88581649D01*
X209679122Y-88581651D01*
X209679125Y-88581654D01*
X209803573Y-88672071D01*
X209836058Y-88695673D01*
X210013263Y-88774570D01*
X210013268Y-88774572D01*
X210203010Y-88814903D01*
X210396990Y-88814903D01*
X210586732Y-88774572D01*
X210763942Y-88695673D01*
X210920875Y-88581654D01*
X210921153Y-88581346D01*
X210951552Y-88547584D01*
X211050673Y-88437499D01*
X211147663Y-88269507D01*
X211207607Y-88085021D01*
X211227883Y-87892103D01*
X211207607Y-87699185D01*
X211147663Y-87514699D01*
X211050673Y-87346707D01*
X210980229Y-87268471D01*
X210920880Y-87202556D01*
X210920877Y-87202554D01*
X210920876Y-87202553D01*
X210920875Y-87202552D01*
X210807507Y-87120185D01*
X210763941Y-87088532D01*
X210586736Y-87009635D01*
X210586731Y-87009633D01*
X210396990Y-86969303D01*
X210203010Y-86969303D01*
X210013268Y-87009633D01*
X210013263Y-87009635D01*
X209836059Y-87088532D01*
X209836054Y-87088535D01*
X209679125Y-87202551D01*
X209549326Y-87346708D01*
X209452337Y-87514698D01*
X209452334Y-87514705D01*
X209403855Y-87663909D01*
X209392393Y-87699185D01*
X209372117Y-87892103D01*
X207635780Y-87892103D01*
X207615504Y-87699185D01*
X207555560Y-87514699D01*
X207458570Y-87346707D01*
X207388126Y-87268471D01*
X207328777Y-87202556D01*
X207328774Y-87202554D01*
X207328773Y-87202553D01*
X207328772Y-87202552D01*
X207215404Y-87120185D01*
X207171838Y-87088532D01*
X206994633Y-87009635D01*
X206994628Y-87009633D01*
X206804887Y-86969303D01*
X206610907Y-86969303D01*
X206421165Y-87009633D01*
X206421160Y-87009635D01*
X206243956Y-87088532D01*
X206243951Y-87088535D01*
X206087022Y-87202551D01*
X205957223Y-87346708D01*
X205860234Y-87514698D01*
X205860231Y-87514705D01*
X205811752Y-87663909D01*
X205800290Y-87699185D01*
X205783126Y-87862488D01*
X205782044Y-87872793D01*
X205780014Y-87892103D01*
X166952430Y-87892103D01*
X166853872Y-87761593D01*
X166827937Y-87737950D01*
X166696302Y-87617948D01*
X166515019Y-87505702D01*
X166515017Y-87505701D01*
X166324956Y-87432072D01*
X166316198Y-87428679D01*
X166119385Y-87391888D01*
X166057106Y-87360221D01*
X166021833Y-87299908D01*
X166024767Y-87230100D01*
X166064976Y-87172960D01*
X166119384Y-87148111D01*
X166316198Y-87111321D01*
X166515019Y-87034298D01*
X166696302Y-86922052D01*
X166853872Y-86778407D01*
X166982366Y-86608255D01*
X167046223Y-86480012D01*
X167077403Y-86417394D01*
X167077403Y-86417393D01*
X167077405Y-86417389D01*
X167135756Y-86212310D01*
X167155429Y-86000000D01*
X167135756Y-85787690D01*
X167077405Y-85582611D01*
X167077403Y-85582606D01*
X167077403Y-85582605D01*
X166982367Y-85391746D01*
X166853872Y-85221593D01*
X166809052Y-85180734D01*
X166696302Y-85077948D01*
X166515019Y-84965702D01*
X166515017Y-84965701D01*
X166395145Y-84919263D01*
X166316198Y-84888679D01*
X166143456Y-84856387D01*
X166081176Y-84824719D01*
X166045903Y-84764407D01*
X166048837Y-84694599D01*
X166089046Y-84637459D01*
X166153764Y-84611128D01*
X166166233Y-84610499D01*
X166894864Y-84610499D01*
X166894879Y-84610497D01*
X166894882Y-84610497D01*
X166919987Y-84607586D01*
X166919988Y-84607585D01*
X166919991Y-84607585D01*
X167022765Y-84562206D01*
X167102206Y-84482765D01*
X167147585Y-84379991D01*
X167150500Y-84354865D01*
X167150500Y-84300000D01*
X209372117Y-84300000D01*
X209392393Y-84492918D01*
X209392394Y-84492921D01*
X209452334Y-84677397D01*
X209452337Y-84677404D01*
X209549327Y-84845396D01*
X209588299Y-84888679D01*
X209679119Y-84989546D01*
X209679122Y-84989548D01*
X209679125Y-84989551D01*
X209818482Y-85090800D01*
X209836058Y-85103570D01*
X210013263Y-85182467D01*
X210013268Y-85182469D01*
X210203010Y-85222800D01*
X210396990Y-85222800D01*
X210586732Y-85182469D01*
X210763942Y-85103570D01*
X210920875Y-84989551D01*
X211050673Y-84845396D01*
X211147663Y-84677404D01*
X211207607Y-84492918D01*
X211227883Y-84300000D01*
X211207607Y-84107082D01*
X211147663Y-83922596D01*
X211050673Y-83754604D01*
X210973032Y-83668375D01*
X210920880Y-83610453D01*
X210920877Y-83610451D01*
X210920876Y-83610450D01*
X210920875Y-83610449D01*
X210763942Y-83496430D01*
X210763941Y-83496429D01*
X210586736Y-83417532D01*
X210586731Y-83417530D01*
X210396990Y-83377200D01*
X210203010Y-83377200D01*
X210013268Y-83417530D01*
X210013263Y-83417532D01*
X209836059Y-83496429D01*
X209836054Y-83496432D01*
X209679125Y-83610448D01*
X209549326Y-83754605D01*
X209452337Y-83922595D01*
X209452334Y-83922602D01*
X209392394Y-84107078D01*
X209392393Y-84107082D01*
X209372117Y-84300000D01*
X167150500Y-84300000D01*
X167150499Y-82565136D01*
X167148744Y-82550000D01*
X167147586Y-82540012D01*
X167147585Y-82540010D01*
X167147585Y-82540009D01*
X167102206Y-82437235D01*
X167022765Y-82357794D01*
X166962377Y-82331130D01*
X166919992Y-82312415D01*
X166894865Y-82309500D01*
X165105143Y-82309500D01*
X165105117Y-82309502D01*
X165080012Y-82312413D01*
X165080008Y-82312415D01*
X164977235Y-82357793D01*
X164897794Y-82437234D01*
X164852415Y-82540006D01*
X164852415Y-82540008D01*
X164849500Y-82565131D01*
X164849500Y-84354856D01*
X164849502Y-84354882D01*
X164852413Y-84379987D01*
X164852415Y-84379991D01*
X164897793Y-84482764D01*
X164897794Y-84482765D01*
X164977235Y-84562206D01*
X165080009Y-84607585D01*
X165105135Y-84610500D01*
X165833758Y-84610499D01*
X165900795Y-84630183D01*
X165946550Y-84682987D01*
X165956494Y-84752146D01*
X165927469Y-84815702D01*
X165868691Y-84853476D01*
X165856542Y-84856388D01*
X165800116Y-84866935D01*
X165683802Y-84888679D01*
X165683800Y-84888679D01*
X165683798Y-84888680D01*
X165484982Y-84965701D01*
X165484980Y-84965702D01*
X165303699Y-85077947D01*
X165146127Y-85221593D01*
X165017632Y-85391746D01*
X164922596Y-85582605D01*
X164922596Y-85582607D01*
X164922594Y-85582611D01*
X164922595Y-85582611D01*
X164864244Y-85787690D01*
X164844571Y-86000000D01*
X164864244Y-86212310D01*
X164881247Y-86272070D01*
X164922596Y-86417392D01*
X164922596Y-86417394D01*
X165017632Y-86608253D01*
X165113344Y-86734995D01*
X165146128Y-86778407D01*
X165303698Y-86922052D01*
X165484981Y-87034298D01*
X165683802Y-87111321D01*
X165880613Y-87148111D01*
X165942893Y-87179779D01*
X165978166Y-87240092D01*
X165975232Y-87309900D01*
X165935023Y-87367040D01*
X165880613Y-87391888D01*
X165683802Y-87428679D01*
X165683799Y-87428679D01*
X165683799Y-87428680D01*
X165484982Y-87505701D01*
X165484980Y-87505702D01*
X165303699Y-87617947D01*
X165146127Y-87761593D01*
X165017632Y-87931746D01*
X164922596Y-88122605D01*
X164922596Y-88122607D01*
X164864244Y-88327689D01*
X164844725Y-88538343D01*
X164844571Y-88540000D01*
X154447126Y-88540000D01*
X154380568Y-88397266D01*
X154250047Y-88210861D01*
X154250045Y-88210858D01*
X154089141Y-88049954D01*
X153902734Y-87919432D01*
X153902732Y-87919431D01*
X153696497Y-87823261D01*
X153696488Y-87823258D01*
X153476697Y-87764366D01*
X153476693Y-87764365D01*
X153476692Y-87764365D01*
X153476691Y-87764364D01*
X153476686Y-87764364D01*
X153250002Y-87744532D01*
X153249998Y-87744532D01*
X153023313Y-87764364D01*
X153023302Y-87764366D01*
X152803511Y-87823258D01*
X152803502Y-87823261D01*
X152597267Y-87919431D01*
X152597265Y-87919432D01*
X152410858Y-88049954D01*
X152249954Y-88210858D01*
X152119432Y-88397265D01*
X152119431Y-88397267D01*
X152023261Y-88603502D01*
X152023258Y-88603511D01*
X151964366Y-88823302D01*
X151964364Y-88823313D01*
X151944532Y-89049998D01*
X151944532Y-89050001D01*
X151964364Y-89276686D01*
X151964366Y-89276697D01*
X152023258Y-89496488D01*
X152023263Y-89496502D01*
X152054574Y-89563648D01*
X152065066Y-89632725D01*
X152036546Y-89696509D01*
X152029873Y-89703733D01*
X146070426Y-95663181D01*
X146009103Y-95696666D01*
X145982745Y-95699500D01*
X129427305Y-95699500D01*
X129360266Y-95679815D01*
X129339624Y-95663181D01*
X125660210Y-91983767D01*
X125626725Y-91922444D01*
X125631709Y-91852752D01*
X125673581Y-91796819D01*
X125690261Y-91786292D01*
X125700852Y-91780734D01*
X125828183Y-91667929D01*
X125924818Y-91527930D01*
X125985140Y-91368872D01*
X126005645Y-91200000D01*
X125988222Y-91056513D01*
X125999682Y-90987593D01*
X126046586Y-90935806D01*
X126114041Y-90917599D01*
X126167608Y-90931082D01*
X126181391Y-90938104D01*
X126197981Y-90948269D01*
X126215910Y-90961296D01*
X126215912Y-90961296D01*
X126215913Y-90961297D01*
X126236974Y-90968140D01*
X126254953Y-90975586D01*
X126274696Y-90985646D01*
X126296585Y-90989112D01*
X126315501Y-90993653D01*
X126336567Y-91000499D01*
X126365924Y-91000499D01*
X126365948Y-91000500D01*
X126368481Y-91000500D01*
X130668431Y-91000500D01*
X130668433Y-91000500D01*
X130689501Y-90993654D01*
X130708417Y-90989112D01*
X130730304Y-90985646D01*
X130750044Y-90975586D01*
X130768011Y-90968144D01*
X130789090Y-90961296D01*
X130807026Y-90948263D01*
X130823588Y-90938114D01*
X130843342Y-90928050D01*
X130858834Y-90912557D01*
X130858841Y-90912552D01*
X131064013Y-90707380D01*
X132100963Y-89670427D01*
X132162284Y-89636944D01*
X132231975Y-89641928D01*
X132287909Y-89683799D01*
X132311738Y-89743162D01*
X132314859Y-89768869D01*
X132314860Y-89768874D01*
X132375182Y-89927931D01*
X132431346Y-90009297D01*
X132471817Y-90067929D01*
X132559019Y-90145183D01*
X132599150Y-90180736D01*
X132722405Y-90245425D01*
X132749775Y-90259790D01*
X132914944Y-90300500D01*
X133082745Y-90300500D01*
X133149784Y-90320185D01*
X133170426Y-90336819D01*
X133540986Y-90707380D01*
X133541006Y-90707398D01*
X133561658Y-90728050D01*
X133581390Y-90738104D01*
X133581398Y-90738108D01*
X133597987Y-90748274D01*
X133615909Y-90761295D01*
X133615910Y-90761295D01*
X133615911Y-90761296D01*
X133636980Y-90768142D01*
X133654949Y-90775584D01*
X133674696Y-90785646D01*
X133696582Y-90789112D01*
X133715497Y-90793653D01*
X133736567Y-90800500D01*
X133736569Y-90800500D01*
X137263431Y-90800500D01*
X137263433Y-90800500D01*
X137284501Y-90793654D01*
X137303417Y-90789112D01*
X137325304Y-90785646D01*
X137345044Y-90775586D01*
X137363011Y-90768144D01*
X137384090Y-90761296D01*
X137402026Y-90748263D01*
X137418588Y-90738114D01*
X137438342Y-90728050D01*
X137453834Y-90712557D01*
X137453841Y-90712552D01*
X137573446Y-90592947D01*
X138462821Y-89703569D01*
X138524142Y-89670086D01*
X138593833Y-89675070D01*
X138649767Y-89716941D01*
X138674184Y-89782406D01*
X138674500Y-89791250D01*
X138674500Y-89869855D01*
X138674502Y-89869882D01*
X138677413Y-89894987D01*
X138677415Y-89894991D01*
X138722793Y-89997764D01*
X138722794Y-89997765D01*
X138802235Y-90077206D01*
X138905009Y-90122585D01*
X138930135Y-90125500D01*
X139658758Y-90125499D01*
X139725795Y-90145183D01*
X139771550Y-90197987D01*
X139781494Y-90267146D01*
X139752469Y-90330702D01*
X139693691Y-90368476D01*
X139681542Y-90371388D01*
X139625116Y-90381935D01*
X139508802Y-90403679D01*
X139508800Y-90403679D01*
X139508798Y-90403680D01*
X139309982Y-90480701D01*
X139309980Y-90480702D01*
X139128699Y-90592947D01*
X138971127Y-90736593D01*
X138842632Y-90906746D01*
X138747596Y-91097605D01*
X138747596Y-91097607D01*
X138747594Y-91097611D01*
X138747595Y-91097611D01*
X138689244Y-91302690D01*
X138669571Y-91515000D01*
X138689244Y-91727310D01*
X138727725Y-91862556D01*
X138747596Y-91932392D01*
X138747596Y-91932394D01*
X138842632Y-92123253D01*
X138842634Y-92123255D01*
X138971128Y-92293407D01*
X139128698Y-92437052D01*
X139309981Y-92549298D01*
X139508802Y-92626321D01*
X139705613Y-92663111D01*
X139767893Y-92694779D01*
X139803166Y-92755092D01*
X139800232Y-92824900D01*
X139760023Y-92882040D01*
X139705613Y-92906888D01*
X139508802Y-92943679D01*
X139508799Y-92943679D01*
X139508799Y-92943680D01*
X139309982Y-93020701D01*
X139309980Y-93020702D01*
X139128699Y-93132947D01*
X138971127Y-93276593D01*
X138842632Y-93446746D01*
X138747596Y-93637605D01*
X138747596Y-93637607D01*
X138719503Y-93736344D01*
X138689244Y-93842690D01*
X138669571Y-94055000D01*
X138689244Y-94267310D01*
X138737071Y-94435403D01*
X138747596Y-94472392D01*
X138747596Y-94472394D01*
X138842632Y-94663253D01*
X138945522Y-94799500D01*
X138971128Y-94833407D01*
X139128698Y-94977052D01*
X139309981Y-95089298D01*
X139508802Y-95166321D01*
X139718390Y-95205500D01*
X139718392Y-95205500D01*
X139931608Y-95205500D01*
X139931610Y-95205500D01*
X140141198Y-95166321D01*
X140340019Y-95089298D01*
X140521302Y-94977052D01*
X140678872Y-94833407D01*
X140807366Y-94663255D01*
X140902405Y-94472389D01*
X140960756Y-94267310D01*
X140980429Y-94055000D01*
X140960756Y-93842690D01*
X140902405Y-93637611D01*
X140902403Y-93637606D01*
X140902403Y-93637605D01*
X140807367Y-93446746D01*
X140678872Y-93276593D01*
X140552627Y-93161505D01*
X140521302Y-93132948D01*
X140340019Y-93020702D01*
X140340017Y-93020701D01*
X140141201Y-92943680D01*
X140141200Y-92943679D01*
X140141198Y-92943679D01*
X140017797Y-92920611D01*
X139944386Y-92906888D01*
X139882106Y-92875219D01*
X139846833Y-92814907D01*
X139849767Y-92745099D01*
X139889976Y-92687959D01*
X139944381Y-92663112D01*
X140141198Y-92626321D01*
X140340019Y-92549298D01*
X140521302Y-92437052D01*
X140678872Y-92293407D01*
X140807366Y-92123255D01*
X140902405Y-91932389D01*
X140960756Y-91727310D01*
X140971529Y-91611047D01*
X140997315Y-91546111D01*
X141041869Y-91514194D01*
X141005497Y-91493331D01*
X140973307Y-91431318D01*
X140971529Y-91418951D01*
X140970849Y-91411613D01*
X140960756Y-91302690D01*
X140902405Y-91097611D01*
X140902403Y-91097606D01*
X140902403Y-91097605D01*
X140807367Y-90906746D01*
X140678872Y-90736593D01*
X140669499Y-90728048D01*
X140521302Y-90592948D01*
X140340019Y-90480702D01*
X140340017Y-90480701D01*
X140208715Y-90429835D01*
X140141198Y-90403679D01*
X139968456Y-90371387D01*
X139906176Y-90339719D01*
X139870903Y-90279407D01*
X139873837Y-90209599D01*
X139914046Y-90152459D01*
X139978764Y-90126128D01*
X139991233Y-90125499D01*
X140719864Y-90125499D01*
X140719879Y-90125497D01*
X140719882Y-90125497D01*
X140744987Y-90122586D01*
X140744988Y-90122585D01*
X140744991Y-90122585D01*
X140847765Y-90077206D01*
X140927206Y-89997765D01*
X140972585Y-89894991D01*
X140975500Y-89869865D01*
X140975499Y-89131046D01*
X140995183Y-89064009D01*
X141047987Y-89018254D01*
X141117146Y-89008310D01*
X141180702Y-89037335D01*
X141218476Y-89096113D01*
X141222970Y-89119606D01*
X141227536Y-89168874D01*
X141229244Y-89187310D01*
X141261308Y-89300003D01*
X141287596Y-89392392D01*
X141287596Y-89392394D01*
X141382632Y-89583253D01*
X141483590Y-89716941D01*
X141511128Y-89753407D01*
X141668698Y-89897052D01*
X141849981Y-90009298D01*
X142048802Y-90086321D01*
X142245613Y-90123111D01*
X142307893Y-90154779D01*
X142343166Y-90215092D01*
X142340232Y-90284900D01*
X142300023Y-90342040D01*
X142245613Y-90366888D01*
X142048802Y-90403679D01*
X142048799Y-90403679D01*
X142048799Y-90403680D01*
X141849982Y-90480701D01*
X141849980Y-90480702D01*
X141668699Y-90592947D01*
X141511127Y-90736593D01*
X141382632Y-90906746D01*
X141287596Y-91097605D01*
X141287596Y-91097607D01*
X141229244Y-91302689D01*
X141218471Y-91418951D01*
X141192685Y-91483888D01*
X141148130Y-91515804D01*
X141184503Y-91536668D01*
X141216693Y-91598681D01*
X141218470Y-91611047D01*
X141229244Y-91727310D01*
X141267725Y-91862556D01*
X141287596Y-91932392D01*
X141287596Y-91932394D01*
X141382632Y-92123253D01*
X141382634Y-92123255D01*
X141511128Y-92293407D01*
X141668698Y-92437052D01*
X141849981Y-92549298D01*
X142048802Y-92626321D01*
X142258390Y-92665500D01*
X142258392Y-92665500D01*
X142471608Y-92665500D01*
X142471610Y-92665500D01*
X142681198Y-92626321D01*
X142880019Y-92549298D01*
X143061302Y-92437052D01*
X143218872Y-92293407D01*
X143347366Y-92123255D01*
X143442405Y-91932389D01*
X143500756Y-91727310D01*
X143520429Y-91515000D01*
X143500756Y-91302690D01*
X143442405Y-91097611D01*
X143442403Y-91097606D01*
X143442403Y-91097605D01*
X143347367Y-90906746D01*
X143218872Y-90736593D01*
X143209499Y-90728048D01*
X143061302Y-90592948D01*
X142880019Y-90480702D01*
X142880017Y-90480701D01*
X142748715Y-90429835D01*
X142681198Y-90403679D01*
X142484385Y-90366888D01*
X142422106Y-90335221D01*
X142386833Y-90274908D01*
X142389767Y-90205100D01*
X142429976Y-90147960D01*
X142484384Y-90123111D01*
X142681198Y-90086321D01*
X142880019Y-90009298D01*
X143061302Y-89897052D01*
X143218872Y-89753407D01*
X143347366Y-89583255D01*
X143373322Y-89531128D01*
X143442403Y-89392394D01*
X143442403Y-89392393D01*
X143442405Y-89392389D01*
X143500756Y-89187310D01*
X143520429Y-88975000D01*
X143500756Y-88762690D01*
X143442405Y-88557611D01*
X143442403Y-88557606D01*
X143442403Y-88557605D01*
X143347367Y-88366746D01*
X143218872Y-88196593D01*
X143167525Y-88149784D01*
X143061302Y-88052948D01*
X142880019Y-87940702D01*
X142880017Y-87940701D01*
X142754567Y-87892102D01*
X142681198Y-87863679D01*
X142471610Y-87824500D01*
X142258390Y-87824500D01*
X142048802Y-87863679D01*
X142048799Y-87863679D01*
X142048799Y-87863680D01*
X141849982Y-87940701D01*
X141849980Y-87940702D01*
X141668699Y-88052947D01*
X141511127Y-88196593D01*
X141382632Y-88366746D01*
X141287596Y-88557605D01*
X141287596Y-88557607D01*
X141229244Y-88762689D01*
X141222970Y-88830394D01*
X141197183Y-88895331D01*
X141140383Y-88936018D01*
X141070602Y-88939538D01*
X141009995Y-88904772D01*
X140977806Y-88842759D01*
X140975499Y-88818952D01*
X140975499Y-88080143D01*
X140975499Y-88080136D01*
X140974564Y-88072070D01*
X140972586Y-88055012D01*
X140972585Y-88055010D01*
X140972585Y-88055009D01*
X140927206Y-87952235D01*
X140847765Y-87872794D01*
X140827124Y-87863680D01*
X140744992Y-87827415D01*
X140719865Y-87824500D01*
X138930143Y-87824500D01*
X138930117Y-87824502D01*
X138905012Y-87827413D01*
X138905008Y-87827415D01*
X138802235Y-87872793D01*
X138722794Y-87952234D01*
X138677415Y-88055006D01*
X138677415Y-88055008D01*
X138674500Y-88080131D01*
X138674500Y-88450708D01*
X138654815Y-88517747D01*
X138602011Y-88563502D01*
X138569898Y-88573181D01*
X138561570Y-88574499D01*
X138540499Y-88581346D01*
X138521582Y-88585887D01*
X138499700Y-88589352D01*
X138499695Y-88589354D01*
X138479950Y-88599414D01*
X138461986Y-88606855D01*
X138440907Y-88613705D01*
X138422984Y-88626727D01*
X138406398Y-88636891D01*
X138386659Y-88646949D01*
X138386656Y-88646951D01*
X138305530Y-88728073D01*
X138305504Y-88728103D01*
X137070426Y-89963181D01*
X137009103Y-89996666D01*
X136982745Y-89999500D01*
X134017255Y-89999500D01*
X133950216Y-89979815D01*
X133929574Y-89963181D01*
X133733259Y-89766866D01*
X133699774Y-89705543D01*
X133697844Y-89664242D01*
X133705645Y-89600000D01*
X133685140Y-89431128D01*
X133624818Y-89272070D01*
X133620505Y-89265822D01*
X133553583Y-89168869D01*
X133528183Y-89132071D01*
X133400852Y-89019266D01*
X133400849Y-89019263D01*
X133250226Y-88940210D01*
X133175423Y-88921773D01*
X133127509Y-88909963D01*
X133067130Y-88874808D01*
X133035341Y-88812589D01*
X133042237Y-88743060D01*
X133069502Y-88701888D01*
X136641806Y-85129584D01*
X136703127Y-85096101D01*
X136772819Y-85101085D01*
X136774278Y-85101640D01*
X136840273Y-85127206D01*
X136863802Y-85136321D01*
X137073390Y-85175500D01*
X137073392Y-85175500D01*
X137286608Y-85175500D01*
X137286610Y-85175500D01*
X137496198Y-85136321D01*
X137695019Y-85059298D01*
X137876302Y-84947052D01*
X138033872Y-84803407D01*
X138162366Y-84633255D01*
X138197744Y-84562206D01*
X138257403Y-84442394D01*
X138257403Y-84442393D01*
X138257405Y-84442389D01*
X138315756Y-84237310D01*
X138326529Y-84121047D01*
X138352315Y-84056111D01*
X138394622Y-84025804D01*
X138503130Y-84025804D01*
X138539503Y-84046668D01*
X138571693Y-84108681D01*
X138573470Y-84121047D01*
X138584244Y-84237310D01*
X138639391Y-84431130D01*
X138642596Y-84442392D01*
X138642596Y-84442394D01*
X138737632Y-84633253D01*
X138866127Y-84803406D01*
X138866128Y-84803407D01*
X139023698Y-84947052D01*
X139204981Y-85059298D01*
X139403802Y-85136321D01*
X139613390Y-85175500D01*
X139613392Y-85175500D01*
X139826608Y-85175500D01*
X139826610Y-85175500D01*
X140036198Y-85136321D01*
X140235019Y-85059298D01*
X140416302Y-84947052D01*
X140573872Y-84803407D01*
X140702366Y-84633255D01*
X140737744Y-84562206D01*
X140797403Y-84442394D01*
X140797403Y-84442393D01*
X140797405Y-84442389D01*
X140855756Y-84237310D01*
X140866529Y-84121047D01*
X140892315Y-84056111D01*
X140934622Y-84025804D01*
X141043130Y-84025804D01*
X141079503Y-84046668D01*
X141111693Y-84108681D01*
X141113470Y-84121047D01*
X141124244Y-84237310D01*
X141179391Y-84431130D01*
X141182596Y-84442392D01*
X141182596Y-84442394D01*
X141277632Y-84633253D01*
X141406127Y-84803406D01*
X141406128Y-84803407D01*
X141563698Y-84947052D01*
X141744981Y-85059298D01*
X141943802Y-85136321D01*
X142153390Y-85175500D01*
X142153392Y-85175500D01*
X142366608Y-85175500D01*
X142366610Y-85175500D01*
X142576198Y-85136321D01*
X142775019Y-85059298D01*
X142956302Y-84947052D01*
X143113872Y-84803407D01*
X143242366Y-84633255D01*
X143277744Y-84562206D01*
X143337403Y-84442394D01*
X143337403Y-84442393D01*
X143337405Y-84442389D01*
X143395756Y-84237310D01*
X143406529Y-84121047D01*
X143432315Y-84056111D01*
X143474624Y-84025803D01*
X143583129Y-84025803D01*
X143619503Y-84046668D01*
X143651693Y-84108681D01*
X143653470Y-84121047D01*
X143664244Y-84237310D01*
X143719391Y-84431130D01*
X143722596Y-84442392D01*
X143722596Y-84442394D01*
X143817632Y-84633253D01*
X143946127Y-84803406D01*
X143946128Y-84803407D01*
X144103698Y-84947052D01*
X144284981Y-85059298D01*
X144483802Y-85136321D01*
X144693390Y-85175500D01*
X144693392Y-85175500D01*
X144906608Y-85175500D01*
X144906610Y-85175500D01*
X145116198Y-85136321D01*
X145315019Y-85059298D01*
X145496302Y-84947052D01*
X145653872Y-84803407D01*
X145782366Y-84633255D01*
X145817744Y-84562206D01*
X145877403Y-84442394D01*
X145877403Y-84442393D01*
X145877405Y-84442389D01*
X145935756Y-84237310D01*
X145955429Y-84025000D01*
X145935756Y-83812690D01*
X145877405Y-83607611D01*
X145877403Y-83607606D01*
X145877403Y-83607605D01*
X145782367Y-83416746D01*
X145653872Y-83246593D01*
X145636908Y-83231128D01*
X145496302Y-83102948D01*
X145315019Y-82990702D01*
X145315017Y-82990701D01*
X145163676Y-82932072D01*
X145116198Y-82913679D01*
X144906610Y-82874500D01*
X144693390Y-82874500D01*
X144483802Y-82913679D01*
X144483799Y-82913679D01*
X144483799Y-82913680D01*
X144284982Y-82990701D01*
X144284980Y-82990702D01*
X144103699Y-83102947D01*
X143946127Y-83246593D01*
X143817632Y-83416746D01*
X143722596Y-83607605D01*
X143722596Y-83607607D01*
X143664244Y-83812689D01*
X143653470Y-83928952D01*
X143627683Y-83993889D01*
X143583129Y-84025803D01*
X143474624Y-84025803D01*
X143476869Y-84024195D01*
X143440495Y-84003330D01*
X143408306Y-83941317D01*
X143406530Y-83928966D01*
X143395756Y-83812690D01*
X143395575Y-83812055D01*
X143371673Y-83728050D01*
X143337405Y-83607611D01*
X143337403Y-83607606D01*
X143337403Y-83607605D01*
X143242367Y-83416746D01*
X143113872Y-83246593D01*
X143096908Y-83231128D01*
X142956302Y-83102948D01*
X142775019Y-82990702D01*
X142775017Y-82990701D01*
X142623676Y-82932072D01*
X142576198Y-82913679D01*
X142366610Y-82874500D01*
X142153390Y-82874500D01*
X141943802Y-82913679D01*
X141943799Y-82913679D01*
X141943799Y-82913680D01*
X141744982Y-82990701D01*
X141744980Y-82990702D01*
X141563699Y-83102947D01*
X141406127Y-83246593D01*
X141277632Y-83416746D01*
X141182596Y-83607605D01*
X141182596Y-83607607D01*
X141124244Y-83812689D01*
X141113471Y-83928951D01*
X141087685Y-83993888D01*
X141043130Y-84025804D01*
X140934622Y-84025804D01*
X140936869Y-84024194D01*
X140900497Y-84003331D01*
X140868307Y-83941318D01*
X140866529Y-83928951D01*
X140864590Y-83908027D01*
X140855756Y-83812690D01*
X140797405Y-83607611D01*
X140797403Y-83607606D01*
X140797403Y-83607605D01*
X140702367Y-83416746D01*
X140573872Y-83246593D01*
X140556908Y-83231128D01*
X140416302Y-83102948D01*
X140235019Y-82990702D01*
X140235017Y-82990701D01*
X140083676Y-82932072D01*
X140036198Y-82913679D01*
X139826610Y-82874500D01*
X139613390Y-82874500D01*
X139403802Y-82913679D01*
X139403799Y-82913679D01*
X139403799Y-82913680D01*
X139204982Y-82990701D01*
X139204980Y-82990702D01*
X139023699Y-83102947D01*
X138866127Y-83246593D01*
X138737632Y-83416746D01*
X138642596Y-83607605D01*
X138642596Y-83607607D01*
X138584244Y-83812689D01*
X138573471Y-83928951D01*
X138547685Y-83993888D01*
X138503130Y-84025804D01*
X138394622Y-84025804D01*
X138396869Y-84024194D01*
X138360497Y-84003331D01*
X138328307Y-83941318D01*
X138326529Y-83928951D01*
X138324590Y-83908027D01*
X138315756Y-83812690D01*
X138257405Y-83607611D01*
X138257403Y-83607606D01*
X138257403Y-83607605D01*
X138162367Y-83416746D01*
X138033872Y-83246593D01*
X138016908Y-83231128D01*
X137876302Y-83102948D01*
X137695019Y-82990702D01*
X137695017Y-82990701D01*
X137543676Y-82932072D01*
X137496198Y-82913679D01*
X137286610Y-82874500D01*
X137073390Y-82874500D01*
X136863802Y-82913679D01*
X136863799Y-82913679D01*
X136863799Y-82913680D01*
X136664982Y-82990701D01*
X136664980Y-82990702D01*
X136483699Y-83102947D01*
X136326127Y-83246593D01*
X136197632Y-83416746D01*
X136102596Y-83607605D01*
X136102596Y-83607607D01*
X136044244Y-83812689D01*
X136037970Y-83880398D01*
X136012184Y-83945335D01*
X135955384Y-83986023D01*
X135885603Y-83989543D01*
X135824996Y-83954778D01*
X135792806Y-83892765D01*
X135790499Y-83868957D01*
X135790499Y-83130143D01*
X135790499Y-83130136D01*
X135790497Y-83130117D01*
X135787586Y-83105012D01*
X135787585Y-83105010D01*
X135787585Y-83105009D01*
X135742206Y-83002235D01*
X135662765Y-82922794D01*
X135642124Y-82913680D01*
X135559992Y-82877415D01*
X135534868Y-82874500D01*
X135534865Y-82874500D01*
X135164500Y-82874500D01*
X135097461Y-82854815D01*
X135051706Y-82802011D01*
X135040500Y-82750500D01*
X135040500Y-82550001D01*
X151944532Y-82550001D01*
X151964364Y-82776686D01*
X151964366Y-82776697D01*
X152023258Y-82996488D01*
X152023261Y-82996497D01*
X152119431Y-83202732D01*
X152119432Y-83202734D01*
X152249954Y-83389141D01*
X152410858Y-83550045D01*
X152410861Y-83550047D01*
X152597266Y-83680568D01*
X152803504Y-83776739D01*
X152803509Y-83776740D01*
X152803511Y-83776741D01*
X152847785Y-83788604D01*
X153023308Y-83835635D01*
X153185230Y-83849801D01*
X153249998Y-83855468D01*
X153250000Y-83855468D01*
X153250002Y-83855468D01*
X153306672Y-83850509D01*
X153476692Y-83835635D01*
X153696496Y-83776739D01*
X153902734Y-83680568D01*
X154089139Y-83550047D01*
X154250047Y-83389139D01*
X154380568Y-83202734D01*
X154476739Y-82996496D01*
X154535635Y-82776692D01*
X154555468Y-82550000D01*
X154535635Y-82323308D01*
X154476739Y-82103504D01*
X154380568Y-81897266D01*
X154250047Y-81710861D01*
X154250045Y-81710858D01*
X154089141Y-81549954D01*
X153902734Y-81419432D01*
X153902732Y-81419431D01*
X153696497Y-81323261D01*
X153696488Y-81323258D01*
X153476697Y-81264366D01*
X153476693Y-81264365D01*
X153476692Y-81264365D01*
X153476691Y-81264364D01*
X153476686Y-81264364D01*
X153250002Y-81244532D01*
X153249998Y-81244532D01*
X153023313Y-81264364D01*
X153023302Y-81264366D01*
X152803511Y-81323258D01*
X152803502Y-81323261D01*
X152597267Y-81419431D01*
X152597265Y-81419432D01*
X152410858Y-81549954D01*
X152249954Y-81710858D01*
X152119432Y-81897265D01*
X152119431Y-81897267D01*
X152023261Y-82103502D01*
X152023258Y-82103511D01*
X151964366Y-82323302D01*
X151964364Y-82323313D01*
X151944532Y-82549998D01*
X151944532Y-82550001D01*
X135040500Y-82550001D01*
X135040500Y-80176568D01*
X135040500Y-80176567D01*
X135033652Y-80155491D01*
X135029111Y-80136578D01*
X135025646Y-80114696D01*
X135015588Y-80094958D01*
X135008142Y-80076981D01*
X135001296Y-80055910D01*
X134988269Y-80037981D01*
X134978104Y-80021392D01*
X134977019Y-80019263D01*
X134968050Y-80001658D01*
X134878342Y-79911950D01*
X134207082Y-79240690D01*
X132466394Y-77500000D01*
X185744341Y-77500000D01*
X185764936Y-77735403D01*
X185764938Y-77735413D01*
X185826094Y-77963655D01*
X185826096Y-77963659D01*
X185826097Y-77963663D01*
X185862695Y-78042147D01*
X185925964Y-78177828D01*
X185925965Y-78177830D01*
X186061505Y-78371402D01*
X186228597Y-78538494D01*
X186422169Y-78674034D01*
X186422171Y-78674035D01*
X186636337Y-78773903D01*
X186864592Y-78835063D01*
X187041032Y-78850499D01*
X187041033Y-78850500D01*
X187041034Y-78850500D01*
X187158967Y-78850500D01*
X187158967Y-78850499D01*
X187335408Y-78835063D01*
X187563663Y-78773903D01*
X187777829Y-78674035D01*
X187971401Y-78538495D01*
X188138495Y-78371401D01*
X188274035Y-78177830D01*
X188373903Y-77963663D01*
X188435063Y-77735408D01*
X188455659Y-77500000D01*
X188435063Y-77264592D01*
X188373903Y-77036337D01*
X188274035Y-76822171D01*
X188274034Y-76822169D01*
X188138494Y-76628597D01*
X187971402Y-76461505D01*
X187777830Y-76325965D01*
X187777828Y-76325964D01*
X187626891Y-76255581D01*
X187563663Y-76226097D01*
X187563659Y-76226096D01*
X187563655Y-76226094D01*
X187335413Y-76164938D01*
X187335403Y-76164936D01*
X187158967Y-76149500D01*
X187158966Y-76149500D01*
X187041034Y-76149500D01*
X187041033Y-76149500D01*
X186864596Y-76164936D01*
X186864586Y-76164938D01*
X186636344Y-76226094D01*
X186636335Y-76226098D01*
X186422171Y-76325964D01*
X186422169Y-76325965D01*
X186228597Y-76461505D01*
X186061506Y-76628597D01*
X186061501Y-76628604D01*
X185925967Y-76822165D01*
X185925965Y-76822169D01*
X185826098Y-77036335D01*
X185826094Y-77036344D01*
X185764938Y-77264586D01*
X185764936Y-77264596D01*
X185744341Y-77499999D01*
X185744341Y-77500000D01*
X132466394Y-77500000D01*
X132159287Y-77192893D01*
X132159256Y-77192864D01*
X132138342Y-77171950D01*
X132138341Y-77171949D01*
X132118600Y-77161890D01*
X132102014Y-77151726D01*
X132084090Y-77138704D01*
X132084091Y-77138704D01*
X132063018Y-77131857D01*
X132045045Y-77124412D01*
X132025307Y-77114355D01*
X132025304Y-77114354D01*
X132003418Y-77110887D01*
X131984507Y-77106346D01*
X131963439Y-77099501D01*
X131963434Y-77099500D01*
X131963433Y-77099500D01*
X131963429Y-77099500D01*
X115339806Y-77099500D01*
X115272767Y-77079815D01*
X115237756Y-77045940D01*
X115228183Y-77032071D01*
X115100849Y-76919263D01*
X114950226Y-76840210D01*
X114785056Y-76799500D01*
X114614944Y-76799500D01*
X114449773Y-76840210D01*
X114299150Y-76919263D01*
X114171816Y-77032072D01*
X114075182Y-77172068D01*
X114014860Y-77331125D01*
X114014859Y-77331130D01*
X113994355Y-77499999D01*
X61055659Y-77499999D01*
X61035063Y-77264592D01*
X60973903Y-77036337D01*
X60874035Y-76822171D01*
X60874034Y-76822169D01*
X60738494Y-76628597D01*
X60571402Y-76461505D01*
X60377830Y-76325965D01*
X60377828Y-76325964D01*
X60226891Y-76255581D01*
X60163663Y-76226097D01*
X60163659Y-76226096D01*
X60163655Y-76226094D01*
X59935413Y-76164938D01*
X59935403Y-76164936D01*
X59758967Y-76149500D01*
X59758966Y-76149500D01*
X59641034Y-76149500D01*
X59641033Y-76149500D01*
X59464596Y-76164936D01*
X59464586Y-76164938D01*
X59236344Y-76226094D01*
X59236335Y-76226098D01*
X59022171Y-76325964D01*
X59022169Y-76325965D01*
X58828597Y-76461505D01*
X58661506Y-76628597D01*
X58661501Y-76628604D01*
X58525967Y-76822165D01*
X58525965Y-76822169D01*
X58426098Y-77036335D01*
X58426094Y-77036344D01*
X58364938Y-77264586D01*
X58364936Y-77264596D01*
X58344341Y-77499999D01*
X58344341Y-77500000D01*
X57100500Y-77500000D01*
X57100500Y-76902004D01*
X57100632Y-76897979D01*
X57105989Y-76816265D01*
X57107541Y-76794561D01*
X57118986Y-76634538D01*
X57120015Y-76626901D01*
X57143155Y-76510567D01*
X57174533Y-76366323D01*
X57176392Y-76359625D01*
X57216547Y-76241335D01*
X57217087Y-76239817D01*
X57266162Y-76108242D01*
X57268628Y-76102530D01*
X57325044Y-75988129D01*
X57326152Y-75985996D01*
X57392184Y-75865066D01*
X57395029Y-75860368D01*
X57466563Y-75753311D01*
X57468428Y-75750676D01*
X57550291Y-75641321D01*
X57553244Y-75637678D01*
X57638503Y-75540459D01*
X57641198Y-75537581D01*
X57737581Y-75441198D01*
X57740459Y-75438503D01*
X57837678Y-75353244D01*
X57841321Y-75350291D01*
X57950676Y-75268428D01*
X57953311Y-75266563D01*
X58060368Y-75195029D01*
X58065066Y-75192184D01*
X58185996Y-75126152D01*
X58188129Y-75125044D01*
X58302530Y-75068628D01*
X58308242Y-75066162D01*
X58439817Y-75017087D01*
X58441335Y-75016547D01*
X58559625Y-74976392D01*
X58566323Y-74974533D01*
X58710567Y-74943155D01*
X58826901Y-74920015D01*
X58834536Y-74918986D01*
X59016290Y-74905986D01*
X59046237Y-74904023D01*
X59097981Y-74900633D01*
X59102036Y-74900500D01*
X212497964Y-74900500D01*
X212502019Y-74900633D01*
G37*
%TD.AperFunction*%
%TD*%
M02*
