%TF.GenerationSoftware,KiCad,Pcbnew,7.0.5*%
%TF.CreationDate,2024-05-20T19:12:35+03:00*%
%TF.ProjectId,Tempuino,54656d70-7569-46e6-9f2e-6b696361645f,rev?*%
%TF.SameCoordinates,Original*%
%TF.FileFunction,Legend,Bot*%
%TF.FilePolarity,Positive*%
%FSLAX46Y46*%
G04 Gerber Fmt 4.6, Leading zero omitted, Abs format (unit mm)*
G04 Created by KiCad (PCBNEW 7.0.5) date 2024-05-20 19:12:35*
%MOMM*%
%LPD*%
G01*
G04 APERTURE LIST*
%ADD10C,0.150000*%
%ADD11C,0.152400*%
%ADD12C,0.127000*%
%ADD13C,0.200000*%
%ADD14C,0.120000*%
G04 APERTURE END LIST*
D10*
G36*
X207907268Y-79197124D02*
G01*
X207907268Y-79675847D01*
X207869325Y-79694819D01*
X207714260Y-79694819D01*
X207645742Y-79660560D01*
X207615334Y-79630151D01*
X207581078Y-79561637D01*
X207581078Y-79311334D01*
X207615337Y-79242815D01*
X207645742Y-79212410D01*
X207714258Y-79178152D01*
X207869324Y-79178152D01*
X207907268Y-79197124D01*
G37*
G36*
X210067857Y-80267857D02*
G01*
X206871429Y-80267857D01*
X206871429Y-79302019D01*
X207428364Y-79302019D01*
X207431078Y-79308562D01*
X207431078Y-79575301D01*
X207429147Y-79593186D01*
X207436003Y-79606899D01*
X207440321Y-79621602D01*
X207445674Y-79626240D01*
X207482409Y-79699709D01*
X207485092Y-79712040D01*
X207499711Y-79726660D01*
X207513781Y-79741786D01*
X207515199Y-79742148D01*
X207541633Y-79768583D01*
X207548078Y-79779434D01*
X207566589Y-79788689D01*
X207584700Y-79798579D01*
X207586159Y-79798474D01*
X207659405Y-79835097D01*
X207674532Y-79844819D01*
X207689862Y-79844819D01*
X207704945Y-79847533D01*
X207711489Y-79844819D01*
X207882990Y-79844819D01*
X207900874Y-79846750D01*
X207907268Y-79843552D01*
X207907268Y-80113934D01*
X207916511Y-80145412D01*
X207949797Y-80174254D01*
X207993392Y-80180522D01*
X208033456Y-80162226D01*
X208057268Y-80125174D01*
X208057268Y-79780601D01*
X208383458Y-79780601D01*
X208392701Y-79812079D01*
X208425987Y-79840921D01*
X208469582Y-79847189D01*
X208509646Y-79828893D01*
X208533458Y-79791841D01*
X208533458Y-79254400D01*
X208856935Y-79254400D01*
X208859649Y-79260943D01*
X208859649Y-79780601D01*
X208868892Y-79812079D01*
X208902178Y-79840921D01*
X208945773Y-79847189D01*
X208985837Y-79828893D01*
X209009649Y-79791841D01*
X209009649Y-79263715D01*
X209038170Y-79206672D01*
X209095210Y-79178152D01*
X209202657Y-79178152D01*
X209271175Y-79212411D01*
X209288220Y-79229455D01*
X209288220Y-79780601D01*
X209297463Y-79812079D01*
X209330749Y-79840921D01*
X209374344Y-79847189D01*
X209414408Y-79828893D01*
X209438220Y-79791841D01*
X209438220Y-79211920D01*
X209441187Y-79203966D01*
X209438220Y-79190326D01*
X209438220Y-79092370D01*
X209428977Y-79060892D01*
X209395691Y-79032050D01*
X209352096Y-79025782D01*
X209312032Y-79044078D01*
X209301790Y-79060013D01*
X209257514Y-79037875D01*
X209242385Y-79028152D01*
X209227055Y-79028152D01*
X209211972Y-79025438D01*
X209205428Y-79028152D01*
X209081537Y-79028152D01*
X209063662Y-79026222D01*
X209049952Y-79033076D01*
X209035246Y-79037395D01*
X209030606Y-79042749D01*
X208965815Y-79075144D01*
X208962903Y-79075042D01*
X208946302Y-79084901D01*
X208939083Y-79088511D01*
X208937066Y-79090386D01*
X208925034Y-79097533D01*
X208921251Y-79105097D01*
X208915062Y-79110855D01*
X208911596Y-79124408D01*
X208869372Y-79208857D01*
X208859649Y-79223987D01*
X208859649Y-79239317D01*
X208856935Y-79254400D01*
X208533458Y-79254400D01*
X208533458Y-79092370D01*
X208524215Y-79060892D01*
X208490929Y-79032050D01*
X208447334Y-79025782D01*
X208407270Y-79044078D01*
X208383458Y-79081130D01*
X208383458Y-79780601D01*
X208057268Y-79780601D01*
X208057268Y-79731635D01*
X208060385Y-79719445D01*
X208057268Y-79710065D01*
X208057268Y-79152067D01*
X208057997Y-79131406D01*
X208057268Y-79130178D01*
X208057268Y-79092370D01*
X208048025Y-79060892D01*
X208014739Y-79032050D01*
X207971144Y-79025782D01*
X207933958Y-79042763D01*
X207924181Y-79037875D01*
X207909052Y-79028152D01*
X207893722Y-79028152D01*
X207878639Y-79025438D01*
X207872095Y-79028152D01*
X207700585Y-79028152D01*
X207682710Y-79026222D01*
X207669000Y-79033076D01*
X207654294Y-79037395D01*
X207649654Y-79042749D01*
X207576185Y-79079483D01*
X207563855Y-79082166D01*
X207549235Y-79096785D01*
X207534110Y-79110855D01*
X207533747Y-79112273D01*
X207507312Y-79138708D01*
X207496463Y-79145152D01*
X207487212Y-79163652D01*
X207477317Y-79181775D01*
X207477421Y-79183235D01*
X207440801Y-79256476D01*
X207431078Y-79271606D01*
X207431078Y-79286936D01*
X207428364Y-79302019D01*
X206871429Y-79302019D01*
X206871429Y-78811862D01*
X208332872Y-78811862D01*
X208336413Y-78828142D01*
X208337602Y-78844754D01*
X208341020Y-78849320D01*
X208342234Y-78854899D01*
X208354016Y-78866681D01*
X208363996Y-78880013D01*
X208369341Y-78882006D01*
X208391889Y-78904554D01*
X208392701Y-78907317D01*
X208403250Y-78916457D01*
X208411615Y-78927632D01*
X208419570Y-78930599D01*
X208425987Y-78936159D01*
X208434391Y-78937367D01*
X208441843Y-78941436D01*
X208447533Y-78941029D01*
X208452882Y-78943024D01*
X208461179Y-78941218D01*
X208469582Y-78942427D01*
X208477306Y-78938899D01*
X208485774Y-78938294D01*
X208490340Y-78934875D01*
X208495919Y-78933662D01*
X208501923Y-78927657D01*
X208509646Y-78924131D01*
X208514237Y-78916986D01*
X208521032Y-78911900D01*
X208523025Y-78906555D01*
X208555321Y-78874259D01*
X208568651Y-78864281D01*
X208574472Y-78848674D01*
X208582456Y-78834053D01*
X208582048Y-78828362D01*
X208584044Y-78823014D01*
X208580501Y-78806730D01*
X208579314Y-78790122D01*
X208575895Y-78785555D01*
X208574682Y-78779977D01*
X208562898Y-78768193D01*
X208552920Y-78754864D01*
X208547575Y-78752870D01*
X208525026Y-78730321D01*
X208524215Y-78727559D01*
X208513664Y-78718416D01*
X208505301Y-78707245D01*
X208497346Y-78704278D01*
X208490929Y-78698717D01*
X208482526Y-78697508D01*
X208475073Y-78693439D01*
X208469380Y-78693846D01*
X208464034Y-78691852D01*
X208455736Y-78693657D01*
X208447334Y-78692449D01*
X208439610Y-78695976D01*
X208431142Y-78696582D01*
X208426575Y-78700000D01*
X208420997Y-78701214D01*
X208414992Y-78707218D01*
X208407270Y-78710745D01*
X208402679Y-78717888D01*
X208395883Y-78722976D01*
X208393889Y-78728321D01*
X208361595Y-78760615D01*
X208348264Y-78770595D01*
X208342442Y-78786202D01*
X208334459Y-78800823D01*
X208334866Y-78806515D01*
X208332872Y-78811862D01*
X206871429Y-78811862D01*
X206871429Y-78157143D01*
X210067857Y-78157143D01*
X210067857Y-80267857D01*
G37*
%TO.C,U1*%
X209265853Y-85550870D02*
X209265853Y-86360393D01*
X209265853Y-86360393D02*
X209218234Y-86455631D01*
X209218234Y-86455631D02*
X209170615Y-86503251D01*
X209170615Y-86503251D02*
X209075377Y-86550870D01*
X209075377Y-86550870D02*
X208884901Y-86550870D01*
X208884901Y-86550870D02*
X208789663Y-86503251D01*
X208789663Y-86503251D02*
X208742044Y-86455631D01*
X208742044Y-86455631D02*
X208694425Y-86360393D01*
X208694425Y-86360393D02*
X208694425Y-85550870D01*
X207694425Y-86550870D02*
X208265853Y-86550870D01*
X207980139Y-86550870D02*
X207980139Y-85550870D01*
X207980139Y-85550870D02*
X208075377Y-85693727D01*
X208075377Y-85693727D02*
X208170615Y-85788965D01*
X208170615Y-85788965D02*
X208265853Y-85836584D01*
%TO.C,J7*%
X83533333Y-77754819D02*
X83533333Y-78469104D01*
X83533333Y-78469104D02*
X83580952Y-78611961D01*
X83580952Y-78611961D02*
X83676190Y-78707200D01*
X83676190Y-78707200D02*
X83819047Y-78754819D01*
X83819047Y-78754819D02*
X83914285Y-78754819D01*
X83152380Y-77754819D02*
X82485714Y-77754819D01*
X82485714Y-77754819D02*
X82914285Y-78754819D01*
%TO.C,J1*%
X132203333Y-83479819D02*
X132203333Y-84194104D01*
X132203333Y-84194104D02*
X132250952Y-84336961D01*
X132250952Y-84336961D02*
X132346190Y-84432200D01*
X132346190Y-84432200D02*
X132489047Y-84479819D01*
X132489047Y-84479819D02*
X132584285Y-84479819D01*
X131203333Y-84479819D02*
X131774761Y-84479819D01*
X131489047Y-84479819D02*
X131489047Y-83479819D01*
X131489047Y-83479819D02*
X131584285Y-83622676D01*
X131584285Y-83622676D02*
X131679523Y-83717914D01*
X131679523Y-83717914D02*
X131774761Y-83765533D01*
D11*
%TO.C,U1*%
X213787149Y-86096051D02*
G75*
G03*
X213787149Y-86096051I-5283200J0D01*
G01*
D12*
%TO.C,J7*%
X82000000Y-84450000D02*
X87750000Y-84450000D01*
X87750000Y-84450000D02*
X87750000Y-77050000D01*
X87750000Y-77050000D02*
X82000000Y-77050000D01*
X82000000Y-77050000D02*
X82000000Y-84450000D01*
D13*
X85500000Y-85190000D02*
G75*
G03*
X85500000Y-85190000I-100000J0D01*
G01*
D14*
%TO.C,J1*%
X148670000Y-82695000D02*
X148670000Y-85355000D01*
X135910000Y-82695000D02*
X148670000Y-82695000D01*
X133310000Y-85355000D02*
X134640000Y-85355000D01*
X135910000Y-85355000D02*
X148670000Y-85355000D01*
X135910000Y-82695000D02*
X135910000Y-85355000D01*
X133310000Y-84025000D02*
X133310000Y-85355000D01*
%TD*%
M02*
