M48
; DRILL file {KiCad 7.0.5} date Mon May 20 19:12:31 2024
; FORMAT={-:-/ absolute / metric / decimal}
; #@! TF.CreationDate,2024-05-20T19:12:31+03:00
; #@! TF.GenerationSoftware,Kicad,Pcbnew,7.0.5
; #@! TF.FileFunction,MixedPlating,1,2
FMAT,2
METRIC
; #@! TA.AperFunction,Plated,PTH,ViaDrill
T1C0.400
; #@! TA.AperFunction,Plated,PTH,ComponentDrill
T2C0.500
; #@! TA.AperFunction,Plated,PTH,ComponentDrill
T3C0.550
; #@! TA.AperFunction,Plated,PTH,ComponentDrill
T4C0.737
; #@! TA.AperFunction,Plated,PTH,ComponentDrill
T5C0.800
; #@! TA.AperFunction,Plated,PTH,ComponentDrill
T6C1.000
; #@! TA.AperFunction,Plated,PTH,ComponentDrill
T7C1.050
; #@! TA.AperFunction,Plated,PTH,ComponentDrill
T8C1.100
; #@! TA.AperFunction,NonPlated,NPTH,ComponentDrill
T9C2.200
%
G90
G05
T1
X61.0Y-84.7
X61.0Y-87.1
X62.1Y-90.2
X64.4Y-85.8
X64.4Y-88.7
X65.3Y-87.2
X69.0Y-86.5
X70.4Y-91.4
X70.9Y-86.5
X71.2Y-94.9
X73.7Y-87.7
X76.4Y-89.8
X77.2Y-80.6
X77.2Y-83.2
X78.6Y-84.6
X79.5Y-89.3
X81.8Y-92.5
X86.1Y-94.7
X86.8Y-88.9
X89.0Y-85.9
X89.6Y-81.9
X89.8Y-78.8
X90.4Y-75.7
X94.5Y-86.8
X95.1Y-83.7
X95.5Y-81.8
X107.0Y-84.7
X107.3Y-80.1
X108.3Y-87.2
X109.7Y-94.1
X110.8Y-81.0
X110.8Y-91.0
X112.5Y-93.7
X114.7Y-77.5
X115.7Y-84.3
X120.4Y-84.4
X122.0Y-87.9
X122.3Y-81.4
X122.6Y-85.5
X122.9Y-87.1
X123.4Y-95.0
X123.5Y-82.5
X123.5Y-83.5
X124.1Y-86.0
X124.5Y-78.4
X125.3Y-91.2
X126.4Y-94.7
X127.0Y-88.4
X127.9Y-87.5
X128.9Y-92.4
X129.1Y-89.7
X129.4Y-84.4
X129.9Y-94.0
X130.8Y-83.4
X131.0Y-89.0
X131.5Y-78.5
X131.7Y-81.2
X132.2Y-85.4
X132.207Y-79.207
X133.0Y-89.6
X133.2Y-86.6
X133.4Y-81.4
X134.9Y-76.8
X137.9Y-76.6
X140.7Y-76.7
X144.5Y-76.6
X151.9Y-94.4
X160.9Y-76.1
X161.4Y-79.9
X161.4Y-82.7
X161.4Y-86.2
X161.4Y-94.6
X161.5Y-90.3
T4
X206.708Y-84.3
X206.708Y-87.892
X210.3Y-84.3
X210.3Y-87.892
T5
X90.5Y-94.4
X92.5Y-94.4
X94.5Y-94.4
T6
X64.3Y-92.9
X88.5Y-94.4
X92.4Y-87.4
X93.2Y-78.7
X96.5Y-94.4
X134.64Y-84.025
X137.18Y-84.025
X139.72Y-84.025
X139.825Y-88.975
X139.825Y-91.515
X139.825Y-94.055
X142.26Y-84.025
X142.365Y-88.975
X142.365Y-91.515
X142.365Y-94.055
X144.8Y-84.025
X147.34Y-84.025
X166.0Y-83.46
X166.0Y-86.0
X166.0Y-88.54
X166.0Y-91.08
T7
X85.4Y-79.5
X85.4Y-82.0
T8
X153.25Y-82.55
X153.25Y-89.05
X157.75Y-82.55
X157.75Y-89.05
T9
X59.7Y-77.5
X59.8Y-94.2
X187.1Y-77.5
X187.1Y-94.2
T2
G00X60.3Y-82.3
M15
G01X59.65Y-82.3
M16
G05
G00X60.3Y-89.3
M15
G01X59.65Y-89.3
M16
G05
T3
G00X62.675Y-83.15
M15
G01X62.675Y-83.45
M16
G05
G00X62.675Y-88.15
M15
G01X62.675Y-88.45
M16
G05
T0
M30
