%TF.GenerationSoftware,KiCad,Pcbnew,7.0.5*%
%TF.CreationDate,2024-05-20T19:12:28+03:00*%
%TF.ProjectId,Tempuino,54656d70-7569-46e6-9f2e-6b696361645f,rev?*%
%TF.SameCoordinates,Original*%
%TF.FileFunction,Drillmap*%
%TF.FilePolarity,Positive*%
%FSLAX45Y45*%
G04 Gerber Fmt 4.5, Leading zero omitted, Abs format (unit mm)*
G04 Created by KiCad (PCBNEW 7.0.5) date 2024-05-20 19:12:28*
%MOMM*%
%LPD*%
G01*
G04 APERTURE LIST*
%ADD10C,0.100000*%
%ADD11C,0.200000*%
%ADD12C,0.040000*%
%ADD13C,0.050000*%
%ADD14C,0.055000*%
%ADD15C,0.073660*%
%ADD16C,0.080000*%
%ADD17C,0.105000*%
%ADD18C,0.110000*%
%ADD19C,0.220000*%
G04 APERTURE END LIST*
D10*
X21250000Y-9680000D02*
G75*
G03*
X21450000Y-9480000I0J200000D01*
G01*
X21450000Y-7690000D02*
G75*
G03*
X21250000Y-7490000I-200000J0D01*
G01*
X5710000Y-9490000D02*
G75*
G03*
X5910000Y-9690000I200000J0D01*
G01*
X5910000Y-7490000D02*
G75*
G03*
X5710000Y-7690000I0J-200000D01*
G01*
X21250000Y-7490000D02*
X5910000Y-7490000D01*
X21450000Y-9480000D02*
X21450000Y-7690000D01*
X5910000Y-9690000D02*
X21250000Y-9680000D01*
X5710000Y-7690000D02*
X5710000Y-9490000D01*
D11*
D12*
X6080000Y-8450000D02*
X6120000Y-8490000D01*
X6120000Y-8450000D02*
X6080000Y-8490000D01*
X6080000Y-8690000D02*
X6120000Y-8730000D01*
X6120000Y-8690000D02*
X6080000Y-8730000D01*
X6190000Y-9000000D02*
X6230000Y-9040000D01*
X6230000Y-9000000D02*
X6190000Y-9040000D01*
X6420000Y-8560000D02*
X6460000Y-8600000D01*
X6460000Y-8560000D02*
X6420000Y-8600000D01*
X6420000Y-8850000D02*
X6460000Y-8890000D01*
X6460000Y-8850000D02*
X6420000Y-8890000D01*
X6510000Y-8700000D02*
X6550000Y-8740000D01*
X6550000Y-8700000D02*
X6510000Y-8740000D01*
X6880000Y-8630000D02*
X6920000Y-8670000D01*
X6920000Y-8630000D02*
X6880000Y-8670000D01*
X7020000Y-9120000D02*
X7060000Y-9160000D01*
X7060000Y-9120000D02*
X7020000Y-9160000D01*
X7070000Y-8630000D02*
X7110000Y-8670000D01*
X7110000Y-8630000D02*
X7070000Y-8670000D01*
X7100000Y-9470000D02*
X7140000Y-9510000D01*
X7140000Y-9470000D02*
X7100000Y-9510000D01*
X7350000Y-8750000D02*
X7390000Y-8790000D01*
X7390000Y-8750000D02*
X7350000Y-8790000D01*
X7620000Y-8960000D02*
X7660000Y-9000000D01*
X7660000Y-8960000D02*
X7620000Y-9000000D01*
X7700000Y-8040000D02*
X7740000Y-8080000D01*
X7740000Y-8040000D02*
X7700000Y-8080000D01*
X7700000Y-8300000D02*
X7740000Y-8340000D01*
X7740000Y-8300000D02*
X7700000Y-8340000D01*
X7840000Y-8440000D02*
X7880000Y-8480000D01*
X7880000Y-8440000D02*
X7840000Y-8480000D01*
X7930000Y-8910000D02*
X7970000Y-8950000D01*
X7970000Y-8910000D02*
X7930000Y-8950000D01*
X8160000Y-9230000D02*
X8200000Y-9270000D01*
X8200000Y-9230000D02*
X8160000Y-9270000D01*
X8590000Y-9450000D02*
X8630000Y-9490000D01*
X8630000Y-9450000D02*
X8590000Y-9490000D01*
X8660000Y-8870000D02*
X8700000Y-8910000D01*
X8700000Y-8870000D02*
X8660000Y-8910000D01*
X8880000Y-8570000D02*
X8920000Y-8610000D01*
X8920000Y-8570000D02*
X8880000Y-8610000D01*
X8940000Y-8170000D02*
X8980000Y-8210000D01*
X8980000Y-8170000D02*
X8940000Y-8210000D01*
X8960000Y-7860000D02*
X9000000Y-7900000D01*
X9000000Y-7860000D02*
X8960000Y-7900000D01*
X9020000Y-7550000D02*
X9060000Y-7590000D01*
X9060000Y-7550000D02*
X9020000Y-7590000D01*
X9430000Y-8660000D02*
X9470000Y-8700000D01*
X9470000Y-8660000D02*
X9430000Y-8700000D01*
X9490000Y-8350000D02*
X9530000Y-8390000D01*
X9530000Y-8350000D02*
X9490000Y-8390000D01*
X9530000Y-8160000D02*
X9570000Y-8200000D01*
X9570000Y-8160000D02*
X9530000Y-8200000D01*
X10680000Y-8450000D02*
X10720000Y-8490000D01*
X10720000Y-8450000D02*
X10680000Y-8490000D01*
X10710000Y-7990000D02*
X10750000Y-8030000D01*
X10750000Y-7990000D02*
X10710000Y-8030000D01*
X10810000Y-8700000D02*
X10850000Y-8740000D01*
X10850000Y-8700000D02*
X10810000Y-8740000D01*
X10950000Y-9390000D02*
X10990000Y-9430000D01*
X10990000Y-9390000D02*
X10950000Y-9430000D01*
X11060000Y-8080000D02*
X11100000Y-8120000D01*
X11100000Y-8080000D02*
X11060000Y-8120000D01*
X11060000Y-9080000D02*
X11100000Y-9120000D01*
X11100000Y-9080000D02*
X11060000Y-9120000D01*
X11230000Y-9350000D02*
X11270000Y-9390000D01*
X11270000Y-9350000D02*
X11230000Y-9390000D01*
X11450000Y-7730000D02*
X11490000Y-7770000D01*
X11490000Y-7730000D02*
X11450000Y-7770000D01*
X11550000Y-8410000D02*
X11590000Y-8450000D01*
X11590000Y-8410000D02*
X11550000Y-8450000D01*
X12020000Y-8420000D02*
X12060000Y-8460000D01*
X12060000Y-8420000D02*
X12020000Y-8460000D01*
X12180000Y-8770000D02*
X12220000Y-8810000D01*
X12220000Y-8770000D02*
X12180000Y-8810000D01*
X12210000Y-8120000D02*
X12250000Y-8160000D01*
X12250000Y-8120000D02*
X12210000Y-8160000D01*
X12240000Y-8530000D02*
X12280000Y-8570000D01*
X12280000Y-8530000D02*
X12240000Y-8570000D01*
X12270000Y-8690000D02*
X12310000Y-8730000D01*
X12310000Y-8690000D02*
X12270000Y-8730000D01*
X12320000Y-9480000D02*
X12360000Y-9520000D01*
X12360000Y-9480000D02*
X12320000Y-9520000D01*
X12330000Y-8230000D02*
X12370000Y-8270000D01*
X12370000Y-8230000D02*
X12330000Y-8270000D01*
X12330000Y-8329950D02*
X12370000Y-8369950D01*
X12370000Y-8329950D02*
X12330000Y-8369950D01*
X12390000Y-8580000D02*
X12430000Y-8620000D01*
X12430000Y-8580000D02*
X12390000Y-8620000D01*
X12430000Y-7820000D02*
X12470000Y-7860000D01*
X12470000Y-7820000D02*
X12430000Y-7860000D01*
X12510000Y-9100000D02*
X12550000Y-9140000D01*
X12550000Y-9100000D02*
X12510000Y-9140000D01*
X12620000Y-9450000D02*
X12660000Y-9490000D01*
X12660000Y-9450000D02*
X12620000Y-9490000D01*
X12680000Y-8820000D02*
X12720000Y-8860000D01*
X12720000Y-8820000D02*
X12680000Y-8860000D01*
X12770000Y-8730000D02*
X12810000Y-8770000D01*
X12810000Y-8730000D02*
X12770000Y-8770000D01*
X12870000Y-9220000D02*
X12910000Y-9260000D01*
X12910000Y-9220000D02*
X12870000Y-9260000D01*
X12890000Y-8950000D02*
X12930000Y-8990000D01*
X12930000Y-8950000D02*
X12890000Y-8990000D01*
X12920000Y-8420000D02*
X12960000Y-8460000D01*
X12960000Y-8420000D02*
X12920000Y-8460000D01*
X12970000Y-9380000D02*
X13010000Y-9420000D01*
X13010000Y-9380000D02*
X12970000Y-9420000D01*
X13060000Y-8320000D02*
X13100000Y-8360000D01*
X13100000Y-8320000D02*
X13060000Y-8360000D01*
X13080000Y-8880000D02*
X13120000Y-8920000D01*
X13120000Y-8880000D02*
X13080000Y-8920000D01*
X13130000Y-7830000D02*
X13170000Y-7870000D01*
X13170000Y-7830000D02*
X13130000Y-7870000D01*
X13150000Y-8100000D02*
X13190000Y-8140000D01*
X13190000Y-8100000D02*
X13150000Y-8140000D01*
X13200000Y-8520000D02*
X13240000Y-8560000D01*
X13240000Y-8520000D02*
X13200000Y-8560000D01*
X13200675Y-7900675D02*
X13240675Y-7940675D01*
X13240675Y-7900675D02*
X13200675Y-7940675D01*
X13280000Y-8940000D02*
X13320000Y-8980000D01*
X13320000Y-8940000D02*
X13280000Y-8980000D01*
X13300000Y-8640000D02*
X13340000Y-8680000D01*
X13340000Y-8640000D02*
X13300000Y-8680000D01*
X13320000Y-8120000D02*
X13360000Y-8160000D01*
X13360000Y-8120000D02*
X13320000Y-8160000D01*
X13470000Y-7660000D02*
X13510000Y-7700000D01*
X13510000Y-7660000D02*
X13470000Y-7700000D01*
X13770000Y-7640000D02*
X13810000Y-7680000D01*
X13810000Y-7640000D02*
X13770000Y-7680000D01*
X14050000Y-7650000D02*
X14090000Y-7690000D01*
X14090000Y-7650000D02*
X14050000Y-7690000D01*
X14430000Y-7640000D02*
X14470000Y-7680000D01*
X14470000Y-7640000D02*
X14430000Y-7680000D01*
X15170000Y-9420000D02*
X15210000Y-9460000D01*
X15210000Y-9420000D02*
X15170000Y-9460000D01*
X16070000Y-7590000D02*
X16110000Y-7630000D01*
X16110000Y-7590000D02*
X16070000Y-7630000D01*
X16120000Y-7970000D02*
X16160000Y-8010000D01*
X16160000Y-7970000D02*
X16120000Y-8010000D01*
X16120000Y-8250000D02*
X16160000Y-8290000D01*
X16160000Y-8250000D02*
X16120000Y-8290000D01*
X16120000Y-8600000D02*
X16160000Y-8640000D01*
X16160000Y-8600000D02*
X16120000Y-8640000D01*
X16120000Y-9440000D02*
X16160000Y-9480000D01*
X16160000Y-9440000D02*
X16120000Y-9480000D01*
X16130000Y-9010000D02*
X16170000Y-9050000D01*
X16170000Y-9010000D02*
X16130000Y-9050000D01*
D13*
X6022500Y-8230000D02*
G75*
G03*
X6022500Y-8230000I-25000J0D01*
G01*
D11*
X6030000Y-8205000D02*
X5965000Y-8205000D01*
X5965000Y-8205000D02*
G75*
G03*
X5965000Y-8255000I0J-25000D01*
G01*
X5965000Y-8255000D02*
X6030000Y-8255000D01*
X6030000Y-8255000D02*
G75*
G03*
X6030000Y-8205000I0J25000D01*
G01*
D13*
X6022500Y-8930000D02*
G75*
G03*
X6022500Y-8930000I-25000J0D01*
G01*
D11*
X6030000Y-8905000D02*
X5965000Y-8905000D01*
X5965000Y-8905000D02*
G75*
G03*
X5965000Y-8955000I0J-25000D01*
G01*
X5965000Y-8955000D02*
X6030000Y-8955000D01*
X6030000Y-8955000D02*
G75*
G03*
X6030000Y-8905000I0J25000D01*
G01*
D14*
X6267500Y-8302500D02*
X6267500Y-8357500D01*
X6240000Y-8330000D02*
X6295000Y-8330000D01*
D11*
X6240000Y-8315000D02*
X6240000Y-8345000D01*
X6240000Y-8345000D02*
G75*
G03*
X6295000Y-8345000I27500J0D01*
G01*
X6295000Y-8345000D02*
X6295000Y-8315000D01*
X6295000Y-8315000D02*
G75*
G03*
X6240000Y-8315000I-27500J0D01*
G01*
D14*
X6267500Y-8802500D02*
X6267500Y-8857500D01*
X6240000Y-8830000D02*
X6295000Y-8830000D01*
D11*
X6240000Y-8815000D02*
X6240000Y-8845000D01*
X6240000Y-8845000D02*
G75*
G03*
X6295000Y-8845000I27500J0D01*
G01*
X6295000Y-8845000D02*
X6295000Y-8815000D01*
X6295000Y-8815000D02*
G75*
G03*
X6240000Y-8815000I-27500J0D01*
G01*
D15*
X20696833Y-8456043D02*
X20696833Y-8403957D01*
X20644747Y-8403957D01*
X20644747Y-8456043D01*
X20696833Y-8456043D01*
X20696833Y-8815253D02*
X20696833Y-8763167D01*
X20644747Y-8763167D01*
X20644747Y-8815253D01*
X20696833Y-8815253D01*
X21056043Y-8456043D02*
X21056043Y-8403957D01*
X21003957Y-8403957D01*
X21003957Y-8456043D01*
X21056043Y-8456043D01*
X21056043Y-8815253D02*
X21056043Y-8763167D01*
X21003957Y-8763167D01*
X21003957Y-8815253D01*
X21056043Y-8815253D01*
D16*
X9050000Y-9480000D02*
X9090000Y-9440000D01*
X9050000Y-9400000D01*
X9010000Y-9440000D01*
X9050000Y-9480000D01*
X9250000Y-9480000D02*
X9290000Y-9440000D01*
X9250000Y-9400000D01*
X9210000Y-9440000D01*
X9250000Y-9480000D01*
X9450000Y-9480000D02*
X9490000Y-9440000D01*
X9450000Y-9400000D01*
X9410000Y-9440000D01*
X9450000Y-9480000D01*
D10*
X6380000Y-9240000D02*
X6480000Y-9340000D01*
X6480000Y-9240000D02*
X6380000Y-9340000D01*
X6480000Y-9290000D02*
G75*
G03*
X6480000Y-9290000I-50000J0D01*
G01*
X8800000Y-9390000D02*
X8900000Y-9490000D01*
X8900000Y-9390000D02*
X8800000Y-9490000D01*
X8900000Y-9440000D02*
G75*
G03*
X8900000Y-9440000I-50000J0D01*
G01*
X9190000Y-8690000D02*
X9290000Y-8790000D01*
X9290000Y-8690000D02*
X9190000Y-8790000D01*
X9290000Y-8740000D02*
G75*
G03*
X9290000Y-8740000I-50000J0D01*
G01*
X9270000Y-7820000D02*
X9370000Y-7920000D01*
X9370000Y-7820000D02*
X9270000Y-7920000D01*
X9370000Y-7870000D02*
G75*
G03*
X9370000Y-7870000I-50000J0D01*
G01*
X9600000Y-9390000D02*
X9700000Y-9490000D01*
X9700000Y-9390000D02*
X9600000Y-9490000D01*
X9700000Y-9440000D02*
G75*
G03*
X9700000Y-9440000I-50000J0D01*
G01*
X13414000Y-8352500D02*
X13514000Y-8452500D01*
X13514000Y-8352500D02*
X13414000Y-8452500D01*
X13514000Y-8402500D02*
G75*
G03*
X13514000Y-8402500I-50000J0D01*
G01*
X13668000Y-8352500D02*
X13768000Y-8452500D01*
X13768000Y-8352500D02*
X13668000Y-8452500D01*
X13768000Y-8402500D02*
G75*
G03*
X13768000Y-8402500I-50000J0D01*
G01*
X13922000Y-8352500D02*
X14022000Y-8452500D01*
X14022000Y-8352500D02*
X13922000Y-8452500D01*
X14022000Y-8402500D02*
G75*
G03*
X14022000Y-8402500I-50000J0D01*
G01*
X13932500Y-8847500D02*
X14032500Y-8947500D01*
X14032500Y-8847500D02*
X13932500Y-8947500D01*
X14032500Y-8897500D02*
G75*
G03*
X14032500Y-8897500I-50000J0D01*
G01*
X13932500Y-9101500D02*
X14032500Y-9201500D01*
X14032500Y-9101500D02*
X13932500Y-9201500D01*
X14032500Y-9151500D02*
G75*
G03*
X14032500Y-9151500I-50000J0D01*
G01*
X13932500Y-9355500D02*
X14032500Y-9455500D01*
X14032500Y-9355500D02*
X13932500Y-9455500D01*
X14032500Y-9405500D02*
G75*
G03*
X14032500Y-9405500I-50000J0D01*
G01*
X14176000Y-8352500D02*
X14276000Y-8452500D01*
X14276000Y-8352500D02*
X14176000Y-8452500D01*
X14276000Y-8402500D02*
G75*
G03*
X14276000Y-8402500I-50000J0D01*
G01*
X14186500Y-8847500D02*
X14286500Y-8947500D01*
X14286500Y-8847500D02*
X14186500Y-8947500D01*
X14286500Y-8897500D02*
G75*
G03*
X14286500Y-8897500I-50000J0D01*
G01*
X14186500Y-9101500D02*
X14286500Y-9201500D01*
X14286500Y-9101500D02*
X14186500Y-9201500D01*
X14286500Y-9151500D02*
G75*
G03*
X14286500Y-9151500I-50000J0D01*
G01*
X14186500Y-9355500D02*
X14286500Y-9455500D01*
X14286500Y-9355500D02*
X14186500Y-9455500D01*
X14286500Y-9405500D02*
G75*
G03*
X14286500Y-9405500I-50000J0D01*
G01*
X14430000Y-8352500D02*
X14530000Y-8452500D01*
X14530000Y-8352500D02*
X14430000Y-8452500D01*
X14530000Y-8402500D02*
G75*
G03*
X14530000Y-8402500I-50000J0D01*
G01*
X14684000Y-8352500D02*
X14784000Y-8452500D01*
X14784000Y-8352500D02*
X14684000Y-8452500D01*
X14784000Y-8402500D02*
G75*
G03*
X14784000Y-8402500I-50000J0D01*
G01*
X16550000Y-8296000D02*
X16650000Y-8396000D01*
X16650000Y-8296000D02*
X16550000Y-8396000D01*
X16650000Y-8346000D02*
G75*
G03*
X16650000Y-8346000I-50000J0D01*
G01*
X16550000Y-8550000D02*
X16650000Y-8650000D01*
X16650000Y-8550000D02*
X16550000Y-8650000D01*
X16650000Y-8600000D02*
G75*
G03*
X16650000Y-8600000I-50000J0D01*
G01*
X16550000Y-8804000D02*
X16650000Y-8904000D01*
X16650000Y-8804000D02*
X16550000Y-8904000D01*
X16650000Y-8854000D02*
G75*
G03*
X16650000Y-8854000I-50000J0D01*
G01*
X16550000Y-9058000D02*
X16650000Y-9158000D01*
X16650000Y-9058000D02*
X16550000Y-9158000D01*
X16650000Y-9108000D02*
G75*
G03*
X16650000Y-9108000I-50000J0D01*
G01*
D17*
X8487500Y-7897500D02*
X8592500Y-8002500D01*
X8592500Y-7897500D02*
X8487500Y-8002500D01*
X8540000Y-7897500D02*
X8540000Y-8002500D01*
X8487500Y-7950000D02*
X8592500Y-7950000D01*
X8487500Y-8147500D02*
X8592500Y-8252500D01*
X8592500Y-8147500D02*
X8487500Y-8252500D01*
X8540000Y-8147500D02*
X8540000Y-8252500D01*
X8487500Y-8200000D02*
X8592500Y-8200000D01*
D18*
X15270000Y-8200000D02*
X15380000Y-8310000D01*
X15380000Y-8200000D02*
X15270000Y-8310000D01*
X15363891Y-8293891D02*
X15363891Y-8216109D01*
X15286109Y-8216109D01*
X15286109Y-8293891D01*
X15363891Y-8293891D01*
X15270000Y-8850000D02*
X15380000Y-8960000D01*
X15380000Y-8850000D02*
X15270000Y-8960000D01*
X15363891Y-8943891D02*
X15363891Y-8866109D01*
X15286109Y-8866109D01*
X15286109Y-8943891D01*
X15363891Y-8943891D01*
X15720000Y-8200000D02*
X15830000Y-8310000D01*
X15830000Y-8200000D02*
X15720000Y-8310000D01*
X15813891Y-8293891D02*
X15813891Y-8216109D01*
X15736109Y-8216109D01*
X15736109Y-8293891D01*
X15813891Y-8293891D01*
X15720000Y-8850000D02*
X15830000Y-8960000D01*
X15830000Y-8850000D02*
X15720000Y-8960000D01*
X15813891Y-8943891D02*
X15813891Y-8866109D01*
X15736109Y-8866109D01*
X15736109Y-8943891D01*
X15813891Y-8943891D01*
D19*
X5860000Y-7640000D02*
X6080000Y-7860000D01*
X6080000Y-7640000D02*
X5860000Y-7860000D01*
X5970000Y-7860000D02*
X6080000Y-7750000D01*
X5970000Y-7640000D01*
X5860000Y-7750000D01*
X5970000Y-7860000D01*
X5870000Y-9310000D02*
X6090000Y-9530000D01*
X6090000Y-9310000D02*
X5870000Y-9530000D01*
X5980000Y-9530000D02*
X6090000Y-9420000D01*
X5980000Y-9310000D01*
X5870000Y-9420000D01*
X5980000Y-9530000D01*
X18600000Y-7640000D02*
X18820000Y-7860000D01*
X18820000Y-7640000D02*
X18600000Y-7860000D01*
X18710000Y-7860000D02*
X18820000Y-7750000D01*
X18710000Y-7640000D01*
X18600000Y-7750000D01*
X18710000Y-7860000D01*
X18600000Y-9310000D02*
X18820000Y-9530000D01*
X18820000Y-9310000D02*
X18600000Y-9530000D01*
X18710000Y-9530000D02*
X18820000Y-9420000D01*
X18710000Y-9310000D01*
X18600000Y-9420000D01*
X18710000Y-9530000D01*
D11*
X5965777Y-10006484D02*
X5965777Y-9806484D01*
X5965777Y-9806484D02*
X6013396Y-9806484D01*
X6013396Y-9806484D02*
X6041967Y-9816008D01*
X6041967Y-9816008D02*
X6061015Y-9835055D01*
X6061015Y-9835055D02*
X6070539Y-9854103D01*
X6070539Y-9854103D02*
X6080062Y-9892198D01*
X6080062Y-9892198D02*
X6080062Y-9920770D01*
X6080062Y-9920770D02*
X6070539Y-9958865D01*
X6070539Y-9958865D02*
X6061015Y-9977912D01*
X6061015Y-9977912D02*
X6041967Y-9996960D01*
X6041967Y-9996960D02*
X6013396Y-10006484D01*
X6013396Y-10006484D02*
X5965777Y-10006484D01*
X6165777Y-10006484D02*
X6165777Y-9873150D01*
X6165777Y-9911246D02*
X6175301Y-9892198D01*
X6175301Y-9892198D02*
X6184824Y-9882674D01*
X6184824Y-9882674D02*
X6203872Y-9873150D01*
X6203872Y-9873150D02*
X6222920Y-9873150D01*
X6289586Y-10006484D02*
X6289586Y-9873150D01*
X6289586Y-9806484D02*
X6280062Y-9816008D01*
X6280062Y-9816008D02*
X6289586Y-9825531D01*
X6289586Y-9825531D02*
X6299110Y-9816008D01*
X6299110Y-9816008D02*
X6289586Y-9806484D01*
X6289586Y-9806484D02*
X6289586Y-9825531D01*
X6413396Y-10006484D02*
X6394348Y-9996960D01*
X6394348Y-9996960D02*
X6384824Y-9977912D01*
X6384824Y-9977912D02*
X6384824Y-9806484D01*
X6518158Y-10006484D02*
X6499110Y-9996960D01*
X6499110Y-9996960D02*
X6489586Y-9977912D01*
X6489586Y-9977912D02*
X6489586Y-9806484D01*
X6746729Y-10006484D02*
X6746729Y-9806484D01*
X6746729Y-9806484D02*
X6813396Y-9949341D01*
X6813396Y-9949341D02*
X6880062Y-9806484D01*
X6880062Y-9806484D02*
X6880062Y-10006484D01*
X7061015Y-10006484D02*
X7061015Y-9901722D01*
X7061015Y-9901722D02*
X7051491Y-9882674D01*
X7051491Y-9882674D02*
X7032443Y-9873150D01*
X7032443Y-9873150D02*
X6994348Y-9873150D01*
X6994348Y-9873150D02*
X6975301Y-9882674D01*
X7061015Y-9996960D02*
X7041967Y-10006484D01*
X7041967Y-10006484D02*
X6994348Y-10006484D01*
X6994348Y-10006484D02*
X6975301Y-9996960D01*
X6975301Y-9996960D02*
X6965777Y-9977912D01*
X6965777Y-9977912D02*
X6965777Y-9958865D01*
X6965777Y-9958865D02*
X6975301Y-9939817D01*
X6975301Y-9939817D02*
X6994348Y-9930293D01*
X6994348Y-9930293D02*
X7041967Y-9930293D01*
X7041967Y-9930293D02*
X7061015Y-9920770D01*
X7156253Y-9873150D02*
X7156253Y-10073150D01*
X7156253Y-9882674D02*
X7175301Y-9873150D01*
X7175301Y-9873150D02*
X7213396Y-9873150D01*
X7213396Y-9873150D02*
X7232443Y-9882674D01*
X7232443Y-9882674D02*
X7241967Y-9892198D01*
X7241967Y-9892198D02*
X7251491Y-9911246D01*
X7251491Y-9911246D02*
X7251491Y-9968389D01*
X7251491Y-9968389D02*
X7241967Y-9987436D01*
X7241967Y-9987436D02*
X7232443Y-9996960D01*
X7232443Y-9996960D02*
X7213396Y-10006484D01*
X7213396Y-10006484D02*
X7175301Y-10006484D01*
X7175301Y-10006484D02*
X7156253Y-9996960D01*
X7337205Y-9987436D02*
X7346729Y-9996960D01*
X7346729Y-9996960D02*
X7337205Y-10006484D01*
X7337205Y-10006484D02*
X7327682Y-9996960D01*
X7327682Y-9996960D02*
X7337205Y-9987436D01*
X7337205Y-9987436D02*
X7337205Y-10006484D01*
X7337205Y-9882674D02*
X7346729Y-9892198D01*
X7346729Y-9892198D02*
X7337205Y-9901722D01*
X7337205Y-9901722D02*
X7327682Y-9892198D01*
X7327682Y-9892198D02*
X7337205Y-9882674D01*
X7337205Y-9882674D02*
X7337205Y-9901722D01*
D12*
X5665000Y-10315000D02*
X5705000Y-10355000D01*
X5705000Y-10315000D02*
X5665000Y-10355000D01*
D11*
X6003872Y-10226484D02*
X6022920Y-10226484D01*
X6022920Y-10226484D02*
X6041967Y-10236008D01*
X6041967Y-10236008D02*
X6051491Y-10245531D01*
X6051491Y-10245531D02*
X6061015Y-10264579D01*
X6061015Y-10264579D02*
X6070539Y-10302674D01*
X6070539Y-10302674D02*
X6070539Y-10350293D01*
X6070539Y-10350293D02*
X6061015Y-10388389D01*
X6061015Y-10388389D02*
X6051491Y-10407436D01*
X6051491Y-10407436D02*
X6041967Y-10416960D01*
X6041967Y-10416960D02*
X6022920Y-10426484D01*
X6022920Y-10426484D02*
X6003872Y-10426484D01*
X6003872Y-10426484D02*
X5984824Y-10416960D01*
X5984824Y-10416960D02*
X5975301Y-10407436D01*
X5975301Y-10407436D02*
X5965777Y-10388389D01*
X5965777Y-10388389D02*
X5956253Y-10350293D01*
X5956253Y-10350293D02*
X5956253Y-10302674D01*
X5956253Y-10302674D02*
X5965777Y-10264579D01*
X5965777Y-10264579D02*
X5975301Y-10245531D01*
X5975301Y-10245531D02*
X5984824Y-10236008D01*
X5984824Y-10236008D02*
X6003872Y-10226484D01*
X6156253Y-10407436D02*
X6165777Y-10416960D01*
X6165777Y-10416960D02*
X6156253Y-10426484D01*
X6156253Y-10426484D02*
X6146729Y-10416960D01*
X6146729Y-10416960D02*
X6156253Y-10407436D01*
X6156253Y-10407436D02*
X6156253Y-10426484D01*
X6337205Y-10293150D02*
X6337205Y-10426484D01*
X6289586Y-10216960D02*
X6241967Y-10359817D01*
X6241967Y-10359817D02*
X6365777Y-10359817D01*
X6480062Y-10226484D02*
X6499110Y-10226484D01*
X6499110Y-10226484D02*
X6518158Y-10236008D01*
X6518158Y-10236008D02*
X6527682Y-10245531D01*
X6527682Y-10245531D02*
X6537205Y-10264579D01*
X6537205Y-10264579D02*
X6546729Y-10302674D01*
X6546729Y-10302674D02*
X6546729Y-10350293D01*
X6546729Y-10350293D02*
X6537205Y-10388389D01*
X6537205Y-10388389D02*
X6527682Y-10407436D01*
X6527682Y-10407436D02*
X6518158Y-10416960D01*
X6518158Y-10416960D02*
X6499110Y-10426484D01*
X6499110Y-10426484D02*
X6480062Y-10426484D01*
X6480062Y-10426484D02*
X6461015Y-10416960D01*
X6461015Y-10416960D02*
X6451491Y-10407436D01*
X6451491Y-10407436D02*
X6441967Y-10388389D01*
X6441967Y-10388389D02*
X6432443Y-10350293D01*
X6432443Y-10350293D02*
X6432443Y-10302674D01*
X6432443Y-10302674D02*
X6441967Y-10264579D01*
X6441967Y-10264579D02*
X6451491Y-10245531D01*
X6451491Y-10245531D02*
X6461015Y-10236008D01*
X6461015Y-10236008D02*
X6480062Y-10226484D01*
X6670539Y-10226484D02*
X6689586Y-10226484D01*
X6689586Y-10226484D02*
X6708634Y-10236008D01*
X6708634Y-10236008D02*
X6718158Y-10245531D01*
X6718158Y-10245531D02*
X6727682Y-10264579D01*
X6727682Y-10264579D02*
X6737205Y-10302674D01*
X6737205Y-10302674D02*
X6737205Y-10350293D01*
X6737205Y-10350293D02*
X6727682Y-10388389D01*
X6727682Y-10388389D02*
X6718158Y-10407436D01*
X6718158Y-10407436D02*
X6708634Y-10416960D01*
X6708634Y-10416960D02*
X6689586Y-10426484D01*
X6689586Y-10426484D02*
X6670539Y-10426484D01*
X6670539Y-10426484D02*
X6651491Y-10416960D01*
X6651491Y-10416960D02*
X6641967Y-10407436D01*
X6641967Y-10407436D02*
X6632443Y-10388389D01*
X6632443Y-10388389D02*
X6622920Y-10350293D01*
X6622920Y-10350293D02*
X6622920Y-10302674D01*
X6622920Y-10302674D02*
X6632443Y-10264579D01*
X6632443Y-10264579D02*
X6641967Y-10245531D01*
X6641967Y-10245531D02*
X6651491Y-10236008D01*
X6651491Y-10236008D02*
X6670539Y-10226484D01*
X6822920Y-10426484D02*
X6822920Y-10293150D01*
X6822920Y-10312198D02*
X6832443Y-10302674D01*
X6832443Y-10302674D02*
X6851491Y-10293150D01*
X6851491Y-10293150D02*
X6880063Y-10293150D01*
X6880063Y-10293150D02*
X6899110Y-10302674D01*
X6899110Y-10302674D02*
X6908634Y-10321722D01*
X6908634Y-10321722D02*
X6908634Y-10426484D01*
X6908634Y-10321722D02*
X6918158Y-10302674D01*
X6918158Y-10302674D02*
X6937205Y-10293150D01*
X6937205Y-10293150D02*
X6965777Y-10293150D01*
X6965777Y-10293150D02*
X6984824Y-10302674D01*
X6984824Y-10302674D02*
X6994348Y-10321722D01*
X6994348Y-10321722D02*
X6994348Y-10426484D01*
X7089586Y-10426484D02*
X7089586Y-10293150D01*
X7089586Y-10312198D02*
X7099110Y-10302674D01*
X7099110Y-10302674D02*
X7118158Y-10293150D01*
X7118158Y-10293150D02*
X7146729Y-10293150D01*
X7146729Y-10293150D02*
X7165777Y-10302674D01*
X7165777Y-10302674D02*
X7175301Y-10321722D01*
X7175301Y-10321722D02*
X7175301Y-10426484D01*
X7175301Y-10321722D02*
X7184824Y-10302674D01*
X7184824Y-10302674D02*
X7203872Y-10293150D01*
X7203872Y-10293150D02*
X7232443Y-10293150D01*
X7232443Y-10293150D02*
X7251491Y-10302674D01*
X7251491Y-10302674D02*
X7261015Y-10321722D01*
X7261015Y-10321722D02*
X7261015Y-10426484D01*
X7651491Y-10216960D02*
X7480063Y-10474103D01*
X7908634Y-10226484D02*
X7927682Y-10226484D01*
X7927682Y-10226484D02*
X7946729Y-10236008D01*
X7946729Y-10236008D02*
X7956253Y-10245531D01*
X7956253Y-10245531D02*
X7965777Y-10264579D01*
X7965777Y-10264579D02*
X7975301Y-10302674D01*
X7975301Y-10302674D02*
X7975301Y-10350293D01*
X7975301Y-10350293D02*
X7965777Y-10388389D01*
X7965777Y-10388389D02*
X7956253Y-10407436D01*
X7956253Y-10407436D02*
X7946729Y-10416960D01*
X7946729Y-10416960D02*
X7927682Y-10426484D01*
X7927682Y-10426484D02*
X7908634Y-10426484D01*
X7908634Y-10426484D02*
X7889586Y-10416960D01*
X7889586Y-10416960D02*
X7880063Y-10407436D01*
X7880063Y-10407436D02*
X7870539Y-10388389D01*
X7870539Y-10388389D02*
X7861015Y-10350293D01*
X7861015Y-10350293D02*
X7861015Y-10302674D01*
X7861015Y-10302674D02*
X7870539Y-10264579D01*
X7870539Y-10264579D02*
X7880063Y-10245531D01*
X7880063Y-10245531D02*
X7889586Y-10236008D01*
X7889586Y-10236008D02*
X7908634Y-10226484D01*
X8061015Y-10407436D02*
X8070539Y-10416960D01*
X8070539Y-10416960D02*
X8061015Y-10426484D01*
X8061015Y-10426484D02*
X8051491Y-10416960D01*
X8051491Y-10416960D02*
X8061015Y-10407436D01*
X8061015Y-10407436D02*
X8061015Y-10426484D01*
X8194348Y-10226484D02*
X8213396Y-10226484D01*
X8213396Y-10226484D02*
X8232444Y-10236008D01*
X8232444Y-10236008D02*
X8241967Y-10245531D01*
X8241967Y-10245531D02*
X8251491Y-10264579D01*
X8251491Y-10264579D02*
X8261015Y-10302674D01*
X8261015Y-10302674D02*
X8261015Y-10350293D01*
X8261015Y-10350293D02*
X8251491Y-10388389D01*
X8251491Y-10388389D02*
X8241967Y-10407436D01*
X8241967Y-10407436D02*
X8232444Y-10416960D01*
X8232444Y-10416960D02*
X8213396Y-10426484D01*
X8213396Y-10426484D02*
X8194348Y-10426484D01*
X8194348Y-10426484D02*
X8175301Y-10416960D01*
X8175301Y-10416960D02*
X8165777Y-10407436D01*
X8165777Y-10407436D02*
X8156253Y-10388389D01*
X8156253Y-10388389D02*
X8146729Y-10350293D01*
X8146729Y-10350293D02*
X8146729Y-10302674D01*
X8146729Y-10302674D02*
X8156253Y-10264579D01*
X8156253Y-10264579D02*
X8165777Y-10245531D01*
X8165777Y-10245531D02*
X8175301Y-10236008D01*
X8175301Y-10236008D02*
X8194348Y-10226484D01*
X8451491Y-10426484D02*
X8337206Y-10426484D01*
X8394348Y-10426484D02*
X8394348Y-10226484D01*
X8394348Y-10226484D02*
X8375301Y-10255055D01*
X8375301Y-10255055D02*
X8356253Y-10274103D01*
X8356253Y-10274103D02*
X8337206Y-10283627D01*
X8632444Y-10226484D02*
X8537206Y-10226484D01*
X8537206Y-10226484D02*
X8527682Y-10321722D01*
X8527682Y-10321722D02*
X8537206Y-10312198D01*
X8537206Y-10312198D02*
X8556253Y-10302674D01*
X8556253Y-10302674D02*
X8603872Y-10302674D01*
X8603872Y-10302674D02*
X8622920Y-10312198D01*
X8622920Y-10312198D02*
X8632444Y-10321722D01*
X8632444Y-10321722D02*
X8641968Y-10340770D01*
X8641968Y-10340770D02*
X8641968Y-10388389D01*
X8641968Y-10388389D02*
X8632444Y-10407436D01*
X8632444Y-10407436D02*
X8622920Y-10416960D01*
X8622920Y-10416960D02*
X8603872Y-10426484D01*
X8603872Y-10426484D02*
X8556253Y-10426484D01*
X8556253Y-10426484D02*
X8537206Y-10416960D01*
X8537206Y-10416960D02*
X8527682Y-10407436D01*
X8708634Y-10226484D02*
X8841968Y-10226484D01*
X8841968Y-10226484D02*
X8756253Y-10426484D01*
X8908634Y-10226484D02*
X8908634Y-10264579D01*
X8984825Y-10226484D02*
X8984825Y-10264579D01*
X9280063Y-10502674D02*
X9270539Y-10493150D01*
X9270539Y-10493150D02*
X9251491Y-10464579D01*
X9251491Y-10464579D02*
X9241968Y-10445531D01*
X9241968Y-10445531D02*
X9232444Y-10416960D01*
X9232444Y-10416960D02*
X9222920Y-10369341D01*
X9222920Y-10369341D02*
X9222920Y-10331246D01*
X9222920Y-10331246D02*
X9232444Y-10283627D01*
X9232444Y-10283627D02*
X9241968Y-10255055D01*
X9241968Y-10255055D02*
X9251491Y-10236008D01*
X9251491Y-10236008D02*
X9270539Y-10207436D01*
X9270539Y-10207436D02*
X9280063Y-10197912D01*
X9337206Y-10226484D02*
X9470539Y-10226484D01*
X9470539Y-10226484D02*
X9384825Y-10426484D01*
X9527682Y-10226484D02*
X9651491Y-10226484D01*
X9651491Y-10226484D02*
X9584825Y-10302674D01*
X9584825Y-10302674D02*
X9613396Y-10302674D01*
X9613396Y-10302674D02*
X9632444Y-10312198D01*
X9632444Y-10312198D02*
X9641968Y-10321722D01*
X9641968Y-10321722D02*
X9651491Y-10340770D01*
X9651491Y-10340770D02*
X9651491Y-10388389D01*
X9651491Y-10388389D02*
X9641968Y-10407436D01*
X9641968Y-10407436D02*
X9632444Y-10416960D01*
X9632444Y-10416960D02*
X9613396Y-10426484D01*
X9613396Y-10426484D02*
X9556253Y-10426484D01*
X9556253Y-10426484D02*
X9537206Y-10416960D01*
X9537206Y-10416960D02*
X9527682Y-10407436D01*
X9889587Y-10426484D02*
X9889587Y-10226484D01*
X9975301Y-10426484D02*
X9975301Y-10321722D01*
X9975301Y-10321722D02*
X9965777Y-10302674D01*
X9965777Y-10302674D02*
X9946730Y-10293150D01*
X9946730Y-10293150D02*
X9918158Y-10293150D01*
X9918158Y-10293150D02*
X9899111Y-10302674D01*
X9899111Y-10302674D02*
X9889587Y-10312198D01*
X10099111Y-10426484D02*
X10080063Y-10416960D01*
X10080063Y-10416960D02*
X10070539Y-10407436D01*
X10070539Y-10407436D02*
X10061015Y-10388389D01*
X10061015Y-10388389D02*
X10061015Y-10331246D01*
X10061015Y-10331246D02*
X10070539Y-10312198D01*
X10070539Y-10312198D02*
X10080063Y-10302674D01*
X10080063Y-10302674D02*
X10099111Y-10293150D01*
X10099111Y-10293150D02*
X10127682Y-10293150D01*
X10127682Y-10293150D02*
X10146730Y-10302674D01*
X10146730Y-10302674D02*
X10156253Y-10312198D01*
X10156253Y-10312198D02*
X10165777Y-10331246D01*
X10165777Y-10331246D02*
X10165777Y-10388389D01*
X10165777Y-10388389D02*
X10156253Y-10407436D01*
X10156253Y-10407436D02*
X10146730Y-10416960D01*
X10146730Y-10416960D02*
X10127682Y-10426484D01*
X10127682Y-10426484D02*
X10099111Y-10426484D01*
X10280063Y-10426484D02*
X10261015Y-10416960D01*
X10261015Y-10416960D02*
X10251492Y-10397912D01*
X10251492Y-10397912D02*
X10251492Y-10226484D01*
X10432444Y-10416960D02*
X10413396Y-10426484D01*
X10413396Y-10426484D02*
X10375301Y-10426484D01*
X10375301Y-10426484D02*
X10356253Y-10416960D01*
X10356253Y-10416960D02*
X10346730Y-10397912D01*
X10346730Y-10397912D02*
X10346730Y-10321722D01*
X10346730Y-10321722D02*
X10356253Y-10302674D01*
X10356253Y-10302674D02*
X10375301Y-10293150D01*
X10375301Y-10293150D02*
X10413396Y-10293150D01*
X10413396Y-10293150D02*
X10432444Y-10302674D01*
X10432444Y-10302674D02*
X10441968Y-10321722D01*
X10441968Y-10321722D02*
X10441968Y-10340770D01*
X10441968Y-10340770D02*
X10346730Y-10359817D01*
X10518158Y-10416960D02*
X10537206Y-10426484D01*
X10537206Y-10426484D02*
X10575301Y-10426484D01*
X10575301Y-10426484D02*
X10594349Y-10416960D01*
X10594349Y-10416960D02*
X10603873Y-10397912D01*
X10603873Y-10397912D02*
X10603873Y-10388389D01*
X10603873Y-10388389D02*
X10594349Y-10369341D01*
X10594349Y-10369341D02*
X10575301Y-10359817D01*
X10575301Y-10359817D02*
X10546730Y-10359817D01*
X10546730Y-10359817D02*
X10527682Y-10350293D01*
X10527682Y-10350293D02*
X10518158Y-10331246D01*
X10518158Y-10331246D02*
X10518158Y-10321722D01*
X10518158Y-10321722D02*
X10527682Y-10302674D01*
X10527682Y-10302674D02*
X10546730Y-10293150D01*
X10546730Y-10293150D02*
X10575301Y-10293150D01*
X10575301Y-10293150D02*
X10594349Y-10302674D01*
X10670539Y-10502674D02*
X10680063Y-10493150D01*
X10680063Y-10493150D02*
X10699111Y-10464579D01*
X10699111Y-10464579D02*
X10708634Y-10445531D01*
X10708634Y-10445531D02*
X10718158Y-10416960D01*
X10718158Y-10416960D02*
X10727682Y-10369341D01*
X10727682Y-10369341D02*
X10727682Y-10331246D01*
X10727682Y-10331246D02*
X10718158Y-10283627D01*
X10718158Y-10283627D02*
X10708634Y-10255055D01*
X10708634Y-10255055D02*
X10699111Y-10236008D01*
X10699111Y-10236008D02*
X10680063Y-10207436D01*
X10680063Y-10207436D02*
X10670539Y-10197912D01*
D13*
X5705000Y-10599000D02*
G75*
G03*
X5705000Y-10599000I-25000J0D01*
G01*
D11*
X6003872Y-10490484D02*
X6022920Y-10490484D01*
X6022920Y-10490484D02*
X6041967Y-10500008D01*
X6041967Y-10500008D02*
X6051491Y-10509531D01*
X6051491Y-10509531D02*
X6061015Y-10528579D01*
X6061015Y-10528579D02*
X6070539Y-10566674D01*
X6070539Y-10566674D02*
X6070539Y-10614293D01*
X6070539Y-10614293D02*
X6061015Y-10652389D01*
X6061015Y-10652389D02*
X6051491Y-10671436D01*
X6051491Y-10671436D02*
X6041967Y-10680960D01*
X6041967Y-10680960D02*
X6022920Y-10690484D01*
X6022920Y-10690484D02*
X6003872Y-10690484D01*
X6003872Y-10690484D02*
X5984824Y-10680960D01*
X5984824Y-10680960D02*
X5975301Y-10671436D01*
X5975301Y-10671436D02*
X5965777Y-10652389D01*
X5965777Y-10652389D02*
X5956253Y-10614293D01*
X5956253Y-10614293D02*
X5956253Y-10566674D01*
X5956253Y-10566674D02*
X5965777Y-10528579D01*
X5965777Y-10528579D02*
X5975301Y-10509531D01*
X5975301Y-10509531D02*
X5984824Y-10500008D01*
X5984824Y-10500008D02*
X6003872Y-10490484D01*
X6156253Y-10671436D02*
X6165777Y-10680960D01*
X6165777Y-10680960D02*
X6156253Y-10690484D01*
X6156253Y-10690484D02*
X6146729Y-10680960D01*
X6146729Y-10680960D02*
X6156253Y-10671436D01*
X6156253Y-10671436D02*
X6156253Y-10690484D01*
X6346729Y-10490484D02*
X6251491Y-10490484D01*
X6251491Y-10490484D02*
X6241967Y-10585722D01*
X6241967Y-10585722D02*
X6251491Y-10576198D01*
X6251491Y-10576198D02*
X6270539Y-10566674D01*
X6270539Y-10566674D02*
X6318158Y-10566674D01*
X6318158Y-10566674D02*
X6337205Y-10576198D01*
X6337205Y-10576198D02*
X6346729Y-10585722D01*
X6346729Y-10585722D02*
X6356253Y-10604770D01*
X6356253Y-10604770D02*
X6356253Y-10652389D01*
X6356253Y-10652389D02*
X6346729Y-10671436D01*
X6346729Y-10671436D02*
X6337205Y-10680960D01*
X6337205Y-10680960D02*
X6318158Y-10690484D01*
X6318158Y-10690484D02*
X6270539Y-10690484D01*
X6270539Y-10690484D02*
X6251491Y-10680960D01*
X6251491Y-10680960D02*
X6241967Y-10671436D01*
X6480062Y-10490484D02*
X6499110Y-10490484D01*
X6499110Y-10490484D02*
X6518158Y-10500008D01*
X6518158Y-10500008D02*
X6527682Y-10509531D01*
X6527682Y-10509531D02*
X6537205Y-10528579D01*
X6537205Y-10528579D02*
X6546729Y-10566674D01*
X6546729Y-10566674D02*
X6546729Y-10614293D01*
X6546729Y-10614293D02*
X6537205Y-10652389D01*
X6537205Y-10652389D02*
X6527682Y-10671436D01*
X6527682Y-10671436D02*
X6518158Y-10680960D01*
X6518158Y-10680960D02*
X6499110Y-10690484D01*
X6499110Y-10690484D02*
X6480062Y-10690484D01*
X6480062Y-10690484D02*
X6461015Y-10680960D01*
X6461015Y-10680960D02*
X6451491Y-10671436D01*
X6451491Y-10671436D02*
X6441967Y-10652389D01*
X6441967Y-10652389D02*
X6432443Y-10614293D01*
X6432443Y-10614293D02*
X6432443Y-10566674D01*
X6432443Y-10566674D02*
X6441967Y-10528579D01*
X6441967Y-10528579D02*
X6451491Y-10509531D01*
X6451491Y-10509531D02*
X6461015Y-10500008D01*
X6461015Y-10500008D02*
X6480062Y-10490484D01*
X6670539Y-10490484D02*
X6689586Y-10490484D01*
X6689586Y-10490484D02*
X6708634Y-10500008D01*
X6708634Y-10500008D02*
X6718158Y-10509531D01*
X6718158Y-10509531D02*
X6727682Y-10528579D01*
X6727682Y-10528579D02*
X6737205Y-10566674D01*
X6737205Y-10566674D02*
X6737205Y-10614293D01*
X6737205Y-10614293D02*
X6727682Y-10652389D01*
X6727682Y-10652389D02*
X6718158Y-10671436D01*
X6718158Y-10671436D02*
X6708634Y-10680960D01*
X6708634Y-10680960D02*
X6689586Y-10690484D01*
X6689586Y-10690484D02*
X6670539Y-10690484D01*
X6670539Y-10690484D02*
X6651491Y-10680960D01*
X6651491Y-10680960D02*
X6641967Y-10671436D01*
X6641967Y-10671436D02*
X6632443Y-10652389D01*
X6632443Y-10652389D02*
X6622920Y-10614293D01*
X6622920Y-10614293D02*
X6622920Y-10566674D01*
X6622920Y-10566674D02*
X6632443Y-10528579D01*
X6632443Y-10528579D02*
X6641967Y-10509531D01*
X6641967Y-10509531D02*
X6651491Y-10500008D01*
X6651491Y-10500008D02*
X6670539Y-10490484D01*
X6822920Y-10690484D02*
X6822920Y-10557150D01*
X6822920Y-10576198D02*
X6832443Y-10566674D01*
X6832443Y-10566674D02*
X6851491Y-10557150D01*
X6851491Y-10557150D02*
X6880063Y-10557150D01*
X6880063Y-10557150D02*
X6899110Y-10566674D01*
X6899110Y-10566674D02*
X6908634Y-10585722D01*
X6908634Y-10585722D02*
X6908634Y-10690484D01*
X6908634Y-10585722D02*
X6918158Y-10566674D01*
X6918158Y-10566674D02*
X6937205Y-10557150D01*
X6937205Y-10557150D02*
X6965777Y-10557150D01*
X6965777Y-10557150D02*
X6984824Y-10566674D01*
X6984824Y-10566674D02*
X6994348Y-10585722D01*
X6994348Y-10585722D02*
X6994348Y-10690484D01*
X7089586Y-10690484D02*
X7089586Y-10557150D01*
X7089586Y-10576198D02*
X7099110Y-10566674D01*
X7099110Y-10566674D02*
X7118158Y-10557150D01*
X7118158Y-10557150D02*
X7146729Y-10557150D01*
X7146729Y-10557150D02*
X7165777Y-10566674D01*
X7165777Y-10566674D02*
X7175301Y-10585722D01*
X7175301Y-10585722D02*
X7175301Y-10690484D01*
X7175301Y-10585722D02*
X7184824Y-10566674D01*
X7184824Y-10566674D02*
X7203872Y-10557150D01*
X7203872Y-10557150D02*
X7232443Y-10557150D01*
X7232443Y-10557150D02*
X7251491Y-10566674D01*
X7251491Y-10566674D02*
X7261015Y-10585722D01*
X7261015Y-10585722D02*
X7261015Y-10690484D01*
X7651491Y-10480960D02*
X7480063Y-10738103D01*
X7908634Y-10490484D02*
X7927682Y-10490484D01*
X7927682Y-10490484D02*
X7946729Y-10500008D01*
X7946729Y-10500008D02*
X7956253Y-10509531D01*
X7956253Y-10509531D02*
X7965777Y-10528579D01*
X7965777Y-10528579D02*
X7975301Y-10566674D01*
X7975301Y-10566674D02*
X7975301Y-10614293D01*
X7975301Y-10614293D02*
X7965777Y-10652389D01*
X7965777Y-10652389D02*
X7956253Y-10671436D01*
X7956253Y-10671436D02*
X7946729Y-10680960D01*
X7946729Y-10680960D02*
X7927682Y-10690484D01*
X7927682Y-10690484D02*
X7908634Y-10690484D01*
X7908634Y-10690484D02*
X7889586Y-10680960D01*
X7889586Y-10680960D02*
X7880063Y-10671436D01*
X7880063Y-10671436D02*
X7870539Y-10652389D01*
X7870539Y-10652389D02*
X7861015Y-10614293D01*
X7861015Y-10614293D02*
X7861015Y-10566674D01*
X7861015Y-10566674D02*
X7870539Y-10528579D01*
X7870539Y-10528579D02*
X7880063Y-10509531D01*
X7880063Y-10509531D02*
X7889586Y-10500008D01*
X7889586Y-10500008D02*
X7908634Y-10490484D01*
X8061015Y-10671436D02*
X8070539Y-10680960D01*
X8070539Y-10680960D02*
X8061015Y-10690484D01*
X8061015Y-10690484D02*
X8051491Y-10680960D01*
X8051491Y-10680960D02*
X8061015Y-10671436D01*
X8061015Y-10671436D02*
X8061015Y-10690484D01*
X8194348Y-10490484D02*
X8213396Y-10490484D01*
X8213396Y-10490484D02*
X8232444Y-10500008D01*
X8232444Y-10500008D02*
X8241967Y-10509531D01*
X8241967Y-10509531D02*
X8251491Y-10528579D01*
X8251491Y-10528579D02*
X8261015Y-10566674D01*
X8261015Y-10566674D02*
X8261015Y-10614293D01*
X8261015Y-10614293D02*
X8251491Y-10652389D01*
X8251491Y-10652389D02*
X8241967Y-10671436D01*
X8241967Y-10671436D02*
X8232444Y-10680960D01*
X8232444Y-10680960D02*
X8213396Y-10690484D01*
X8213396Y-10690484D02*
X8194348Y-10690484D01*
X8194348Y-10690484D02*
X8175301Y-10680960D01*
X8175301Y-10680960D02*
X8165777Y-10671436D01*
X8165777Y-10671436D02*
X8156253Y-10652389D01*
X8156253Y-10652389D02*
X8146729Y-10614293D01*
X8146729Y-10614293D02*
X8146729Y-10566674D01*
X8146729Y-10566674D02*
X8156253Y-10528579D01*
X8156253Y-10528579D02*
X8165777Y-10509531D01*
X8165777Y-10509531D02*
X8175301Y-10500008D01*
X8175301Y-10500008D02*
X8194348Y-10490484D01*
X8451491Y-10690484D02*
X8337206Y-10690484D01*
X8394348Y-10690484D02*
X8394348Y-10490484D01*
X8394348Y-10490484D02*
X8375301Y-10519055D01*
X8375301Y-10519055D02*
X8356253Y-10538103D01*
X8356253Y-10538103D02*
X8337206Y-10547627D01*
X8546729Y-10690484D02*
X8584825Y-10690484D01*
X8584825Y-10690484D02*
X8603872Y-10680960D01*
X8603872Y-10680960D02*
X8613396Y-10671436D01*
X8613396Y-10671436D02*
X8632444Y-10642865D01*
X8632444Y-10642865D02*
X8641968Y-10604770D01*
X8641968Y-10604770D02*
X8641968Y-10528579D01*
X8641968Y-10528579D02*
X8632444Y-10509531D01*
X8632444Y-10509531D02*
X8622920Y-10500008D01*
X8622920Y-10500008D02*
X8603872Y-10490484D01*
X8603872Y-10490484D02*
X8565777Y-10490484D01*
X8565777Y-10490484D02*
X8546729Y-10500008D01*
X8546729Y-10500008D02*
X8537206Y-10509531D01*
X8537206Y-10509531D02*
X8527682Y-10528579D01*
X8527682Y-10528579D02*
X8527682Y-10576198D01*
X8527682Y-10576198D02*
X8537206Y-10595246D01*
X8537206Y-10595246D02*
X8546729Y-10604770D01*
X8546729Y-10604770D02*
X8565777Y-10614293D01*
X8565777Y-10614293D02*
X8603872Y-10614293D01*
X8603872Y-10614293D02*
X8622920Y-10604770D01*
X8622920Y-10604770D02*
X8632444Y-10595246D01*
X8632444Y-10595246D02*
X8641968Y-10576198D01*
X8708634Y-10490484D02*
X8841968Y-10490484D01*
X8841968Y-10490484D02*
X8756253Y-10690484D01*
X8908634Y-10490484D02*
X8908634Y-10528579D01*
X8984825Y-10490484D02*
X8984825Y-10528579D01*
X9280063Y-10766674D02*
X9270539Y-10757150D01*
X9270539Y-10757150D02*
X9251491Y-10728579D01*
X9251491Y-10728579D02*
X9241968Y-10709531D01*
X9241968Y-10709531D02*
X9232444Y-10680960D01*
X9232444Y-10680960D02*
X9222920Y-10633341D01*
X9222920Y-10633341D02*
X9222920Y-10595246D01*
X9222920Y-10595246D02*
X9232444Y-10547627D01*
X9232444Y-10547627D02*
X9241968Y-10519055D01*
X9241968Y-10519055D02*
X9251491Y-10500008D01*
X9251491Y-10500008D02*
X9270539Y-10471436D01*
X9270539Y-10471436D02*
X9280063Y-10461912D01*
X9394349Y-10490484D02*
X9413396Y-10490484D01*
X9413396Y-10490484D02*
X9432444Y-10500008D01*
X9432444Y-10500008D02*
X9441968Y-10509531D01*
X9441968Y-10509531D02*
X9451491Y-10528579D01*
X9451491Y-10528579D02*
X9461015Y-10566674D01*
X9461015Y-10566674D02*
X9461015Y-10614293D01*
X9461015Y-10614293D02*
X9451491Y-10652389D01*
X9451491Y-10652389D02*
X9441968Y-10671436D01*
X9441968Y-10671436D02*
X9432444Y-10680960D01*
X9432444Y-10680960D02*
X9413396Y-10690484D01*
X9413396Y-10690484D02*
X9394349Y-10690484D01*
X9394349Y-10690484D02*
X9375301Y-10680960D01*
X9375301Y-10680960D02*
X9365777Y-10671436D01*
X9365777Y-10671436D02*
X9356253Y-10652389D01*
X9356253Y-10652389D02*
X9346730Y-10614293D01*
X9346730Y-10614293D02*
X9346730Y-10566674D01*
X9346730Y-10566674D02*
X9356253Y-10528579D01*
X9356253Y-10528579D02*
X9365777Y-10509531D01*
X9365777Y-10509531D02*
X9375301Y-10500008D01*
X9375301Y-10500008D02*
X9394349Y-10490484D01*
X9699111Y-10690484D02*
X9699111Y-10490484D01*
X9784825Y-10690484D02*
X9784825Y-10585722D01*
X9784825Y-10585722D02*
X9775301Y-10566674D01*
X9775301Y-10566674D02*
X9756253Y-10557150D01*
X9756253Y-10557150D02*
X9727682Y-10557150D01*
X9727682Y-10557150D02*
X9708634Y-10566674D01*
X9708634Y-10566674D02*
X9699111Y-10576198D01*
X9908634Y-10690484D02*
X9889587Y-10680960D01*
X9889587Y-10680960D02*
X9880063Y-10671436D01*
X9880063Y-10671436D02*
X9870539Y-10652389D01*
X9870539Y-10652389D02*
X9870539Y-10595246D01*
X9870539Y-10595246D02*
X9880063Y-10576198D01*
X9880063Y-10576198D02*
X9889587Y-10566674D01*
X9889587Y-10566674D02*
X9908634Y-10557150D01*
X9908634Y-10557150D02*
X9937206Y-10557150D01*
X9937206Y-10557150D02*
X9956253Y-10566674D01*
X9956253Y-10566674D02*
X9965777Y-10576198D01*
X9965777Y-10576198D02*
X9975301Y-10595246D01*
X9975301Y-10595246D02*
X9975301Y-10652389D01*
X9975301Y-10652389D02*
X9965777Y-10671436D01*
X9965777Y-10671436D02*
X9956253Y-10680960D01*
X9956253Y-10680960D02*
X9937206Y-10690484D01*
X9937206Y-10690484D02*
X9908634Y-10690484D01*
X10089587Y-10690484D02*
X10070539Y-10680960D01*
X10070539Y-10680960D02*
X10061015Y-10661912D01*
X10061015Y-10661912D02*
X10061015Y-10490484D01*
X10241968Y-10680960D02*
X10222920Y-10690484D01*
X10222920Y-10690484D02*
X10184825Y-10690484D01*
X10184825Y-10690484D02*
X10165777Y-10680960D01*
X10165777Y-10680960D02*
X10156253Y-10661912D01*
X10156253Y-10661912D02*
X10156253Y-10585722D01*
X10156253Y-10585722D02*
X10165777Y-10566674D01*
X10165777Y-10566674D02*
X10184825Y-10557150D01*
X10184825Y-10557150D02*
X10222920Y-10557150D01*
X10222920Y-10557150D02*
X10241968Y-10566674D01*
X10241968Y-10566674D02*
X10251492Y-10585722D01*
X10251492Y-10585722D02*
X10251492Y-10604770D01*
X10251492Y-10604770D02*
X10156253Y-10623817D01*
X10327682Y-10680960D02*
X10346730Y-10690484D01*
X10346730Y-10690484D02*
X10384825Y-10690484D01*
X10384825Y-10690484D02*
X10403873Y-10680960D01*
X10403873Y-10680960D02*
X10413396Y-10661912D01*
X10413396Y-10661912D02*
X10413396Y-10652389D01*
X10413396Y-10652389D02*
X10403873Y-10633341D01*
X10403873Y-10633341D02*
X10384825Y-10623817D01*
X10384825Y-10623817D02*
X10356253Y-10623817D01*
X10356253Y-10623817D02*
X10337206Y-10614293D01*
X10337206Y-10614293D02*
X10327682Y-10595246D01*
X10327682Y-10595246D02*
X10327682Y-10585722D01*
X10327682Y-10585722D02*
X10337206Y-10566674D01*
X10337206Y-10566674D02*
X10356253Y-10557150D01*
X10356253Y-10557150D02*
X10384825Y-10557150D01*
X10384825Y-10557150D02*
X10403873Y-10566674D01*
X10651492Y-10614293D02*
X10803873Y-10614293D01*
X10727682Y-10690484D02*
X10727682Y-10538103D01*
X11041968Y-10509531D02*
X11051492Y-10500008D01*
X11051492Y-10500008D02*
X11070539Y-10490484D01*
X11070539Y-10490484D02*
X11118158Y-10490484D01*
X11118158Y-10490484D02*
X11137206Y-10500008D01*
X11137206Y-10500008D02*
X11146730Y-10509531D01*
X11146730Y-10509531D02*
X11156254Y-10528579D01*
X11156254Y-10528579D02*
X11156254Y-10547627D01*
X11156254Y-10547627D02*
X11146730Y-10576198D01*
X11146730Y-10576198D02*
X11032444Y-10690484D01*
X11032444Y-10690484D02*
X11156254Y-10690484D01*
X11384825Y-10680960D02*
X11403873Y-10690484D01*
X11403873Y-10690484D02*
X11441968Y-10690484D01*
X11441968Y-10690484D02*
X11461015Y-10680960D01*
X11461015Y-10680960D02*
X11470539Y-10661912D01*
X11470539Y-10661912D02*
X11470539Y-10652389D01*
X11470539Y-10652389D02*
X11461015Y-10633341D01*
X11461015Y-10633341D02*
X11441968Y-10623817D01*
X11441968Y-10623817D02*
X11413396Y-10623817D01*
X11413396Y-10623817D02*
X11394349Y-10614293D01*
X11394349Y-10614293D02*
X11384825Y-10595246D01*
X11384825Y-10595246D02*
X11384825Y-10585722D01*
X11384825Y-10585722D02*
X11394349Y-10566674D01*
X11394349Y-10566674D02*
X11413396Y-10557150D01*
X11413396Y-10557150D02*
X11441968Y-10557150D01*
X11441968Y-10557150D02*
X11461015Y-10566674D01*
X11584825Y-10690484D02*
X11565777Y-10680960D01*
X11565777Y-10680960D02*
X11556254Y-10661912D01*
X11556254Y-10661912D02*
X11556254Y-10490484D01*
X11689587Y-10690484D02*
X11670539Y-10680960D01*
X11670539Y-10680960D02*
X11661015Y-10671436D01*
X11661015Y-10671436D02*
X11651492Y-10652389D01*
X11651492Y-10652389D02*
X11651492Y-10595246D01*
X11651492Y-10595246D02*
X11661015Y-10576198D01*
X11661015Y-10576198D02*
X11670539Y-10566674D01*
X11670539Y-10566674D02*
X11689587Y-10557150D01*
X11689587Y-10557150D02*
X11718158Y-10557150D01*
X11718158Y-10557150D02*
X11737206Y-10566674D01*
X11737206Y-10566674D02*
X11746730Y-10576198D01*
X11746730Y-10576198D02*
X11756254Y-10595246D01*
X11756254Y-10595246D02*
X11756254Y-10652389D01*
X11756254Y-10652389D02*
X11746730Y-10671436D01*
X11746730Y-10671436D02*
X11737206Y-10680960D01*
X11737206Y-10680960D02*
X11718158Y-10690484D01*
X11718158Y-10690484D02*
X11689587Y-10690484D01*
X11813396Y-10557150D02*
X11889587Y-10557150D01*
X11841968Y-10490484D02*
X11841968Y-10661912D01*
X11841968Y-10661912D02*
X11851492Y-10680960D01*
X11851492Y-10680960D02*
X11870539Y-10690484D01*
X11870539Y-10690484D02*
X11889587Y-10690484D01*
X11946730Y-10680960D02*
X11965777Y-10690484D01*
X11965777Y-10690484D02*
X12003873Y-10690484D01*
X12003873Y-10690484D02*
X12022920Y-10680960D01*
X12022920Y-10680960D02*
X12032444Y-10661912D01*
X12032444Y-10661912D02*
X12032444Y-10652389D01*
X12032444Y-10652389D02*
X12022920Y-10633341D01*
X12022920Y-10633341D02*
X12003873Y-10623817D01*
X12003873Y-10623817D02*
X11975301Y-10623817D01*
X11975301Y-10623817D02*
X11956254Y-10614293D01*
X11956254Y-10614293D02*
X11946730Y-10595246D01*
X11946730Y-10595246D02*
X11946730Y-10585722D01*
X11946730Y-10585722D02*
X11956254Y-10566674D01*
X11956254Y-10566674D02*
X11975301Y-10557150D01*
X11975301Y-10557150D02*
X12003873Y-10557150D01*
X12003873Y-10557150D02*
X12022920Y-10566674D01*
X12099111Y-10766674D02*
X12108635Y-10757150D01*
X12108635Y-10757150D02*
X12127682Y-10728579D01*
X12127682Y-10728579D02*
X12137206Y-10709531D01*
X12137206Y-10709531D02*
X12146730Y-10680960D01*
X12146730Y-10680960D02*
X12156254Y-10633341D01*
X12156254Y-10633341D02*
X12156254Y-10595246D01*
X12156254Y-10595246D02*
X12146730Y-10547627D01*
X12146730Y-10547627D02*
X12137206Y-10519055D01*
X12137206Y-10519055D02*
X12127682Y-10500008D01*
X12127682Y-10500008D02*
X12108635Y-10471436D01*
X12108635Y-10471436D02*
X12099111Y-10461912D01*
D14*
X5677500Y-10835500D02*
X5677500Y-10890500D01*
X5650000Y-10863000D02*
X5705000Y-10863000D01*
D11*
X6003872Y-10754484D02*
X6022920Y-10754484D01*
X6022920Y-10754484D02*
X6041967Y-10764008D01*
X6041967Y-10764008D02*
X6051491Y-10773531D01*
X6051491Y-10773531D02*
X6061015Y-10792579D01*
X6061015Y-10792579D02*
X6070539Y-10830674D01*
X6070539Y-10830674D02*
X6070539Y-10878293D01*
X6070539Y-10878293D02*
X6061015Y-10916389D01*
X6061015Y-10916389D02*
X6051491Y-10935436D01*
X6051491Y-10935436D02*
X6041967Y-10944960D01*
X6041967Y-10944960D02*
X6022920Y-10954484D01*
X6022920Y-10954484D02*
X6003872Y-10954484D01*
X6003872Y-10954484D02*
X5984824Y-10944960D01*
X5984824Y-10944960D02*
X5975301Y-10935436D01*
X5975301Y-10935436D02*
X5965777Y-10916389D01*
X5965777Y-10916389D02*
X5956253Y-10878293D01*
X5956253Y-10878293D02*
X5956253Y-10830674D01*
X5956253Y-10830674D02*
X5965777Y-10792579D01*
X5965777Y-10792579D02*
X5975301Y-10773531D01*
X5975301Y-10773531D02*
X5984824Y-10764008D01*
X5984824Y-10764008D02*
X6003872Y-10754484D01*
X6156253Y-10935436D02*
X6165777Y-10944960D01*
X6165777Y-10944960D02*
X6156253Y-10954484D01*
X6156253Y-10954484D02*
X6146729Y-10944960D01*
X6146729Y-10944960D02*
X6156253Y-10935436D01*
X6156253Y-10935436D02*
X6156253Y-10954484D01*
X6346729Y-10754484D02*
X6251491Y-10754484D01*
X6251491Y-10754484D02*
X6241967Y-10849722D01*
X6241967Y-10849722D02*
X6251491Y-10840198D01*
X6251491Y-10840198D02*
X6270539Y-10830674D01*
X6270539Y-10830674D02*
X6318158Y-10830674D01*
X6318158Y-10830674D02*
X6337205Y-10840198D01*
X6337205Y-10840198D02*
X6346729Y-10849722D01*
X6346729Y-10849722D02*
X6356253Y-10868770D01*
X6356253Y-10868770D02*
X6356253Y-10916389D01*
X6356253Y-10916389D02*
X6346729Y-10935436D01*
X6346729Y-10935436D02*
X6337205Y-10944960D01*
X6337205Y-10944960D02*
X6318158Y-10954484D01*
X6318158Y-10954484D02*
X6270539Y-10954484D01*
X6270539Y-10954484D02*
X6251491Y-10944960D01*
X6251491Y-10944960D02*
X6241967Y-10935436D01*
X6537205Y-10754484D02*
X6441967Y-10754484D01*
X6441967Y-10754484D02*
X6432443Y-10849722D01*
X6432443Y-10849722D02*
X6441967Y-10840198D01*
X6441967Y-10840198D02*
X6461015Y-10830674D01*
X6461015Y-10830674D02*
X6508634Y-10830674D01*
X6508634Y-10830674D02*
X6527682Y-10840198D01*
X6527682Y-10840198D02*
X6537205Y-10849722D01*
X6537205Y-10849722D02*
X6546729Y-10868770D01*
X6546729Y-10868770D02*
X6546729Y-10916389D01*
X6546729Y-10916389D02*
X6537205Y-10935436D01*
X6537205Y-10935436D02*
X6527682Y-10944960D01*
X6527682Y-10944960D02*
X6508634Y-10954484D01*
X6508634Y-10954484D02*
X6461015Y-10954484D01*
X6461015Y-10954484D02*
X6441967Y-10944960D01*
X6441967Y-10944960D02*
X6432443Y-10935436D01*
X6670539Y-10754484D02*
X6689586Y-10754484D01*
X6689586Y-10754484D02*
X6708634Y-10764008D01*
X6708634Y-10764008D02*
X6718158Y-10773531D01*
X6718158Y-10773531D02*
X6727682Y-10792579D01*
X6727682Y-10792579D02*
X6737205Y-10830674D01*
X6737205Y-10830674D02*
X6737205Y-10878293D01*
X6737205Y-10878293D02*
X6727682Y-10916389D01*
X6727682Y-10916389D02*
X6718158Y-10935436D01*
X6718158Y-10935436D02*
X6708634Y-10944960D01*
X6708634Y-10944960D02*
X6689586Y-10954484D01*
X6689586Y-10954484D02*
X6670539Y-10954484D01*
X6670539Y-10954484D02*
X6651491Y-10944960D01*
X6651491Y-10944960D02*
X6641967Y-10935436D01*
X6641967Y-10935436D02*
X6632443Y-10916389D01*
X6632443Y-10916389D02*
X6622920Y-10878293D01*
X6622920Y-10878293D02*
X6622920Y-10830674D01*
X6622920Y-10830674D02*
X6632443Y-10792579D01*
X6632443Y-10792579D02*
X6641967Y-10773531D01*
X6641967Y-10773531D02*
X6651491Y-10764008D01*
X6651491Y-10764008D02*
X6670539Y-10754484D01*
X6822920Y-10954484D02*
X6822920Y-10821150D01*
X6822920Y-10840198D02*
X6832443Y-10830674D01*
X6832443Y-10830674D02*
X6851491Y-10821150D01*
X6851491Y-10821150D02*
X6880063Y-10821150D01*
X6880063Y-10821150D02*
X6899110Y-10830674D01*
X6899110Y-10830674D02*
X6908634Y-10849722D01*
X6908634Y-10849722D02*
X6908634Y-10954484D01*
X6908634Y-10849722D02*
X6918158Y-10830674D01*
X6918158Y-10830674D02*
X6937205Y-10821150D01*
X6937205Y-10821150D02*
X6965777Y-10821150D01*
X6965777Y-10821150D02*
X6984824Y-10830674D01*
X6984824Y-10830674D02*
X6994348Y-10849722D01*
X6994348Y-10849722D02*
X6994348Y-10954484D01*
X7089586Y-10954484D02*
X7089586Y-10821150D01*
X7089586Y-10840198D02*
X7099110Y-10830674D01*
X7099110Y-10830674D02*
X7118158Y-10821150D01*
X7118158Y-10821150D02*
X7146729Y-10821150D01*
X7146729Y-10821150D02*
X7165777Y-10830674D01*
X7165777Y-10830674D02*
X7175301Y-10849722D01*
X7175301Y-10849722D02*
X7175301Y-10954484D01*
X7175301Y-10849722D02*
X7184824Y-10830674D01*
X7184824Y-10830674D02*
X7203872Y-10821150D01*
X7203872Y-10821150D02*
X7232443Y-10821150D01*
X7232443Y-10821150D02*
X7251491Y-10830674D01*
X7251491Y-10830674D02*
X7261015Y-10849722D01*
X7261015Y-10849722D02*
X7261015Y-10954484D01*
X7651491Y-10744960D02*
X7480063Y-11002103D01*
X7908634Y-10754484D02*
X7927682Y-10754484D01*
X7927682Y-10754484D02*
X7946729Y-10764008D01*
X7946729Y-10764008D02*
X7956253Y-10773531D01*
X7956253Y-10773531D02*
X7965777Y-10792579D01*
X7965777Y-10792579D02*
X7975301Y-10830674D01*
X7975301Y-10830674D02*
X7975301Y-10878293D01*
X7975301Y-10878293D02*
X7965777Y-10916389D01*
X7965777Y-10916389D02*
X7956253Y-10935436D01*
X7956253Y-10935436D02*
X7946729Y-10944960D01*
X7946729Y-10944960D02*
X7927682Y-10954484D01*
X7927682Y-10954484D02*
X7908634Y-10954484D01*
X7908634Y-10954484D02*
X7889586Y-10944960D01*
X7889586Y-10944960D02*
X7880063Y-10935436D01*
X7880063Y-10935436D02*
X7870539Y-10916389D01*
X7870539Y-10916389D02*
X7861015Y-10878293D01*
X7861015Y-10878293D02*
X7861015Y-10830674D01*
X7861015Y-10830674D02*
X7870539Y-10792579D01*
X7870539Y-10792579D02*
X7880063Y-10773531D01*
X7880063Y-10773531D02*
X7889586Y-10764008D01*
X7889586Y-10764008D02*
X7908634Y-10754484D01*
X8061015Y-10935436D02*
X8070539Y-10944960D01*
X8070539Y-10944960D02*
X8061015Y-10954484D01*
X8061015Y-10954484D02*
X8051491Y-10944960D01*
X8051491Y-10944960D02*
X8061015Y-10935436D01*
X8061015Y-10935436D02*
X8061015Y-10954484D01*
X8194348Y-10754484D02*
X8213396Y-10754484D01*
X8213396Y-10754484D02*
X8232444Y-10764008D01*
X8232444Y-10764008D02*
X8241967Y-10773531D01*
X8241967Y-10773531D02*
X8251491Y-10792579D01*
X8251491Y-10792579D02*
X8261015Y-10830674D01*
X8261015Y-10830674D02*
X8261015Y-10878293D01*
X8261015Y-10878293D02*
X8251491Y-10916389D01*
X8251491Y-10916389D02*
X8241967Y-10935436D01*
X8241967Y-10935436D02*
X8232444Y-10944960D01*
X8232444Y-10944960D02*
X8213396Y-10954484D01*
X8213396Y-10954484D02*
X8194348Y-10954484D01*
X8194348Y-10954484D02*
X8175301Y-10944960D01*
X8175301Y-10944960D02*
X8165777Y-10935436D01*
X8165777Y-10935436D02*
X8156253Y-10916389D01*
X8156253Y-10916389D02*
X8146729Y-10878293D01*
X8146729Y-10878293D02*
X8146729Y-10830674D01*
X8146729Y-10830674D02*
X8156253Y-10792579D01*
X8156253Y-10792579D02*
X8165777Y-10773531D01*
X8165777Y-10773531D02*
X8175301Y-10764008D01*
X8175301Y-10764008D02*
X8194348Y-10754484D01*
X8337206Y-10773531D02*
X8346729Y-10764008D01*
X8346729Y-10764008D02*
X8365777Y-10754484D01*
X8365777Y-10754484D02*
X8413396Y-10754484D01*
X8413396Y-10754484D02*
X8432444Y-10764008D01*
X8432444Y-10764008D02*
X8441968Y-10773531D01*
X8441968Y-10773531D02*
X8451491Y-10792579D01*
X8451491Y-10792579D02*
X8451491Y-10811627D01*
X8451491Y-10811627D02*
X8441968Y-10840198D01*
X8441968Y-10840198D02*
X8327682Y-10954484D01*
X8327682Y-10954484D02*
X8451491Y-10954484D01*
X8641968Y-10954484D02*
X8527682Y-10954484D01*
X8584825Y-10954484D02*
X8584825Y-10754484D01*
X8584825Y-10754484D02*
X8565777Y-10783055D01*
X8565777Y-10783055D02*
X8546729Y-10802103D01*
X8546729Y-10802103D02*
X8527682Y-10811627D01*
X8708634Y-10754484D02*
X8841968Y-10754484D01*
X8841968Y-10754484D02*
X8756253Y-10954484D01*
X8908634Y-10754484D02*
X8908634Y-10792579D01*
X8984825Y-10754484D02*
X8984825Y-10792579D01*
X9280063Y-11030674D02*
X9270539Y-11021150D01*
X9270539Y-11021150D02*
X9251491Y-10992579D01*
X9251491Y-10992579D02*
X9241968Y-10973531D01*
X9241968Y-10973531D02*
X9232444Y-10944960D01*
X9232444Y-10944960D02*
X9222920Y-10897341D01*
X9222920Y-10897341D02*
X9222920Y-10859246D01*
X9222920Y-10859246D02*
X9232444Y-10811627D01*
X9232444Y-10811627D02*
X9241968Y-10783055D01*
X9241968Y-10783055D02*
X9251491Y-10764008D01*
X9251491Y-10764008D02*
X9270539Y-10735436D01*
X9270539Y-10735436D02*
X9280063Y-10725912D01*
X9394349Y-10754484D02*
X9413396Y-10754484D01*
X9413396Y-10754484D02*
X9432444Y-10764008D01*
X9432444Y-10764008D02*
X9441968Y-10773531D01*
X9441968Y-10773531D02*
X9451491Y-10792579D01*
X9451491Y-10792579D02*
X9461015Y-10830674D01*
X9461015Y-10830674D02*
X9461015Y-10878293D01*
X9461015Y-10878293D02*
X9451491Y-10916389D01*
X9451491Y-10916389D02*
X9441968Y-10935436D01*
X9441968Y-10935436D02*
X9432444Y-10944960D01*
X9432444Y-10944960D02*
X9413396Y-10954484D01*
X9413396Y-10954484D02*
X9394349Y-10954484D01*
X9394349Y-10954484D02*
X9375301Y-10944960D01*
X9375301Y-10944960D02*
X9365777Y-10935436D01*
X9365777Y-10935436D02*
X9356253Y-10916389D01*
X9356253Y-10916389D02*
X9346730Y-10878293D01*
X9346730Y-10878293D02*
X9346730Y-10830674D01*
X9346730Y-10830674D02*
X9356253Y-10792579D01*
X9356253Y-10792579D02*
X9365777Y-10773531D01*
X9365777Y-10773531D02*
X9375301Y-10764008D01*
X9375301Y-10764008D02*
X9394349Y-10754484D01*
X9699111Y-10954484D02*
X9699111Y-10754484D01*
X9784825Y-10954484D02*
X9784825Y-10849722D01*
X9784825Y-10849722D02*
X9775301Y-10830674D01*
X9775301Y-10830674D02*
X9756253Y-10821150D01*
X9756253Y-10821150D02*
X9727682Y-10821150D01*
X9727682Y-10821150D02*
X9708634Y-10830674D01*
X9708634Y-10830674D02*
X9699111Y-10840198D01*
X9908634Y-10954484D02*
X9889587Y-10944960D01*
X9889587Y-10944960D02*
X9880063Y-10935436D01*
X9880063Y-10935436D02*
X9870539Y-10916389D01*
X9870539Y-10916389D02*
X9870539Y-10859246D01*
X9870539Y-10859246D02*
X9880063Y-10840198D01*
X9880063Y-10840198D02*
X9889587Y-10830674D01*
X9889587Y-10830674D02*
X9908634Y-10821150D01*
X9908634Y-10821150D02*
X9937206Y-10821150D01*
X9937206Y-10821150D02*
X9956253Y-10830674D01*
X9956253Y-10830674D02*
X9965777Y-10840198D01*
X9965777Y-10840198D02*
X9975301Y-10859246D01*
X9975301Y-10859246D02*
X9975301Y-10916389D01*
X9975301Y-10916389D02*
X9965777Y-10935436D01*
X9965777Y-10935436D02*
X9956253Y-10944960D01*
X9956253Y-10944960D02*
X9937206Y-10954484D01*
X9937206Y-10954484D02*
X9908634Y-10954484D01*
X10089587Y-10954484D02*
X10070539Y-10944960D01*
X10070539Y-10944960D02*
X10061015Y-10925912D01*
X10061015Y-10925912D02*
X10061015Y-10754484D01*
X10241968Y-10944960D02*
X10222920Y-10954484D01*
X10222920Y-10954484D02*
X10184825Y-10954484D01*
X10184825Y-10954484D02*
X10165777Y-10944960D01*
X10165777Y-10944960D02*
X10156253Y-10925912D01*
X10156253Y-10925912D02*
X10156253Y-10849722D01*
X10156253Y-10849722D02*
X10165777Y-10830674D01*
X10165777Y-10830674D02*
X10184825Y-10821150D01*
X10184825Y-10821150D02*
X10222920Y-10821150D01*
X10222920Y-10821150D02*
X10241968Y-10830674D01*
X10241968Y-10830674D02*
X10251492Y-10849722D01*
X10251492Y-10849722D02*
X10251492Y-10868770D01*
X10251492Y-10868770D02*
X10156253Y-10887817D01*
X10327682Y-10944960D02*
X10346730Y-10954484D01*
X10346730Y-10954484D02*
X10384825Y-10954484D01*
X10384825Y-10954484D02*
X10403873Y-10944960D01*
X10403873Y-10944960D02*
X10413396Y-10925912D01*
X10413396Y-10925912D02*
X10413396Y-10916389D01*
X10413396Y-10916389D02*
X10403873Y-10897341D01*
X10403873Y-10897341D02*
X10384825Y-10887817D01*
X10384825Y-10887817D02*
X10356253Y-10887817D01*
X10356253Y-10887817D02*
X10337206Y-10878293D01*
X10337206Y-10878293D02*
X10327682Y-10859246D01*
X10327682Y-10859246D02*
X10327682Y-10849722D01*
X10327682Y-10849722D02*
X10337206Y-10830674D01*
X10337206Y-10830674D02*
X10356253Y-10821150D01*
X10356253Y-10821150D02*
X10384825Y-10821150D01*
X10384825Y-10821150D02*
X10403873Y-10830674D01*
X10651492Y-10878293D02*
X10803873Y-10878293D01*
X10727682Y-10954484D02*
X10727682Y-10802103D01*
X11041968Y-10773531D02*
X11051492Y-10764008D01*
X11051492Y-10764008D02*
X11070539Y-10754484D01*
X11070539Y-10754484D02*
X11118158Y-10754484D01*
X11118158Y-10754484D02*
X11137206Y-10764008D01*
X11137206Y-10764008D02*
X11146730Y-10773531D01*
X11146730Y-10773531D02*
X11156254Y-10792579D01*
X11156254Y-10792579D02*
X11156254Y-10811627D01*
X11156254Y-10811627D02*
X11146730Y-10840198D01*
X11146730Y-10840198D02*
X11032444Y-10954484D01*
X11032444Y-10954484D02*
X11156254Y-10954484D01*
X11384825Y-10944960D02*
X11403873Y-10954484D01*
X11403873Y-10954484D02*
X11441968Y-10954484D01*
X11441968Y-10954484D02*
X11461015Y-10944960D01*
X11461015Y-10944960D02*
X11470539Y-10925912D01*
X11470539Y-10925912D02*
X11470539Y-10916389D01*
X11470539Y-10916389D02*
X11461015Y-10897341D01*
X11461015Y-10897341D02*
X11441968Y-10887817D01*
X11441968Y-10887817D02*
X11413396Y-10887817D01*
X11413396Y-10887817D02*
X11394349Y-10878293D01*
X11394349Y-10878293D02*
X11384825Y-10859246D01*
X11384825Y-10859246D02*
X11384825Y-10849722D01*
X11384825Y-10849722D02*
X11394349Y-10830674D01*
X11394349Y-10830674D02*
X11413396Y-10821150D01*
X11413396Y-10821150D02*
X11441968Y-10821150D01*
X11441968Y-10821150D02*
X11461015Y-10830674D01*
X11584825Y-10954484D02*
X11565777Y-10944960D01*
X11565777Y-10944960D02*
X11556254Y-10925912D01*
X11556254Y-10925912D02*
X11556254Y-10754484D01*
X11689587Y-10954484D02*
X11670539Y-10944960D01*
X11670539Y-10944960D02*
X11661015Y-10935436D01*
X11661015Y-10935436D02*
X11651492Y-10916389D01*
X11651492Y-10916389D02*
X11651492Y-10859246D01*
X11651492Y-10859246D02*
X11661015Y-10840198D01*
X11661015Y-10840198D02*
X11670539Y-10830674D01*
X11670539Y-10830674D02*
X11689587Y-10821150D01*
X11689587Y-10821150D02*
X11718158Y-10821150D01*
X11718158Y-10821150D02*
X11737206Y-10830674D01*
X11737206Y-10830674D02*
X11746730Y-10840198D01*
X11746730Y-10840198D02*
X11756254Y-10859246D01*
X11756254Y-10859246D02*
X11756254Y-10916389D01*
X11756254Y-10916389D02*
X11746730Y-10935436D01*
X11746730Y-10935436D02*
X11737206Y-10944960D01*
X11737206Y-10944960D02*
X11718158Y-10954484D01*
X11718158Y-10954484D02*
X11689587Y-10954484D01*
X11813396Y-10821150D02*
X11889587Y-10821150D01*
X11841968Y-10754484D02*
X11841968Y-10925912D01*
X11841968Y-10925912D02*
X11851492Y-10944960D01*
X11851492Y-10944960D02*
X11870539Y-10954484D01*
X11870539Y-10954484D02*
X11889587Y-10954484D01*
X11946730Y-10944960D02*
X11965777Y-10954484D01*
X11965777Y-10954484D02*
X12003873Y-10954484D01*
X12003873Y-10954484D02*
X12022920Y-10944960D01*
X12022920Y-10944960D02*
X12032444Y-10925912D01*
X12032444Y-10925912D02*
X12032444Y-10916389D01*
X12032444Y-10916389D02*
X12022920Y-10897341D01*
X12022920Y-10897341D02*
X12003873Y-10887817D01*
X12003873Y-10887817D02*
X11975301Y-10887817D01*
X11975301Y-10887817D02*
X11956254Y-10878293D01*
X11956254Y-10878293D02*
X11946730Y-10859246D01*
X11946730Y-10859246D02*
X11946730Y-10849722D01*
X11946730Y-10849722D02*
X11956254Y-10830674D01*
X11956254Y-10830674D02*
X11975301Y-10821150D01*
X11975301Y-10821150D02*
X12003873Y-10821150D01*
X12003873Y-10821150D02*
X12022920Y-10830674D01*
X12099111Y-11030674D02*
X12108635Y-11021150D01*
X12108635Y-11021150D02*
X12127682Y-10992579D01*
X12127682Y-10992579D02*
X12137206Y-10973531D01*
X12137206Y-10973531D02*
X12146730Y-10944960D01*
X12146730Y-10944960D02*
X12156254Y-10897341D01*
X12156254Y-10897341D02*
X12156254Y-10859246D01*
X12156254Y-10859246D02*
X12146730Y-10811627D01*
X12146730Y-10811627D02*
X12137206Y-10783055D01*
X12137206Y-10783055D02*
X12127682Y-10764008D01*
X12127682Y-10764008D02*
X12108635Y-10735436D01*
X12108635Y-10735436D02*
X12099111Y-10725912D01*
D15*
X5694213Y-11153043D02*
X5694213Y-11100957D01*
X5642127Y-11100957D01*
X5642127Y-11153043D01*
X5694213Y-11153043D01*
D11*
X6003872Y-11018484D02*
X6022920Y-11018484D01*
X6022920Y-11018484D02*
X6041967Y-11028008D01*
X6041967Y-11028008D02*
X6051491Y-11037531D01*
X6051491Y-11037531D02*
X6061015Y-11056579D01*
X6061015Y-11056579D02*
X6070539Y-11094674D01*
X6070539Y-11094674D02*
X6070539Y-11142293D01*
X6070539Y-11142293D02*
X6061015Y-11180389D01*
X6061015Y-11180389D02*
X6051491Y-11199436D01*
X6051491Y-11199436D02*
X6041967Y-11208960D01*
X6041967Y-11208960D02*
X6022920Y-11218484D01*
X6022920Y-11218484D02*
X6003872Y-11218484D01*
X6003872Y-11218484D02*
X5984824Y-11208960D01*
X5984824Y-11208960D02*
X5975301Y-11199436D01*
X5975301Y-11199436D02*
X5965777Y-11180389D01*
X5965777Y-11180389D02*
X5956253Y-11142293D01*
X5956253Y-11142293D02*
X5956253Y-11094674D01*
X5956253Y-11094674D02*
X5965777Y-11056579D01*
X5965777Y-11056579D02*
X5975301Y-11037531D01*
X5975301Y-11037531D02*
X5984824Y-11028008D01*
X5984824Y-11028008D02*
X6003872Y-11018484D01*
X6156253Y-11199436D02*
X6165777Y-11208960D01*
X6165777Y-11208960D02*
X6156253Y-11218484D01*
X6156253Y-11218484D02*
X6146729Y-11208960D01*
X6146729Y-11208960D02*
X6156253Y-11199436D01*
X6156253Y-11199436D02*
X6156253Y-11218484D01*
X6232443Y-11018484D02*
X6365777Y-11018484D01*
X6365777Y-11018484D02*
X6280062Y-11218484D01*
X6422920Y-11018484D02*
X6546729Y-11018484D01*
X6546729Y-11018484D02*
X6480062Y-11094674D01*
X6480062Y-11094674D02*
X6508634Y-11094674D01*
X6508634Y-11094674D02*
X6527682Y-11104198D01*
X6527682Y-11104198D02*
X6537205Y-11113722D01*
X6537205Y-11113722D02*
X6546729Y-11132770D01*
X6546729Y-11132770D02*
X6546729Y-11180389D01*
X6546729Y-11180389D02*
X6537205Y-11199436D01*
X6537205Y-11199436D02*
X6527682Y-11208960D01*
X6527682Y-11208960D02*
X6508634Y-11218484D01*
X6508634Y-11218484D02*
X6451491Y-11218484D01*
X6451491Y-11218484D02*
X6432443Y-11208960D01*
X6432443Y-11208960D02*
X6422920Y-11199436D01*
X6613396Y-11018484D02*
X6746729Y-11018484D01*
X6746729Y-11018484D02*
X6661015Y-11218484D01*
X6822920Y-11218484D02*
X6822920Y-11085150D01*
X6822920Y-11104198D02*
X6832443Y-11094674D01*
X6832443Y-11094674D02*
X6851491Y-11085150D01*
X6851491Y-11085150D02*
X6880063Y-11085150D01*
X6880063Y-11085150D02*
X6899110Y-11094674D01*
X6899110Y-11094674D02*
X6908634Y-11113722D01*
X6908634Y-11113722D02*
X6908634Y-11218484D01*
X6908634Y-11113722D02*
X6918158Y-11094674D01*
X6918158Y-11094674D02*
X6937205Y-11085150D01*
X6937205Y-11085150D02*
X6965777Y-11085150D01*
X6965777Y-11085150D02*
X6984824Y-11094674D01*
X6984824Y-11094674D02*
X6994348Y-11113722D01*
X6994348Y-11113722D02*
X6994348Y-11218484D01*
X7089586Y-11218484D02*
X7089586Y-11085150D01*
X7089586Y-11104198D02*
X7099110Y-11094674D01*
X7099110Y-11094674D02*
X7118158Y-11085150D01*
X7118158Y-11085150D02*
X7146729Y-11085150D01*
X7146729Y-11085150D02*
X7165777Y-11094674D01*
X7165777Y-11094674D02*
X7175301Y-11113722D01*
X7175301Y-11113722D02*
X7175301Y-11218484D01*
X7175301Y-11113722D02*
X7184824Y-11094674D01*
X7184824Y-11094674D02*
X7203872Y-11085150D01*
X7203872Y-11085150D02*
X7232443Y-11085150D01*
X7232443Y-11085150D02*
X7251491Y-11094674D01*
X7251491Y-11094674D02*
X7261015Y-11113722D01*
X7261015Y-11113722D02*
X7261015Y-11218484D01*
X7651491Y-11008960D02*
X7480063Y-11266103D01*
X7908634Y-11018484D02*
X7927682Y-11018484D01*
X7927682Y-11018484D02*
X7946729Y-11028008D01*
X7946729Y-11028008D02*
X7956253Y-11037531D01*
X7956253Y-11037531D02*
X7965777Y-11056579D01*
X7965777Y-11056579D02*
X7975301Y-11094674D01*
X7975301Y-11094674D02*
X7975301Y-11142293D01*
X7975301Y-11142293D02*
X7965777Y-11180389D01*
X7965777Y-11180389D02*
X7956253Y-11199436D01*
X7956253Y-11199436D02*
X7946729Y-11208960D01*
X7946729Y-11208960D02*
X7927682Y-11218484D01*
X7927682Y-11218484D02*
X7908634Y-11218484D01*
X7908634Y-11218484D02*
X7889586Y-11208960D01*
X7889586Y-11208960D02*
X7880063Y-11199436D01*
X7880063Y-11199436D02*
X7870539Y-11180389D01*
X7870539Y-11180389D02*
X7861015Y-11142293D01*
X7861015Y-11142293D02*
X7861015Y-11094674D01*
X7861015Y-11094674D02*
X7870539Y-11056579D01*
X7870539Y-11056579D02*
X7880063Y-11037531D01*
X7880063Y-11037531D02*
X7889586Y-11028008D01*
X7889586Y-11028008D02*
X7908634Y-11018484D01*
X8061015Y-11199436D02*
X8070539Y-11208960D01*
X8070539Y-11208960D02*
X8061015Y-11218484D01*
X8061015Y-11218484D02*
X8051491Y-11208960D01*
X8051491Y-11208960D02*
X8061015Y-11199436D01*
X8061015Y-11199436D02*
X8061015Y-11218484D01*
X8194348Y-11018484D02*
X8213396Y-11018484D01*
X8213396Y-11018484D02*
X8232444Y-11028008D01*
X8232444Y-11028008D02*
X8241967Y-11037531D01*
X8241967Y-11037531D02*
X8251491Y-11056579D01*
X8251491Y-11056579D02*
X8261015Y-11094674D01*
X8261015Y-11094674D02*
X8261015Y-11142293D01*
X8261015Y-11142293D02*
X8251491Y-11180389D01*
X8251491Y-11180389D02*
X8241967Y-11199436D01*
X8241967Y-11199436D02*
X8232444Y-11208960D01*
X8232444Y-11208960D02*
X8213396Y-11218484D01*
X8213396Y-11218484D02*
X8194348Y-11218484D01*
X8194348Y-11218484D02*
X8175301Y-11208960D01*
X8175301Y-11208960D02*
X8165777Y-11199436D01*
X8165777Y-11199436D02*
X8156253Y-11180389D01*
X8156253Y-11180389D02*
X8146729Y-11142293D01*
X8146729Y-11142293D02*
X8146729Y-11094674D01*
X8146729Y-11094674D02*
X8156253Y-11056579D01*
X8156253Y-11056579D02*
X8165777Y-11037531D01*
X8165777Y-11037531D02*
X8175301Y-11028008D01*
X8175301Y-11028008D02*
X8194348Y-11018484D01*
X8337206Y-11037531D02*
X8346729Y-11028008D01*
X8346729Y-11028008D02*
X8365777Y-11018484D01*
X8365777Y-11018484D02*
X8413396Y-11018484D01*
X8413396Y-11018484D02*
X8432444Y-11028008D01*
X8432444Y-11028008D02*
X8441968Y-11037531D01*
X8441968Y-11037531D02*
X8451491Y-11056579D01*
X8451491Y-11056579D02*
X8451491Y-11075627D01*
X8451491Y-11075627D02*
X8441968Y-11104198D01*
X8441968Y-11104198D02*
X8327682Y-11218484D01*
X8327682Y-11218484D02*
X8451491Y-11218484D01*
X8546729Y-11218484D02*
X8584825Y-11218484D01*
X8584825Y-11218484D02*
X8603872Y-11208960D01*
X8603872Y-11208960D02*
X8613396Y-11199436D01*
X8613396Y-11199436D02*
X8632444Y-11170865D01*
X8632444Y-11170865D02*
X8641968Y-11132770D01*
X8641968Y-11132770D02*
X8641968Y-11056579D01*
X8641968Y-11056579D02*
X8632444Y-11037531D01*
X8632444Y-11037531D02*
X8622920Y-11028008D01*
X8622920Y-11028008D02*
X8603872Y-11018484D01*
X8603872Y-11018484D02*
X8565777Y-11018484D01*
X8565777Y-11018484D02*
X8546729Y-11028008D01*
X8546729Y-11028008D02*
X8537206Y-11037531D01*
X8537206Y-11037531D02*
X8527682Y-11056579D01*
X8527682Y-11056579D02*
X8527682Y-11104198D01*
X8527682Y-11104198D02*
X8537206Y-11123246D01*
X8537206Y-11123246D02*
X8546729Y-11132770D01*
X8546729Y-11132770D02*
X8565777Y-11142293D01*
X8565777Y-11142293D02*
X8603872Y-11142293D01*
X8603872Y-11142293D02*
X8622920Y-11132770D01*
X8622920Y-11132770D02*
X8632444Y-11123246D01*
X8632444Y-11123246D02*
X8641968Y-11104198D01*
X8765777Y-11018484D02*
X8784825Y-11018484D01*
X8784825Y-11018484D02*
X8803872Y-11028008D01*
X8803872Y-11028008D02*
X8813396Y-11037531D01*
X8813396Y-11037531D02*
X8822920Y-11056579D01*
X8822920Y-11056579D02*
X8832444Y-11094674D01*
X8832444Y-11094674D02*
X8832444Y-11142293D01*
X8832444Y-11142293D02*
X8822920Y-11180389D01*
X8822920Y-11180389D02*
X8813396Y-11199436D01*
X8813396Y-11199436D02*
X8803872Y-11208960D01*
X8803872Y-11208960D02*
X8784825Y-11218484D01*
X8784825Y-11218484D02*
X8765777Y-11218484D01*
X8765777Y-11218484D02*
X8746729Y-11208960D01*
X8746729Y-11208960D02*
X8737206Y-11199436D01*
X8737206Y-11199436D02*
X8727682Y-11180389D01*
X8727682Y-11180389D02*
X8718158Y-11142293D01*
X8718158Y-11142293D02*
X8718158Y-11094674D01*
X8718158Y-11094674D02*
X8727682Y-11056579D01*
X8727682Y-11056579D02*
X8737206Y-11037531D01*
X8737206Y-11037531D02*
X8746729Y-11028008D01*
X8746729Y-11028008D02*
X8765777Y-11018484D01*
X8908634Y-11018484D02*
X8908634Y-11056579D01*
X8984825Y-11018484D02*
X8984825Y-11056579D01*
X9280063Y-11294674D02*
X9270539Y-11285150D01*
X9270539Y-11285150D02*
X9251491Y-11256579D01*
X9251491Y-11256579D02*
X9241968Y-11237531D01*
X9241968Y-11237531D02*
X9232444Y-11208960D01*
X9232444Y-11208960D02*
X9222920Y-11161341D01*
X9222920Y-11161341D02*
X9222920Y-11123246D01*
X9222920Y-11123246D02*
X9232444Y-11075627D01*
X9232444Y-11075627D02*
X9241968Y-11047055D01*
X9241968Y-11047055D02*
X9251491Y-11028008D01*
X9251491Y-11028008D02*
X9270539Y-10999436D01*
X9270539Y-10999436D02*
X9280063Y-10989912D01*
X9441968Y-11085150D02*
X9441968Y-11218484D01*
X9394349Y-11008960D02*
X9346730Y-11151817D01*
X9346730Y-11151817D02*
X9470539Y-11151817D01*
X9699111Y-11218484D02*
X9699111Y-11018484D01*
X9784825Y-11218484D02*
X9784825Y-11113722D01*
X9784825Y-11113722D02*
X9775301Y-11094674D01*
X9775301Y-11094674D02*
X9756253Y-11085150D01*
X9756253Y-11085150D02*
X9727682Y-11085150D01*
X9727682Y-11085150D02*
X9708634Y-11094674D01*
X9708634Y-11094674D02*
X9699111Y-11104198D01*
X9908634Y-11218484D02*
X9889587Y-11208960D01*
X9889587Y-11208960D02*
X9880063Y-11199436D01*
X9880063Y-11199436D02*
X9870539Y-11180389D01*
X9870539Y-11180389D02*
X9870539Y-11123246D01*
X9870539Y-11123246D02*
X9880063Y-11104198D01*
X9880063Y-11104198D02*
X9889587Y-11094674D01*
X9889587Y-11094674D02*
X9908634Y-11085150D01*
X9908634Y-11085150D02*
X9937206Y-11085150D01*
X9937206Y-11085150D02*
X9956253Y-11094674D01*
X9956253Y-11094674D02*
X9965777Y-11104198D01*
X9965777Y-11104198D02*
X9975301Y-11123246D01*
X9975301Y-11123246D02*
X9975301Y-11180389D01*
X9975301Y-11180389D02*
X9965777Y-11199436D01*
X9965777Y-11199436D02*
X9956253Y-11208960D01*
X9956253Y-11208960D02*
X9937206Y-11218484D01*
X9937206Y-11218484D02*
X9908634Y-11218484D01*
X10089587Y-11218484D02*
X10070539Y-11208960D01*
X10070539Y-11208960D02*
X10061015Y-11189912D01*
X10061015Y-11189912D02*
X10061015Y-11018484D01*
X10241968Y-11208960D02*
X10222920Y-11218484D01*
X10222920Y-11218484D02*
X10184825Y-11218484D01*
X10184825Y-11218484D02*
X10165777Y-11208960D01*
X10165777Y-11208960D02*
X10156253Y-11189912D01*
X10156253Y-11189912D02*
X10156253Y-11113722D01*
X10156253Y-11113722D02*
X10165777Y-11094674D01*
X10165777Y-11094674D02*
X10184825Y-11085150D01*
X10184825Y-11085150D02*
X10222920Y-11085150D01*
X10222920Y-11085150D02*
X10241968Y-11094674D01*
X10241968Y-11094674D02*
X10251492Y-11113722D01*
X10251492Y-11113722D02*
X10251492Y-11132770D01*
X10251492Y-11132770D02*
X10156253Y-11151817D01*
X10327682Y-11208960D02*
X10346730Y-11218484D01*
X10346730Y-11218484D02*
X10384825Y-11218484D01*
X10384825Y-11218484D02*
X10403873Y-11208960D01*
X10403873Y-11208960D02*
X10413396Y-11189912D01*
X10413396Y-11189912D02*
X10413396Y-11180389D01*
X10413396Y-11180389D02*
X10403873Y-11161341D01*
X10403873Y-11161341D02*
X10384825Y-11151817D01*
X10384825Y-11151817D02*
X10356253Y-11151817D01*
X10356253Y-11151817D02*
X10337206Y-11142293D01*
X10337206Y-11142293D02*
X10327682Y-11123246D01*
X10327682Y-11123246D02*
X10327682Y-11113722D01*
X10327682Y-11113722D02*
X10337206Y-11094674D01*
X10337206Y-11094674D02*
X10356253Y-11085150D01*
X10356253Y-11085150D02*
X10384825Y-11085150D01*
X10384825Y-11085150D02*
X10403873Y-11094674D01*
X10480063Y-11294674D02*
X10489587Y-11285150D01*
X10489587Y-11285150D02*
X10508634Y-11256579D01*
X10508634Y-11256579D02*
X10518158Y-11237531D01*
X10518158Y-11237531D02*
X10527682Y-11208960D01*
X10527682Y-11208960D02*
X10537206Y-11161341D01*
X10537206Y-11161341D02*
X10537206Y-11123246D01*
X10537206Y-11123246D02*
X10527682Y-11075627D01*
X10527682Y-11075627D02*
X10518158Y-11047055D01*
X10518158Y-11047055D02*
X10508634Y-11028008D01*
X10508634Y-11028008D02*
X10489587Y-10999436D01*
X10489587Y-10999436D02*
X10480063Y-10989912D01*
D16*
X5665000Y-11431000D02*
X5705000Y-11391000D01*
X5665000Y-11351000D01*
X5625000Y-11391000D01*
X5665000Y-11431000D01*
D11*
X6003872Y-11282484D02*
X6022920Y-11282484D01*
X6022920Y-11282484D02*
X6041967Y-11292008D01*
X6041967Y-11292008D02*
X6051491Y-11301531D01*
X6051491Y-11301531D02*
X6061015Y-11320579D01*
X6061015Y-11320579D02*
X6070539Y-11358674D01*
X6070539Y-11358674D02*
X6070539Y-11406293D01*
X6070539Y-11406293D02*
X6061015Y-11444388D01*
X6061015Y-11444388D02*
X6051491Y-11463436D01*
X6051491Y-11463436D02*
X6041967Y-11472960D01*
X6041967Y-11472960D02*
X6022920Y-11482484D01*
X6022920Y-11482484D02*
X6003872Y-11482484D01*
X6003872Y-11482484D02*
X5984824Y-11472960D01*
X5984824Y-11472960D02*
X5975301Y-11463436D01*
X5975301Y-11463436D02*
X5965777Y-11444388D01*
X5965777Y-11444388D02*
X5956253Y-11406293D01*
X5956253Y-11406293D02*
X5956253Y-11358674D01*
X5956253Y-11358674D02*
X5965777Y-11320579D01*
X5965777Y-11320579D02*
X5975301Y-11301531D01*
X5975301Y-11301531D02*
X5984824Y-11292008D01*
X5984824Y-11292008D02*
X6003872Y-11282484D01*
X6156253Y-11463436D02*
X6165777Y-11472960D01*
X6165777Y-11472960D02*
X6156253Y-11482484D01*
X6156253Y-11482484D02*
X6146729Y-11472960D01*
X6146729Y-11472960D02*
X6156253Y-11463436D01*
X6156253Y-11463436D02*
X6156253Y-11482484D01*
X6280062Y-11368198D02*
X6261015Y-11358674D01*
X6261015Y-11358674D02*
X6251491Y-11349150D01*
X6251491Y-11349150D02*
X6241967Y-11330103D01*
X6241967Y-11330103D02*
X6241967Y-11320579D01*
X6241967Y-11320579D02*
X6251491Y-11301531D01*
X6251491Y-11301531D02*
X6261015Y-11292008D01*
X6261015Y-11292008D02*
X6280062Y-11282484D01*
X6280062Y-11282484D02*
X6318158Y-11282484D01*
X6318158Y-11282484D02*
X6337205Y-11292008D01*
X6337205Y-11292008D02*
X6346729Y-11301531D01*
X6346729Y-11301531D02*
X6356253Y-11320579D01*
X6356253Y-11320579D02*
X6356253Y-11330103D01*
X6356253Y-11330103D02*
X6346729Y-11349150D01*
X6346729Y-11349150D02*
X6337205Y-11358674D01*
X6337205Y-11358674D02*
X6318158Y-11368198D01*
X6318158Y-11368198D02*
X6280062Y-11368198D01*
X6280062Y-11368198D02*
X6261015Y-11377722D01*
X6261015Y-11377722D02*
X6251491Y-11387246D01*
X6251491Y-11387246D02*
X6241967Y-11406293D01*
X6241967Y-11406293D02*
X6241967Y-11444388D01*
X6241967Y-11444388D02*
X6251491Y-11463436D01*
X6251491Y-11463436D02*
X6261015Y-11472960D01*
X6261015Y-11472960D02*
X6280062Y-11482484D01*
X6280062Y-11482484D02*
X6318158Y-11482484D01*
X6318158Y-11482484D02*
X6337205Y-11472960D01*
X6337205Y-11472960D02*
X6346729Y-11463436D01*
X6346729Y-11463436D02*
X6356253Y-11444388D01*
X6356253Y-11444388D02*
X6356253Y-11406293D01*
X6356253Y-11406293D02*
X6346729Y-11387246D01*
X6346729Y-11387246D02*
X6337205Y-11377722D01*
X6337205Y-11377722D02*
X6318158Y-11368198D01*
X6480062Y-11282484D02*
X6499110Y-11282484D01*
X6499110Y-11282484D02*
X6518158Y-11292008D01*
X6518158Y-11292008D02*
X6527682Y-11301531D01*
X6527682Y-11301531D02*
X6537205Y-11320579D01*
X6537205Y-11320579D02*
X6546729Y-11358674D01*
X6546729Y-11358674D02*
X6546729Y-11406293D01*
X6546729Y-11406293D02*
X6537205Y-11444388D01*
X6537205Y-11444388D02*
X6527682Y-11463436D01*
X6527682Y-11463436D02*
X6518158Y-11472960D01*
X6518158Y-11472960D02*
X6499110Y-11482484D01*
X6499110Y-11482484D02*
X6480062Y-11482484D01*
X6480062Y-11482484D02*
X6461015Y-11472960D01*
X6461015Y-11472960D02*
X6451491Y-11463436D01*
X6451491Y-11463436D02*
X6441967Y-11444388D01*
X6441967Y-11444388D02*
X6432443Y-11406293D01*
X6432443Y-11406293D02*
X6432443Y-11358674D01*
X6432443Y-11358674D02*
X6441967Y-11320579D01*
X6441967Y-11320579D02*
X6451491Y-11301531D01*
X6451491Y-11301531D02*
X6461015Y-11292008D01*
X6461015Y-11292008D02*
X6480062Y-11282484D01*
X6670539Y-11282484D02*
X6689586Y-11282484D01*
X6689586Y-11282484D02*
X6708634Y-11292008D01*
X6708634Y-11292008D02*
X6718158Y-11301531D01*
X6718158Y-11301531D02*
X6727682Y-11320579D01*
X6727682Y-11320579D02*
X6737205Y-11358674D01*
X6737205Y-11358674D02*
X6737205Y-11406293D01*
X6737205Y-11406293D02*
X6727682Y-11444388D01*
X6727682Y-11444388D02*
X6718158Y-11463436D01*
X6718158Y-11463436D02*
X6708634Y-11472960D01*
X6708634Y-11472960D02*
X6689586Y-11482484D01*
X6689586Y-11482484D02*
X6670539Y-11482484D01*
X6670539Y-11482484D02*
X6651491Y-11472960D01*
X6651491Y-11472960D02*
X6641967Y-11463436D01*
X6641967Y-11463436D02*
X6632443Y-11444388D01*
X6632443Y-11444388D02*
X6622920Y-11406293D01*
X6622920Y-11406293D02*
X6622920Y-11358674D01*
X6622920Y-11358674D02*
X6632443Y-11320579D01*
X6632443Y-11320579D02*
X6641967Y-11301531D01*
X6641967Y-11301531D02*
X6651491Y-11292008D01*
X6651491Y-11292008D02*
X6670539Y-11282484D01*
X6822920Y-11482484D02*
X6822920Y-11349150D01*
X6822920Y-11368198D02*
X6832443Y-11358674D01*
X6832443Y-11358674D02*
X6851491Y-11349150D01*
X6851491Y-11349150D02*
X6880063Y-11349150D01*
X6880063Y-11349150D02*
X6899110Y-11358674D01*
X6899110Y-11358674D02*
X6908634Y-11377722D01*
X6908634Y-11377722D02*
X6908634Y-11482484D01*
X6908634Y-11377722D02*
X6918158Y-11358674D01*
X6918158Y-11358674D02*
X6937205Y-11349150D01*
X6937205Y-11349150D02*
X6965777Y-11349150D01*
X6965777Y-11349150D02*
X6984824Y-11358674D01*
X6984824Y-11358674D02*
X6994348Y-11377722D01*
X6994348Y-11377722D02*
X6994348Y-11482484D01*
X7089586Y-11482484D02*
X7089586Y-11349150D01*
X7089586Y-11368198D02*
X7099110Y-11358674D01*
X7099110Y-11358674D02*
X7118158Y-11349150D01*
X7118158Y-11349150D02*
X7146729Y-11349150D01*
X7146729Y-11349150D02*
X7165777Y-11358674D01*
X7165777Y-11358674D02*
X7175301Y-11377722D01*
X7175301Y-11377722D02*
X7175301Y-11482484D01*
X7175301Y-11377722D02*
X7184824Y-11358674D01*
X7184824Y-11358674D02*
X7203872Y-11349150D01*
X7203872Y-11349150D02*
X7232443Y-11349150D01*
X7232443Y-11349150D02*
X7251491Y-11358674D01*
X7251491Y-11358674D02*
X7261015Y-11377722D01*
X7261015Y-11377722D02*
X7261015Y-11482484D01*
X7651491Y-11272960D02*
X7480063Y-11530103D01*
X7908634Y-11282484D02*
X7927682Y-11282484D01*
X7927682Y-11282484D02*
X7946729Y-11292008D01*
X7946729Y-11292008D02*
X7956253Y-11301531D01*
X7956253Y-11301531D02*
X7965777Y-11320579D01*
X7965777Y-11320579D02*
X7975301Y-11358674D01*
X7975301Y-11358674D02*
X7975301Y-11406293D01*
X7975301Y-11406293D02*
X7965777Y-11444388D01*
X7965777Y-11444388D02*
X7956253Y-11463436D01*
X7956253Y-11463436D02*
X7946729Y-11472960D01*
X7946729Y-11472960D02*
X7927682Y-11482484D01*
X7927682Y-11482484D02*
X7908634Y-11482484D01*
X7908634Y-11482484D02*
X7889586Y-11472960D01*
X7889586Y-11472960D02*
X7880063Y-11463436D01*
X7880063Y-11463436D02*
X7870539Y-11444388D01*
X7870539Y-11444388D02*
X7861015Y-11406293D01*
X7861015Y-11406293D02*
X7861015Y-11358674D01*
X7861015Y-11358674D02*
X7870539Y-11320579D01*
X7870539Y-11320579D02*
X7880063Y-11301531D01*
X7880063Y-11301531D02*
X7889586Y-11292008D01*
X7889586Y-11292008D02*
X7908634Y-11282484D01*
X8061015Y-11463436D02*
X8070539Y-11472960D01*
X8070539Y-11472960D02*
X8061015Y-11482484D01*
X8061015Y-11482484D02*
X8051491Y-11472960D01*
X8051491Y-11472960D02*
X8061015Y-11463436D01*
X8061015Y-11463436D02*
X8061015Y-11482484D01*
X8194348Y-11282484D02*
X8213396Y-11282484D01*
X8213396Y-11282484D02*
X8232444Y-11292008D01*
X8232444Y-11292008D02*
X8241967Y-11301531D01*
X8241967Y-11301531D02*
X8251491Y-11320579D01*
X8251491Y-11320579D02*
X8261015Y-11358674D01*
X8261015Y-11358674D02*
X8261015Y-11406293D01*
X8261015Y-11406293D02*
X8251491Y-11444388D01*
X8251491Y-11444388D02*
X8241967Y-11463436D01*
X8241967Y-11463436D02*
X8232444Y-11472960D01*
X8232444Y-11472960D02*
X8213396Y-11482484D01*
X8213396Y-11482484D02*
X8194348Y-11482484D01*
X8194348Y-11482484D02*
X8175301Y-11472960D01*
X8175301Y-11472960D02*
X8165777Y-11463436D01*
X8165777Y-11463436D02*
X8156253Y-11444388D01*
X8156253Y-11444388D02*
X8146729Y-11406293D01*
X8146729Y-11406293D02*
X8146729Y-11358674D01*
X8146729Y-11358674D02*
X8156253Y-11320579D01*
X8156253Y-11320579D02*
X8165777Y-11301531D01*
X8165777Y-11301531D02*
X8175301Y-11292008D01*
X8175301Y-11292008D02*
X8194348Y-11282484D01*
X8327682Y-11282484D02*
X8451491Y-11282484D01*
X8451491Y-11282484D02*
X8384825Y-11358674D01*
X8384825Y-11358674D02*
X8413396Y-11358674D01*
X8413396Y-11358674D02*
X8432444Y-11368198D01*
X8432444Y-11368198D02*
X8441968Y-11377722D01*
X8441968Y-11377722D02*
X8451491Y-11396769D01*
X8451491Y-11396769D02*
X8451491Y-11444388D01*
X8451491Y-11444388D02*
X8441968Y-11463436D01*
X8441968Y-11463436D02*
X8432444Y-11472960D01*
X8432444Y-11472960D02*
X8413396Y-11482484D01*
X8413396Y-11482484D02*
X8356253Y-11482484D01*
X8356253Y-11482484D02*
X8337206Y-11472960D01*
X8337206Y-11472960D02*
X8327682Y-11463436D01*
X8641968Y-11482484D02*
X8527682Y-11482484D01*
X8584825Y-11482484D02*
X8584825Y-11282484D01*
X8584825Y-11282484D02*
X8565777Y-11311055D01*
X8565777Y-11311055D02*
X8546729Y-11330103D01*
X8546729Y-11330103D02*
X8527682Y-11339627D01*
X8822920Y-11282484D02*
X8727682Y-11282484D01*
X8727682Y-11282484D02*
X8718158Y-11377722D01*
X8718158Y-11377722D02*
X8727682Y-11368198D01*
X8727682Y-11368198D02*
X8746729Y-11358674D01*
X8746729Y-11358674D02*
X8794349Y-11358674D01*
X8794349Y-11358674D02*
X8813396Y-11368198D01*
X8813396Y-11368198D02*
X8822920Y-11377722D01*
X8822920Y-11377722D02*
X8832444Y-11396769D01*
X8832444Y-11396769D02*
X8832444Y-11444388D01*
X8832444Y-11444388D02*
X8822920Y-11463436D01*
X8822920Y-11463436D02*
X8813396Y-11472960D01*
X8813396Y-11472960D02*
X8794349Y-11482484D01*
X8794349Y-11482484D02*
X8746729Y-11482484D01*
X8746729Y-11482484D02*
X8727682Y-11472960D01*
X8727682Y-11472960D02*
X8718158Y-11463436D01*
X8908634Y-11282484D02*
X8908634Y-11320579D01*
X8984825Y-11282484D02*
X8984825Y-11320579D01*
X9280063Y-11558674D02*
X9270539Y-11549150D01*
X9270539Y-11549150D02*
X9251491Y-11520579D01*
X9251491Y-11520579D02*
X9241968Y-11501531D01*
X9241968Y-11501531D02*
X9232444Y-11472960D01*
X9232444Y-11472960D02*
X9222920Y-11425341D01*
X9222920Y-11425341D02*
X9222920Y-11387246D01*
X9222920Y-11387246D02*
X9232444Y-11339627D01*
X9232444Y-11339627D02*
X9241968Y-11311055D01*
X9241968Y-11311055D02*
X9251491Y-11292008D01*
X9251491Y-11292008D02*
X9270539Y-11263436D01*
X9270539Y-11263436D02*
X9280063Y-11253912D01*
X9337206Y-11282484D02*
X9461015Y-11282484D01*
X9461015Y-11282484D02*
X9394349Y-11358674D01*
X9394349Y-11358674D02*
X9422920Y-11358674D01*
X9422920Y-11358674D02*
X9441968Y-11368198D01*
X9441968Y-11368198D02*
X9451491Y-11377722D01*
X9451491Y-11377722D02*
X9461015Y-11396769D01*
X9461015Y-11396769D02*
X9461015Y-11444388D01*
X9461015Y-11444388D02*
X9451491Y-11463436D01*
X9451491Y-11463436D02*
X9441968Y-11472960D01*
X9441968Y-11472960D02*
X9422920Y-11482484D01*
X9422920Y-11482484D02*
X9365777Y-11482484D01*
X9365777Y-11482484D02*
X9346730Y-11472960D01*
X9346730Y-11472960D02*
X9337206Y-11463436D01*
X9699111Y-11482484D02*
X9699111Y-11282484D01*
X9784825Y-11482484D02*
X9784825Y-11377722D01*
X9784825Y-11377722D02*
X9775301Y-11358674D01*
X9775301Y-11358674D02*
X9756253Y-11349150D01*
X9756253Y-11349150D02*
X9727682Y-11349150D01*
X9727682Y-11349150D02*
X9708634Y-11358674D01*
X9708634Y-11358674D02*
X9699111Y-11368198D01*
X9908634Y-11482484D02*
X9889587Y-11472960D01*
X9889587Y-11472960D02*
X9880063Y-11463436D01*
X9880063Y-11463436D02*
X9870539Y-11444388D01*
X9870539Y-11444388D02*
X9870539Y-11387246D01*
X9870539Y-11387246D02*
X9880063Y-11368198D01*
X9880063Y-11368198D02*
X9889587Y-11358674D01*
X9889587Y-11358674D02*
X9908634Y-11349150D01*
X9908634Y-11349150D02*
X9937206Y-11349150D01*
X9937206Y-11349150D02*
X9956253Y-11358674D01*
X9956253Y-11358674D02*
X9965777Y-11368198D01*
X9965777Y-11368198D02*
X9975301Y-11387246D01*
X9975301Y-11387246D02*
X9975301Y-11444388D01*
X9975301Y-11444388D02*
X9965777Y-11463436D01*
X9965777Y-11463436D02*
X9956253Y-11472960D01*
X9956253Y-11472960D02*
X9937206Y-11482484D01*
X9937206Y-11482484D02*
X9908634Y-11482484D01*
X10089587Y-11482484D02*
X10070539Y-11472960D01*
X10070539Y-11472960D02*
X10061015Y-11453912D01*
X10061015Y-11453912D02*
X10061015Y-11282484D01*
X10241968Y-11472960D02*
X10222920Y-11482484D01*
X10222920Y-11482484D02*
X10184825Y-11482484D01*
X10184825Y-11482484D02*
X10165777Y-11472960D01*
X10165777Y-11472960D02*
X10156253Y-11453912D01*
X10156253Y-11453912D02*
X10156253Y-11377722D01*
X10156253Y-11377722D02*
X10165777Y-11358674D01*
X10165777Y-11358674D02*
X10184825Y-11349150D01*
X10184825Y-11349150D02*
X10222920Y-11349150D01*
X10222920Y-11349150D02*
X10241968Y-11358674D01*
X10241968Y-11358674D02*
X10251492Y-11377722D01*
X10251492Y-11377722D02*
X10251492Y-11396769D01*
X10251492Y-11396769D02*
X10156253Y-11415817D01*
X10327682Y-11472960D02*
X10346730Y-11482484D01*
X10346730Y-11482484D02*
X10384825Y-11482484D01*
X10384825Y-11482484D02*
X10403873Y-11472960D01*
X10403873Y-11472960D02*
X10413396Y-11453912D01*
X10413396Y-11453912D02*
X10413396Y-11444388D01*
X10413396Y-11444388D02*
X10403873Y-11425341D01*
X10403873Y-11425341D02*
X10384825Y-11415817D01*
X10384825Y-11415817D02*
X10356253Y-11415817D01*
X10356253Y-11415817D02*
X10337206Y-11406293D01*
X10337206Y-11406293D02*
X10327682Y-11387246D01*
X10327682Y-11387246D02*
X10327682Y-11377722D01*
X10327682Y-11377722D02*
X10337206Y-11358674D01*
X10337206Y-11358674D02*
X10356253Y-11349150D01*
X10356253Y-11349150D02*
X10384825Y-11349150D01*
X10384825Y-11349150D02*
X10403873Y-11358674D01*
X10480063Y-11558674D02*
X10489587Y-11549150D01*
X10489587Y-11549150D02*
X10508634Y-11520579D01*
X10508634Y-11520579D02*
X10518158Y-11501531D01*
X10518158Y-11501531D02*
X10527682Y-11472960D01*
X10527682Y-11472960D02*
X10537206Y-11425341D01*
X10537206Y-11425341D02*
X10537206Y-11387246D01*
X10537206Y-11387246D02*
X10527682Y-11339627D01*
X10527682Y-11339627D02*
X10518158Y-11311055D01*
X10518158Y-11311055D02*
X10508634Y-11292008D01*
X10508634Y-11292008D02*
X10489587Y-11263436D01*
X10489587Y-11263436D02*
X10480063Y-11253912D01*
D10*
X5605000Y-11605000D02*
X5705000Y-11705000D01*
X5705000Y-11605000D02*
X5605000Y-11705000D01*
X5705000Y-11655000D02*
G75*
G03*
X5705000Y-11655000I-50000J0D01*
G01*
D11*
X6070539Y-11746484D02*
X5956253Y-11746484D01*
X6013396Y-11746484D02*
X6013396Y-11546484D01*
X6013396Y-11546484D02*
X5994348Y-11575055D01*
X5994348Y-11575055D02*
X5975301Y-11594103D01*
X5975301Y-11594103D02*
X5956253Y-11603627D01*
X6156253Y-11727436D02*
X6165777Y-11736960D01*
X6165777Y-11736960D02*
X6156253Y-11746484D01*
X6156253Y-11746484D02*
X6146729Y-11736960D01*
X6146729Y-11736960D02*
X6156253Y-11727436D01*
X6156253Y-11727436D02*
X6156253Y-11746484D01*
X6289586Y-11546484D02*
X6308634Y-11546484D01*
X6308634Y-11546484D02*
X6327682Y-11556008D01*
X6327682Y-11556008D02*
X6337205Y-11565531D01*
X6337205Y-11565531D02*
X6346729Y-11584579D01*
X6346729Y-11584579D02*
X6356253Y-11622674D01*
X6356253Y-11622674D02*
X6356253Y-11670293D01*
X6356253Y-11670293D02*
X6346729Y-11708388D01*
X6346729Y-11708388D02*
X6337205Y-11727436D01*
X6337205Y-11727436D02*
X6327682Y-11736960D01*
X6327682Y-11736960D02*
X6308634Y-11746484D01*
X6308634Y-11746484D02*
X6289586Y-11746484D01*
X6289586Y-11746484D02*
X6270539Y-11736960D01*
X6270539Y-11736960D02*
X6261015Y-11727436D01*
X6261015Y-11727436D02*
X6251491Y-11708388D01*
X6251491Y-11708388D02*
X6241967Y-11670293D01*
X6241967Y-11670293D02*
X6241967Y-11622674D01*
X6241967Y-11622674D02*
X6251491Y-11584579D01*
X6251491Y-11584579D02*
X6261015Y-11565531D01*
X6261015Y-11565531D02*
X6270539Y-11556008D01*
X6270539Y-11556008D02*
X6289586Y-11546484D01*
X6480062Y-11546484D02*
X6499110Y-11546484D01*
X6499110Y-11546484D02*
X6518158Y-11556008D01*
X6518158Y-11556008D02*
X6527682Y-11565531D01*
X6527682Y-11565531D02*
X6537205Y-11584579D01*
X6537205Y-11584579D02*
X6546729Y-11622674D01*
X6546729Y-11622674D02*
X6546729Y-11670293D01*
X6546729Y-11670293D02*
X6537205Y-11708388D01*
X6537205Y-11708388D02*
X6527682Y-11727436D01*
X6527682Y-11727436D02*
X6518158Y-11736960D01*
X6518158Y-11736960D02*
X6499110Y-11746484D01*
X6499110Y-11746484D02*
X6480062Y-11746484D01*
X6480062Y-11746484D02*
X6461015Y-11736960D01*
X6461015Y-11736960D02*
X6451491Y-11727436D01*
X6451491Y-11727436D02*
X6441967Y-11708388D01*
X6441967Y-11708388D02*
X6432443Y-11670293D01*
X6432443Y-11670293D02*
X6432443Y-11622674D01*
X6432443Y-11622674D02*
X6441967Y-11584579D01*
X6441967Y-11584579D02*
X6451491Y-11565531D01*
X6451491Y-11565531D02*
X6461015Y-11556008D01*
X6461015Y-11556008D02*
X6480062Y-11546484D01*
X6670539Y-11546484D02*
X6689586Y-11546484D01*
X6689586Y-11546484D02*
X6708634Y-11556008D01*
X6708634Y-11556008D02*
X6718158Y-11565531D01*
X6718158Y-11565531D02*
X6727682Y-11584579D01*
X6727682Y-11584579D02*
X6737205Y-11622674D01*
X6737205Y-11622674D02*
X6737205Y-11670293D01*
X6737205Y-11670293D02*
X6727682Y-11708388D01*
X6727682Y-11708388D02*
X6718158Y-11727436D01*
X6718158Y-11727436D02*
X6708634Y-11736960D01*
X6708634Y-11736960D02*
X6689586Y-11746484D01*
X6689586Y-11746484D02*
X6670539Y-11746484D01*
X6670539Y-11746484D02*
X6651491Y-11736960D01*
X6651491Y-11736960D02*
X6641967Y-11727436D01*
X6641967Y-11727436D02*
X6632443Y-11708388D01*
X6632443Y-11708388D02*
X6622920Y-11670293D01*
X6622920Y-11670293D02*
X6622920Y-11622674D01*
X6622920Y-11622674D02*
X6632443Y-11584579D01*
X6632443Y-11584579D02*
X6641967Y-11565531D01*
X6641967Y-11565531D02*
X6651491Y-11556008D01*
X6651491Y-11556008D02*
X6670539Y-11546484D01*
X6822920Y-11746484D02*
X6822920Y-11613150D01*
X6822920Y-11632198D02*
X6832443Y-11622674D01*
X6832443Y-11622674D02*
X6851491Y-11613150D01*
X6851491Y-11613150D02*
X6880063Y-11613150D01*
X6880063Y-11613150D02*
X6899110Y-11622674D01*
X6899110Y-11622674D02*
X6908634Y-11641722D01*
X6908634Y-11641722D02*
X6908634Y-11746484D01*
X6908634Y-11641722D02*
X6918158Y-11622674D01*
X6918158Y-11622674D02*
X6937205Y-11613150D01*
X6937205Y-11613150D02*
X6965777Y-11613150D01*
X6965777Y-11613150D02*
X6984824Y-11622674D01*
X6984824Y-11622674D02*
X6994348Y-11641722D01*
X6994348Y-11641722D02*
X6994348Y-11746484D01*
X7089586Y-11746484D02*
X7089586Y-11613150D01*
X7089586Y-11632198D02*
X7099110Y-11622674D01*
X7099110Y-11622674D02*
X7118158Y-11613150D01*
X7118158Y-11613150D02*
X7146729Y-11613150D01*
X7146729Y-11613150D02*
X7165777Y-11622674D01*
X7165777Y-11622674D02*
X7175301Y-11641722D01*
X7175301Y-11641722D02*
X7175301Y-11746484D01*
X7175301Y-11641722D02*
X7184824Y-11622674D01*
X7184824Y-11622674D02*
X7203872Y-11613150D01*
X7203872Y-11613150D02*
X7232443Y-11613150D01*
X7232443Y-11613150D02*
X7251491Y-11622674D01*
X7251491Y-11622674D02*
X7261015Y-11641722D01*
X7261015Y-11641722D02*
X7261015Y-11746484D01*
X7651491Y-11536960D02*
X7480063Y-11794103D01*
X7908634Y-11546484D02*
X7927682Y-11546484D01*
X7927682Y-11546484D02*
X7946729Y-11556008D01*
X7946729Y-11556008D02*
X7956253Y-11565531D01*
X7956253Y-11565531D02*
X7965777Y-11584579D01*
X7965777Y-11584579D02*
X7975301Y-11622674D01*
X7975301Y-11622674D02*
X7975301Y-11670293D01*
X7975301Y-11670293D02*
X7965777Y-11708388D01*
X7965777Y-11708388D02*
X7956253Y-11727436D01*
X7956253Y-11727436D02*
X7946729Y-11736960D01*
X7946729Y-11736960D02*
X7927682Y-11746484D01*
X7927682Y-11746484D02*
X7908634Y-11746484D01*
X7908634Y-11746484D02*
X7889586Y-11736960D01*
X7889586Y-11736960D02*
X7880063Y-11727436D01*
X7880063Y-11727436D02*
X7870539Y-11708388D01*
X7870539Y-11708388D02*
X7861015Y-11670293D01*
X7861015Y-11670293D02*
X7861015Y-11622674D01*
X7861015Y-11622674D02*
X7870539Y-11584579D01*
X7870539Y-11584579D02*
X7880063Y-11565531D01*
X7880063Y-11565531D02*
X7889586Y-11556008D01*
X7889586Y-11556008D02*
X7908634Y-11546484D01*
X8061015Y-11727436D02*
X8070539Y-11736960D01*
X8070539Y-11736960D02*
X8061015Y-11746484D01*
X8061015Y-11746484D02*
X8051491Y-11736960D01*
X8051491Y-11736960D02*
X8061015Y-11727436D01*
X8061015Y-11727436D02*
X8061015Y-11746484D01*
X8194348Y-11546484D02*
X8213396Y-11546484D01*
X8213396Y-11546484D02*
X8232444Y-11556008D01*
X8232444Y-11556008D02*
X8241967Y-11565531D01*
X8241967Y-11565531D02*
X8251491Y-11584579D01*
X8251491Y-11584579D02*
X8261015Y-11622674D01*
X8261015Y-11622674D02*
X8261015Y-11670293D01*
X8261015Y-11670293D02*
X8251491Y-11708388D01*
X8251491Y-11708388D02*
X8241967Y-11727436D01*
X8241967Y-11727436D02*
X8232444Y-11736960D01*
X8232444Y-11736960D02*
X8213396Y-11746484D01*
X8213396Y-11746484D02*
X8194348Y-11746484D01*
X8194348Y-11746484D02*
X8175301Y-11736960D01*
X8175301Y-11736960D02*
X8165777Y-11727436D01*
X8165777Y-11727436D02*
X8156253Y-11708388D01*
X8156253Y-11708388D02*
X8146729Y-11670293D01*
X8146729Y-11670293D02*
X8146729Y-11622674D01*
X8146729Y-11622674D02*
X8156253Y-11584579D01*
X8156253Y-11584579D02*
X8165777Y-11565531D01*
X8165777Y-11565531D02*
X8175301Y-11556008D01*
X8175301Y-11556008D02*
X8194348Y-11546484D01*
X8327682Y-11546484D02*
X8451491Y-11546484D01*
X8451491Y-11546484D02*
X8384825Y-11622674D01*
X8384825Y-11622674D02*
X8413396Y-11622674D01*
X8413396Y-11622674D02*
X8432444Y-11632198D01*
X8432444Y-11632198D02*
X8441968Y-11641722D01*
X8441968Y-11641722D02*
X8451491Y-11660769D01*
X8451491Y-11660769D02*
X8451491Y-11708388D01*
X8451491Y-11708388D02*
X8441968Y-11727436D01*
X8441968Y-11727436D02*
X8432444Y-11736960D01*
X8432444Y-11736960D02*
X8413396Y-11746484D01*
X8413396Y-11746484D02*
X8356253Y-11746484D01*
X8356253Y-11746484D02*
X8337206Y-11736960D01*
X8337206Y-11736960D02*
X8327682Y-11727436D01*
X8546729Y-11746484D02*
X8584825Y-11746484D01*
X8584825Y-11746484D02*
X8603872Y-11736960D01*
X8603872Y-11736960D02*
X8613396Y-11727436D01*
X8613396Y-11727436D02*
X8632444Y-11698865D01*
X8632444Y-11698865D02*
X8641968Y-11660769D01*
X8641968Y-11660769D02*
X8641968Y-11584579D01*
X8641968Y-11584579D02*
X8632444Y-11565531D01*
X8632444Y-11565531D02*
X8622920Y-11556008D01*
X8622920Y-11556008D02*
X8603872Y-11546484D01*
X8603872Y-11546484D02*
X8565777Y-11546484D01*
X8565777Y-11546484D02*
X8546729Y-11556008D01*
X8546729Y-11556008D02*
X8537206Y-11565531D01*
X8537206Y-11565531D02*
X8527682Y-11584579D01*
X8527682Y-11584579D02*
X8527682Y-11632198D01*
X8527682Y-11632198D02*
X8537206Y-11651246D01*
X8537206Y-11651246D02*
X8546729Y-11660769D01*
X8546729Y-11660769D02*
X8565777Y-11670293D01*
X8565777Y-11670293D02*
X8603872Y-11670293D01*
X8603872Y-11670293D02*
X8622920Y-11660769D01*
X8622920Y-11660769D02*
X8632444Y-11651246D01*
X8632444Y-11651246D02*
X8641968Y-11632198D01*
X8813396Y-11613150D02*
X8813396Y-11746484D01*
X8765777Y-11536960D02*
X8718158Y-11679817D01*
X8718158Y-11679817D02*
X8841968Y-11679817D01*
X8908634Y-11546484D02*
X8908634Y-11584579D01*
X8984825Y-11546484D02*
X8984825Y-11584579D01*
X9280063Y-11822674D02*
X9270539Y-11813150D01*
X9270539Y-11813150D02*
X9251491Y-11784579D01*
X9251491Y-11784579D02*
X9241968Y-11765531D01*
X9241968Y-11765531D02*
X9232444Y-11736960D01*
X9232444Y-11736960D02*
X9222920Y-11689341D01*
X9222920Y-11689341D02*
X9222920Y-11651246D01*
X9222920Y-11651246D02*
X9232444Y-11603627D01*
X9232444Y-11603627D02*
X9241968Y-11575055D01*
X9241968Y-11575055D02*
X9251491Y-11556008D01*
X9251491Y-11556008D02*
X9270539Y-11527436D01*
X9270539Y-11527436D02*
X9280063Y-11517912D01*
X9346730Y-11565531D02*
X9356253Y-11556008D01*
X9356253Y-11556008D02*
X9375301Y-11546484D01*
X9375301Y-11546484D02*
X9422920Y-11546484D01*
X9422920Y-11546484D02*
X9441968Y-11556008D01*
X9441968Y-11556008D02*
X9451491Y-11565531D01*
X9451491Y-11565531D02*
X9461015Y-11584579D01*
X9461015Y-11584579D02*
X9461015Y-11603627D01*
X9461015Y-11603627D02*
X9451491Y-11632198D01*
X9451491Y-11632198D02*
X9337206Y-11746484D01*
X9337206Y-11746484D02*
X9461015Y-11746484D01*
X9651491Y-11746484D02*
X9537206Y-11746484D01*
X9594349Y-11746484D02*
X9594349Y-11546484D01*
X9594349Y-11546484D02*
X9575301Y-11575055D01*
X9575301Y-11575055D02*
X9556253Y-11594103D01*
X9556253Y-11594103D02*
X9537206Y-11603627D01*
X9889587Y-11746484D02*
X9889587Y-11546484D01*
X9975301Y-11746484D02*
X9975301Y-11641722D01*
X9975301Y-11641722D02*
X9965777Y-11622674D01*
X9965777Y-11622674D02*
X9946730Y-11613150D01*
X9946730Y-11613150D02*
X9918158Y-11613150D01*
X9918158Y-11613150D02*
X9899111Y-11622674D01*
X9899111Y-11622674D02*
X9889587Y-11632198D01*
X10099111Y-11746484D02*
X10080063Y-11736960D01*
X10080063Y-11736960D02*
X10070539Y-11727436D01*
X10070539Y-11727436D02*
X10061015Y-11708388D01*
X10061015Y-11708388D02*
X10061015Y-11651246D01*
X10061015Y-11651246D02*
X10070539Y-11632198D01*
X10070539Y-11632198D02*
X10080063Y-11622674D01*
X10080063Y-11622674D02*
X10099111Y-11613150D01*
X10099111Y-11613150D02*
X10127682Y-11613150D01*
X10127682Y-11613150D02*
X10146730Y-11622674D01*
X10146730Y-11622674D02*
X10156253Y-11632198D01*
X10156253Y-11632198D02*
X10165777Y-11651246D01*
X10165777Y-11651246D02*
X10165777Y-11708388D01*
X10165777Y-11708388D02*
X10156253Y-11727436D01*
X10156253Y-11727436D02*
X10146730Y-11736960D01*
X10146730Y-11736960D02*
X10127682Y-11746484D01*
X10127682Y-11746484D02*
X10099111Y-11746484D01*
X10280063Y-11746484D02*
X10261015Y-11736960D01*
X10261015Y-11736960D02*
X10251492Y-11717912D01*
X10251492Y-11717912D02*
X10251492Y-11546484D01*
X10432444Y-11736960D02*
X10413396Y-11746484D01*
X10413396Y-11746484D02*
X10375301Y-11746484D01*
X10375301Y-11746484D02*
X10356253Y-11736960D01*
X10356253Y-11736960D02*
X10346730Y-11717912D01*
X10346730Y-11717912D02*
X10346730Y-11641722D01*
X10346730Y-11641722D02*
X10356253Y-11622674D01*
X10356253Y-11622674D02*
X10375301Y-11613150D01*
X10375301Y-11613150D02*
X10413396Y-11613150D01*
X10413396Y-11613150D02*
X10432444Y-11622674D01*
X10432444Y-11622674D02*
X10441968Y-11641722D01*
X10441968Y-11641722D02*
X10441968Y-11660769D01*
X10441968Y-11660769D02*
X10346730Y-11679817D01*
X10518158Y-11736960D02*
X10537206Y-11746484D01*
X10537206Y-11746484D02*
X10575301Y-11746484D01*
X10575301Y-11746484D02*
X10594349Y-11736960D01*
X10594349Y-11736960D02*
X10603873Y-11717912D01*
X10603873Y-11717912D02*
X10603873Y-11708388D01*
X10603873Y-11708388D02*
X10594349Y-11689341D01*
X10594349Y-11689341D02*
X10575301Y-11679817D01*
X10575301Y-11679817D02*
X10546730Y-11679817D01*
X10546730Y-11679817D02*
X10527682Y-11670293D01*
X10527682Y-11670293D02*
X10518158Y-11651246D01*
X10518158Y-11651246D02*
X10518158Y-11641722D01*
X10518158Y-11641722D02*
X10527682Y-11622674D01*
X10527682Y-11622674D02*
X10546730Y-11613150D01*
X10546730Y-11613150D02*
X10575301Y-11613150D01*
X10575301Y-11613150D02*
X10594349Y-11622674D01*
X10670539Y-11822674D02*
X10680063Y-11813150D01*
X10680063Y-11813150D02*
X10699111Y-11784579D01*
X10699111Y-11784579D02*
X10708634Y-11765531D01*
X10708634Y-11765531D02*
X10718158Y-11736960D01*
X10718158Y-11736960D02*
X10727682Y-11689341D01*
X10727682Y-11689341D02*
X10727682Y-11651246D01*
X10727682Y-11651246D02*
X10718158Y-11603627D01*
X10718158Y-11603627D02*
X10708634Y-11575055D01*
X10708634Y-11575055D02*
X10699111Y-11556008D01*
X10699111Y-11556008D02*
X10680063Y-11527436D01*
X10680063Y-11527436D02*
X10670539Y-11517912D01*
D17*
X5600000Y-11866500D02*
X5705000Y-11971500D01*
X5705000Y-11866500D02*
X5600000Y-11971500D01*
X5652500Y-11866500D02*
X5652500Y-11971500D01*
X5600000Y-11919000D02*
X5705000Y-11919000D01*
D11*
X6070539Y-12010484D02*
X5956253Y-12010484D01*
X6013396Y-12010484D02*
X6013396Y-11810484D01*
X6013396Y-11810484D02*
X5994348Y-11839055D01*
X5994348Y-11839055D02*
X5975301Y-11858103D01*
X5975301Y-11858103D02*
X5956253Y-11867627D01*
X6156253Y-11991436D02*
X6165777Y-12000960D01*
X6165777Y-12000960D02*
X6156253Y-12010484D01*
X6156253Y-12010484D02*
X6146729Y-12000960D01*
X6146729Y-12000960D02*
X6156253Y-11991436D01*
X6156253Y-11991436D02*
X6156253Y-12010484D01*
X6289586Y-11810484D02*
X6308634Y-11810484D01*
X6308634Y-11810484D02*
X6327682Y-11820008D01*
X6327682Y-11820008D02*
X6337205Y-11829531D01*
X6337205Y-11829531D02*
X6346729Y-11848579D01*
X6346729Y-11848579D02*
X6356253Y-11886674D01*
X6356253Y-11886674D02*
X6356253Y-11934293D01*
X6356253Y-11934293D02*
X6346729Y-11972388D01*
X6346729Y-11972388D02*
X6337205Y-11991436D01*
X6337205Y-11991436D02*
X6327682Y-12000960D01*
X6327682Y-12000960D02*
X6308634Y-12010484D01*
X6308634Y-12010484D02*
X6289586Y-12010484D01*
X6289586Y-12010484D02*
X6270539Y-12000960D01*
X6270539Y-12000960D02*
X6261015Y-11991436D01*
X6261015Y-11991436D02*
X6251491Y-11972388D01*
X6251491Y-11972388D02*
X6241967Y-11934293D01*
X6241967Y-11934293D02*
X6241967Y-11886674D01*
X6241967Y-11886674D02*
X6251491Y-11848579D01*
X6251491Y-11848579D02*
X6261015Y-11829531D01*
X6261015Y-11829531D02*
X6270539Y-11820008D01*
X6270539Y-11820008D02*
X6289586Y-11810484D01*
X6537205Y-11810484D02*
X6441967Y-11810484D01*
X6441967Y-11810484D02*
X6432443Y-11905722D01*
X6432443Y-11905722D02*
X6441967Y-11896198D01*
X6441967Y-11896198D02*
X6461015Y-11886674D01*
X6461015Y-11886674D02*
X6508634Y-11886674D01*
X6508634Y-11886674D02*
X6527682Y-11896198D01*
X6527682Y-11896198D02*
X6537205Y-11905722D01*
X6537205Y-11905722D02*
X6546729Y-11924769D01*
X6546729Y-11924769D02*
X6546729Y-11972388D01*
X6546729Y-11972388D02*
X6537205Y-11991436D01*
X6537205Y-11991436D02*
X6527682Y-12000960D01*
X6527682Y-12000960D02*
X6508634Y-12010484D01*
X6508634Y-12010484D02*
X6461015Y-12010484D01*
X6461015Y-12010484D02*
X6441967Y-12000960D01*
X6441967Y-12000960D02*
X6432443Y-11991436D01*
X6670539Y-11810484D02*
X6689586Y-11810484D01*
X6689586Y-11810484D02*
X6708634Y-11820008D01*
X6708634Y-11820008D02*
X6718158Y-11829531D01*
X6718158Y-11829531D02*
X6727682Y-11848579D01*
X6727682Y-11848579D02*
X6737205Y-11886674D01*
X6737205Y-11886674D02*
X6737205Y-11934293D01*
X6737205Y-11934293D02*
X6727682Y-11972388D01*
X6727682Y-11972388D02*
X6718158Y-11991436D01*
X6718158Y-11991436D02*
X6708634Y-12000960D01*
X6708634Y-12000960D02*
X6689586Y-12010484D01*
X6689586Y-12010484D02*
X6670539Y-12010484D01*
X6670539Y-12010484D02*
X6651491Y-12000960D01*
X6651491Y-12000960D02*
X6641967Y-11991436D01*
X6641967Y-11991436D02*
X6632443Y-11972388D01*
X6632443Y-11972388D02*
X6622920Y-11934293D01*
X6622920Y-11934293D02*
X6622920Y-11886674D01*
X6622920Y-11886674D02*
X6632443Y-11848579D01*
X6632443Y-11848579D02*
X6641967Y-11829531D01*
X6641967Y-11829531D02*
X6651491Y-11820008D01*
X6651491Y-11820008D02*
X6670539Y-11810484D01*
X6822920Y-12010484D02*
X6822920Y-11877150D01*
X6822920Y-11896198D02*
X6832443Y-11886674D01*
X6832443Y-11886674D02*
X6851491Y-11877150D01*
X6851491Y-11877150D02*
X6880063Y-11877150D01*
X6880063Y-11877150D02*
X6899110Y-11886674D01*
X6899110Y-11886674D02*
X6908634Y-11905722D01*
X6908634Y-11905722D02*
X6908634Y-12010484D01*
X6908634Y-11905722D02*
X6918158Y-11886674D01*
X6918158Y-11886674D02*
X6937205Y-11877150D01*
X6937205Y-11877150D02*
X6965777Y-11877150D01*
X6965777Y-11877150D02*
X6984824Y-11886674D01*
X6984824Y-11886674D02*
X6994348Y-11905722D01*
X6994348Y-11905722D02*
X6994348Y-12010484D01*
X7089586Y-12010484D02*
X7089586Y-11877150D01*
X7089586Y-11896198D02*
X7099110Y-11886674D01*
X7099110Y-11886674D02*
X7118158Y-11877150D01*
X7118158Y-11877150D02*
X7146729Y-11877150D01*
X7146729Y-11877150D02*
X7165777Y-11886674D01*
X7165777Y-11886674D02*
X7175301Y-11905722D01*
X7175301Y-11905722D02*
X7175301Y-12010484D01*
X7175301Y-11905722D02*
X7184824Y-11886674D01*
X7184824Y-11886674D02*
X7203872Y-11877150D01*
X7203872Y-11877150D02*
X7232443Y-11877150D01*
X7232443Y-11877150D02*
X7251491Y-11886674D01*
X7251491Y-11886674D02*
X7261015Y-11905722D01*
X7261015Y-11905722D02*
X7261015Y-12010484D01*
X7651491Y-11800960D02*
X7480063Y-12058103D01*
X7908634Y-11810484D02*
X7927682Y-11810484D01*
X7927682Y-11810484D02*
X7946729Y-11820008D01*
X7946729Y-11820008D02*
X7956253Y-11829531D01*
X7956253Y-11829531D02*
X7965777Y-11848579D01*
X7965777Y-11848579D02*
X7975301Y-11886674D01*
X7975301Y-11886674D02*
X7975301Y-11934293D01*
X7975301Y-11934293D02*
X7965777Y-11972388D01*
X7965777Y-11972388D02*
X7956253Y-11991436D01*
X7956253Y-11991436D02*
X7946729Y-12000960D01*
X7946729Y-12000960D02*
X7927682Y-12010484D01*
X7927682Y-12010484D02*
X7908634Y-12010484D01*
X7908634Y-12010484D02*
X7889586Y-12000960D01*
X7889586Y-12000960D02*
X7880063Y-11991436D01*
X7880063Y-11991436D02*
X7870539Y-11972388D01*
X7870539Y-11972388D02*
X7861015Y-11934293D01*
X7861015Y-11934293D02*
X7861015Y-11886674D01*
X7861015Y-11886674D02*
X7870539Y-11848579D01*
X7870539Y-11848579D02*
X7880063Y-11829531D01*
X7880063Y-11829531D02*
X7889586Y-11820008D01*
X7889586Y-11820008D02*
X7908634Y-11810484D01*
X8061015Y-11991436D02*
X8070539Y-12000960D01*
X8070539Y-12000960D02*
X8061015Y-12010484D01*
X8061015Y-12010484D02*
X8051491Y-12000960D01*
X8051491Y-12000960D02*
X8061015Y-11991436D01*
X8061015Y-11991436D02*
X8061015Y-12010484D01*
X8194348Y-11810484D02*
X8213396Y-11810484D01*
X8213396Y-11810484D02*
X8232444Y-11820008D01*
X8232444Y-11820008D02*
X8241967Y-11829531D01*
X8241967Y-11829531D02*
X8251491Y-11848579D01*
X8251491Y-11848579D02*
X8261015Y-11886674D01*
X8261015Y-11886674D02*
X8261015Y-11934293D01*
X8261015Y-11934293D02*
X8251491Y-11972388D01*
X8251491Y-11972388D02*
X8241967Y-11991436D01*
X8241967Y-11991436D02*
X8232444Y-12000960D01*
X8232444Y-12000960D02*
X8213396Y-12010484D01*
X8213396Y-12010484D02*
X8194348Y-12010484D01*
X8194348Y-12010484D02*
X8175301Y-12000960D01*
X8175301Y-12000960D02*
X8165777Y-11991436D01*
X8165777Y-11991436D02*
X8156253Y-11972388D01*
X8156253Y-11972388D02*
X8146729Y-11934293D01*
X8146729Y-11934293D02*
X8146729Y-11886674D01*
X8146729Y-11886674D02*
X8156253Y-11848579D01*
X8156253Y-11848579D02*
X8165777Y-11829531D01*
X8165777Y-11829531D02*
X8175301Y-11820008D01*
X8175301Y-11820008D02*
X8194348Y-11810484D01*
X8432444Y-11877150D02*
X8432444Y-12010484D01*
X8384825Y-11800960D02*
X8337206Y-11943817D01*
X8337206Y-11943817D02*
X8461015Y-11943817D01*
X8641968Y-12010484D02*
X8527682Y-12010484D01*
X8584825Y-12010484D02*
X8584825Y-11810484D01*
X8584825Y-11810484D02*
X8565777Y-11839055D01*
X8565777Y-11839055D02*
X8546729Y-11858103D01*
X8546729Y-11858103D02*
X8527682Y-11867627D01*
X8708634Y-11810484D02*
X8832444Y-11810484D01*
X8832444Y-11810484D02*
X8765777Y-11886674D01*
X8765777Y-11886674D02*
X8794349Y-11886674D01*
X8794349Y-11886674D02*
X8813396Y-11896198D01*
X8813396Y-11896198D02*
X8822920Y-11905722D01*
X8822920Y-11905722D02*
X8832444Y-11924769D01*
X8832444Y-11924769D02*
X8832444Y-11972388D01*
X8832444Y-11972388D02*
X8822920Y-11991436D01*
X8822920Y-11991436D02*
X8813396Y-12000960D01*
X8813396Y-12000960D02*
X8794349Y-12010484D01*
X8794349Y-12010484D02*
X8737206Y-12010484D01*
X8737206Y-12010484D02*
X8718158Y-12000960D01*
X8718158Y-12000960D02*
X8708634Y-11991436D01*
X8908634Y-11810484D02*
X8908634Y-11848579D01*
X8984825Y-11810484D02*
X8984825Y-11848579D01*
X9280063Y-12086674D02*
X9270539Y-12077150D01*
X9270539Y-12077150D02*
X9251491Y-12048579D01*
X9251491Y-12048579D02*
X9241968Y-12029531D01*
X9241968Y-12029531D02*
X9232444Y-12000960D01*
X9232444Y-12000960D02*
X9222920Y-11953341D01*
X9222920Y-11953341D02*
X9222920Y-11915246D01*
X9222920Y-11915246D02*
X9232444Y-11867627D01*
X9232444Y-11867627D02*
X9241968Y-11839055D01*
X9241968Y-11839055D02*
X9251491Y-11820008D01*
X9251491Y-11820008D02*
X9270539Y-11791436D01*
X9270539Y-11791436D02*
X9280063Y-11781912D01*
X9346730Y-11829531D02*
X9356253Y-11820008D01*
X9356253Y-11820008D02*
X9375301Y-11810484D01*
X9375301Y-11810484D02*
X9422920Y-11810484D01*
X9422920Y-11810484D02*
X9441968Y-11820008D01*
X9441968Y-11820008D02*
X9451491Y-11829531D01*
X9451491Y-11829531D02*
X9461015Y-11848579D01*
X9461015Y-11848579D02*
X9461015Y-11867627D01*
X9461015Y-11867627D02*
X9451491Y-11896198D01*
X9451491Y-11896198D02*
X9337206Y-12010484D01*
X9337206Y-12010484D02*
X9461015Y-12010484D01*
X9699111Y-12010484D02*
X9699111Y-11810484D01*
X9784825Y-12010484D02*
X9784825Y-11905722D01*
X9784825Y-11905722D02*
X9775301Y-11886674D01*
X9775301Y-11886674D02*
X9756253Y-11877150D01*
X9756253Y-11877150D02*
X9727682Y-11877150D01*
X9727682Y-11877150D02*
X9708634Y-11886674D01*
X9708634Y-11886674D02*
X9699111Y-11896198D01*
X9908634Y-12010484D02*
X9889587Y-12000960D01*
X9889587Y-12000960D02*
X9880063Y-11991436D01*
X9880063Y-11991436D02*
X9870539Y-11972388D01*
X9870539Y-11972388D02*
X9870539Y-11915246D01*
X9870539Y-11915246D02*
X9880063Y-11896198D01*
X9880063Y-11896198D02*
X9889587Y-11886674D01*
X9889587Y-11886674D02*
X9908634Y-11877150D01*
X9908634Y-11877150D02*
X9937206Y-11877150D01*
X9937206Y-11877150D02*
X9956253Y-11886674D01*
X9956253Y-11886674D02*
X9965777Y-11896198D01*
X9965777Y-11896198D02*
X9975301Y-11915246D01*
X9975301Y-11915246D02*
X9975301Y-11972388D01*
X9975301Y-11972388D02*
X9965777Y-11991436D01*
X9965777Y-11991436D02*
X9956253Y-12000960D01*
X9956253Y-12000960D02*
X9937206Y-12010484D01*
X9937206Y-12010484D02*
X9908634Y-12010484D01*
X10089587Y-12010484D02*
X10070539Y-12000960D01*
X10070539Y-12000960D02*
X10061015Y-11981912D01*
X10061015Y-11981912D02*
X10061015Y-11810484D01*
X10241968Y-12000960D02*
X10222920Y-12010484D01*
X10222920Y-12010484D02*
X10184825Y-12010484D01*
X10184825Y-12010484D02*
X10165777Y-12000960D01*
X10165777Y-12000960D02*
X10156253Y-11981912D01*
X10156253Y-11981912D02*
X10156253Y-11905722D01*
X10156253Y-11905722D02*
X10165777Y-11886674D01*
X10165777Y-11886674D02*
X10184825Y-11877150D01*
X10184825Y-11877150D02*
X10222920Y-11877150D01*
X10222920Y-11877150D02*
X10241968Y-11886674D01*
X10241968Y-11886674D02*
X10251492Y-11905722D01*
X10251492Y-11905722D02*
X10251492Y-11924769D01*
X10251492Y-11924769D02*
X10156253Y-11943817D01*
X10327682Y-12000960D02*
X10346730Y-12010484D01*
X10346730Y-12010484D02*
X10384825Y-12010484D01*
X10384825Y-12010484D02*
X10403873Y-12000960D01*
X10403873Y-12000960D02*
X10413396Y-11981912D01*
X10413396Y-11981912D02*
X10413396Y-11972388D01*
X10413396Y-11972388D02*
X10403873Y-11953341D01*
X10403873Y-11953341D02*
X10384825Y-11943817D01*
X10384825Y-11943817D02*
X10356253Y-11943817D01*
X10356253Y-11943817D02*
X10337206Y-11934293D01*
X10337206Y-11934293D02*
X10327682Y-11915246D01*
X10327682Y-11915246D02*
X10327682Y-11905722D01*
X10327682Y-11905722D02*
X10337206Y-11886674D01*
X10337206Y-11886674D02*
X10356253Y-11877150D01*
X10356253Y-11877150D02*
X10384825Y-11877150D01*
X10384825Y-11877150D02*
X10403873Y-11886674D01*
X10480063Y-12086674D02*
X10489587Y-12077150D01*
X10489587Y-12077150D02*
X10508634Y-12048579D01*
X10508634Y-12048579D02*
X10518158Y-12029531D01*
X10518158Y-12029531D02*
X10527682Y-12000960D01*
X10527682Y-12000960D02*
X10537206Y-11953341D01*
X10537206Y-11953341D02*
X10537206Y-11915246D01*
X10537206Y-11915246D02*
X10527682Y-11867627D01*
X10527682Y-11867627D02*
X10518158Y-11839055D01*
X10518158Y-11839055D02*
X10508634Y-11820008D01*
X10508634Y-11820008D02*
X10489587Y-11791436D01*
X10489587Y-11791436D02*
X10480063Y-11781912D01*
D18*
X5595000Y-12128000D02*
X5705000Y-12238000D01*
X5705000Y-12128000D02*
X5595000Y-12238000D01*
X5688891Y-12221891D02*
X5688891Y-12144109D01*
X5611109Y-12144109D01*
X5611109Y-12221891D01*
X5688891Y-12221891D01*
D11*
X6070539Y-12274484D02*
X5956253Y-12274484D01*
X6013396Y-12274484D02*
X6013396Y-12074484D01*
X6013396Y-12074484D02*
X5994348Y-12103055D01*
X5994348Y-12103055D02*
X5975301Y-12122103D01*
X5975301Y-12122103D02*
X5956253Y-12131627D01*
X6156253Y-12255436D02*
X6165777Y-12264960D01*
X6165777Y-12264960D02*
X6156253Y-12274484D01*
X6156253Y-12274484D02*
X6146729Y-12264960D01*
X6146729Y-12264960D02*
X6156253Y-12255436D01*
X6156253Y-12255436D02*
X6156253Y-12274484D01*
X6356253Y-12274484D02*
X6241967Y-12274484D01*
X6299110Y-12274484D02*
X6299110Y-12074484D01*
X6299110Y-12074484D02*
X6280062Y-12103055D01*
X6280062Y-12103055D02*
X6261015Y-12122103D01*
X6261015Y-12122103D02*
X6241967Y-12131627D01*
X6480062Y-12074484D02*
X6499110Y-12074484D01*
X6499110Y-12074484D02*
X6518158Y-12084008D01*
X6518158Y-12084008D02*
X6527682Y-12093531D01*
X6527682Y-12093531D02*
X6537205Y-12112579D01*
X6537205Y-12112579D02*
X6546729Y-12150674D01*
X6546729Y-12150674D02*
X6546729Y-12198293D01*
X6546729Y-12198293D02*
X6537205Y-12236388D01*
X6537205Y-12236388D02*
X6527682Y-12255436D01*
X6527682Y-12255436D02*
X6518158Y-12264960D01*
X6518158Y-12264960D02*
X6499110Y-12274484D01*
X6499110Y-12274484D02*
X6480062Y-12274484D01*
X6480062Y-12274484D02*
X6461015Y-12264960D01*
X6461015Y-12264960D02*
X6451491Y-12255436D01*
X6451491Y-12255436D02*
X6441967Y-12236388D01*
X6441967Y-12236388D02*
X6432443Y-12198293D01*
X6432443Y-12198293D02*
X6432443Y-12150674D01*
X6432443Y-12150674D02*
X6441967Y-12112579D01*
X6441967Y-12112579D02*
X6451491Y-12093531D01*
X6451491Y-12093531D02*
X6461015Y-12084008D01*
X6461015Y-12084008D02*
X6480062Y-12074484D01*
X6670539Y-12074484D02*
X6689586Y-12074484D01*
X6689586Y-12074484D02*
X6708634Y-12084008D01*
X6708634Y-12084008D02*
X6718158Y-12093531D01*
X6718158Y-12093531D02*
X6727682Y-12112579D01*
X6727682Y-12112579D02*
X6737205Y-12150674D01*
X6737205Y-12150674D02*
X6737205Y-12198293D01*
X6737205Y-12198293D02*
X6727682Y-12236388D01*
X6727682Y-12236388D02*
X6718158Y-12255436D01*
X6718158Y-12255436D02*
X6708634Y-12264960D01*
X6708634Y-12264960D02*
X6689586Y-12274484D01*
X6689586Y-12274484D02*
X6670539Y-12274484D01*
X6670539Y-12274484D02*
X6651491Y-12264960D01*
X6651491Y-12264960D02*
X6641967Y-12255436D01*
X6641967Y-12255436D02*
X6632443Y-12236388D01*
X6632443Y-12236388D02*
X6622920Y-12198293D01*
X6622920Y-12198293D02*
X6622920Y-12150674D01*
X6622920Y-12150674D02*
X6632443Y-12112579D01*
X6632443Y-12112579D02*
X6641967Y-12093531D01*
X6641967Y-12093531D02*
X6651491Y-12084008D01*
X6651491Y-12084008D02*
X6670539Y-12074484D01*
X6822920Y-12274484D02*
X6822920Y-12141150D01*
X6822920Y-12160198D02*
X6832443Y-12150674D01*
X6832443Y-12150674D02*
X6851491Y-12141150D01*
X6851491Y-12141150D02*
X6880063Y-12141150D01*
X6880063Y-12141150D02*
X6899110Y-12150674D01*
X6899110Y-12150674D02*
X6908634Y-12169722D01*
X6908634Y-12169722D02*
X6908634Y-12274484D01*
X6908634Y-12169722D02*
X6918158Y-12150674D01*
X6918158Y-12150674D02*
X6937205Y-12141150D01*
X6937205Y-12141150D02*
X6965777Y-12141150D01*
X6965777Y-12141150D02*
X6984824Y-12150674D01*
X6984824Y-12150674D02*
X6994348Y-12169722D01*
X6994348Y-12169722D02*
X6994348Y-12274484D01*
X7089586Y-12274484D02*
X7089586Y-12141150D01*
X7089586Y-12160198D02*
X7099110Y-12150674D01*
X7099110Y-12150674D02*
X7118158Y-12141150D01*
X7118158Y-12141150D02*
X7146729Y-12141150D01*
X7146729Y-12141150D02*
X7165777Y-12150674D01*
X7165777Y-12150674D02*
X7175301Y-12169722D01*
X7175301Y-12169722D02*
X7175301Y-12274484D01*
X7175301Y-12169722D02*
X7184824Y-12150674D01*
X7184824Y-12150674D02*
X7203872Y-12141150D01*
X7203872Y-12141150D02*
X7232443Y-12141150D01*
X7232443Y-12141150D02*
X7251491Y-12150674D01*
X7251491Y-12150674D02*
X7261015Y-12169722D01*
X7261015Y-12169722D02*
X7261015Y-12274484D01*
X7651491Y-12064960D02*
X7480063Y-12322103D01*
X7908634Y-12074484D02*
X7927682Y-12074484D01*
X7927682Y-12074484D02*
X7946729Y-12084008D01*
X7946729Y-12084008D02*
X7956253Y-12093531D01*
X7956253Y-12093531D02*
X7965777Y-12112579D01*
X7965777Y-12112579D02*
X7975301Y-12150674D01*
X7975301Y-12150674D02*
X7975301Y-12198293D01*
X7975301Y-12198293D02*
X7965777Y-12236388D01*
X7965777Y-12236388D02*
X7956253Y-12255436D01*
X7956253Y-12255436D02*
X7946729Y-12264960D01*
X7946729Y-12264960D02*
X7927682Y-12274484D01*
X7927682Y-12274484D02*
X7908634Y-12274484D01*
X7908634Y-12274484D02*
X7889586Y-12264960D01*
X7889586Y-12264960D02*
X7880063Y-12255436D01*
X7880063Y-12255436D02*
X7870539Y-12236388D01*
X7870539Y-12236388D02*
X7861015Y-12198293D01*
X7861015Y-12198293D02*
X7861015Y-12150674D01*
X7861015Y-12150674D02*
X7870539Y-12112579D01*
X7870539Y-12112579D02*
X7880063Y-12093531D01*
X7880063Y-12093531D02*
X7889586Y-12084008D01*
X7889586Y-12084008D02*
X7908634Y-12074484D01*
X8061015Y-12255436D02*
X8070539Y-12264960D01*
X8070539Y-12264960D02*
X8061015Y-12274484D01*
X8061015Y-12274484D02*
X8051491Y-12264960D01*
X8051491Y-12264960D02*
X8061015Y-12255436D01*
X8061015Y-12255436D02*
X8061015Y-12274484D01*
X8194348Y-12074484D02*
X8213396Y-12074484D01*
X8213396Y-12074484D02*
X8232444Y-12084008D01*
X8232444Y-12084008D02*
X8241967Y-12093531D01*
X8241967Y-12093531D02*
X8251491Y-12112579D01*
X8251491Y-12112579D02*
X8261015Y-12150674D01*
X8261015Y-12150674D02*
X8261015Y-12198293D01*
X8261015Y-12198293D02*
X8251491Y-12236388D01*
X8251491Y-12236388D02*
X8241967Y-12255436D01*
X8241967Y-12255436D02*
X8232444Y-12264960D01*
X8232444Y-12264960D02*
X8213396Y-12274484D01*
X8213396Y-12274484D02*
X8194348Y-12274484D01*
X8194348Y-12274484D02*
X8175301Y-12264960D01*
X8175301Y-12264960D02*
X8165777Y-12255436D01*
X8165777Y-12255436D02*
X8156253Y-12236388D01*
X8156253Y-12236388D02*
X8146729Y-12198293D01*
X8146729Y-12198293D02*
X8146729Y-12150674D01*
X8146729Y-12150674D02*
X8156253Y-12112579D01*
X8156253Y-12112579D02*
X8165777Y-12093531D01*
X8165777Y-12093531D02*
X8175301Y-12084008D01*
X8175301Y-12084008D02*
X8194348Y-12074484D01*
X8432444Y-12141150D02*
X8432444Y-12274484D01*
X8384825Y-12064960D02*
X8337206Y-12207817D01*
X8337206Y-12207817D02*
X8461015Y-12207817D01*
X8518158Y-12074484D02*
X8641968Y-12074484D01*
X8641968Y-12074484D02*
X8575301Y-12150674D01*
X8575301Y-12150674D02*
X8603872Y-12150674D01*
X8603872Y-12150674D02*
X8622920Y-12160198D01*
X8622920Y-12160198D02*
X8632444Y-12169722D01*
X8632444Y-12169722D02*
X8641968Y-12188769D01*
X8641968Y-12188769D02*
X8641968Y-12236388D01*
X8641968Y-12236388D02*
X8632444Y-12255436D01*
X8632444Y-12255436D02*
X8622920Y-12264960D01*
X8622920Y-12264960D02*
X8603872Y-12274484D01*
X8603872Y-12274484D02*
X8546729Y-12274484D01*
X8546729Y-12274484D02*
X8527682Y-12264960D01*
X8527682Y-12264960D02*
X8518158Y-12255436D01*
X8708634Y-12074484D02*
X8832444Y-12074484D01*
X8832444Y-12074484D02*
X8765777Y-12150674D01*
X8765777Y-12150674D02*
X8794349Y-12150674D01*
X8794349Y-12150674D02*
X8813396Y-12160198D01*
X8813396Y-12160198D02*
X8822920Y-12169722D01*
X8822920Y-12169722D02*
X8832444Y-12188769D01*
X8832444Y-12188769D02*
X8832444Y-12236388D01*
X8832444Y-12236388D02*
X8822920Y-12255436D01*
X8822920Y-12255436D02*
X8813396Y-12264960D01*
X8813396Y-12264960D02*
X8794349Y-12274484D01*
X8794349Y-12274484D02*
X8737206Y-12274484D01*
X8737206Y-12274484D02*
X8718158Y-12264960D01*
X8718158Y-12264960D02*
X8708634Y-12255436D01*
X8908634Y-12074484D02*
X8908634Y-12112579D01*
X8984825Y-12074484D02*
X8984825Y-12112579D01*
X9280063Y-12350674D02*
X9270539Y-12341150D01*
X9270539Y-12341150D02*
X9251491Y-12312579D01*
X9251491Y-12312579D02*
X9241968Y-12293531D01*
X9241968Y-12293531D02*
X9232444Y-12264960D01*
X9232444Y-12264960D02*
X9222920Y-12217341D01*
X9222920Y-12217341D02*
X9222920Y-12179246D01*
X9222920Y-12179246D02*
X9232444Y-12131627D01*
X9232444Y-12131627D02*
X9241968Y-12103055D01*
X9241968Y-12103055D02*
X9251491Y-12084008D01*
X9251491Y-12084008D02*
X9270539Y-12055436D01*
X9270539Y-12055436D02*
X9280063Y-12045912D01*
X9441968Y-12141150D02*
X9441968Y-12274484D01*
X9394349Y-12064960D02*
X9346730Y-12207817D01*
X9346730Y-12207817D02*
X9470539Y-12207817D01*
X9699111Y-12274484D02*
X9699111Y-12074484D01*
X9784825Y-12274484D02*
X9784825Y-12169722D01*
X9784825Y-12169722D02*
X9775301Y-12150674D01*
X9775301Y-12150674D02*
X9756253Y-12141150D01*
X9756253Y-12141150D02*
X9727682Y-12141150D01*
X9727682Y-12141150D02*
X9708634Y-12150674D01*
X9708634Y-12150674D02*
X9699111Y-12160198D01*
X9908634Y-12274484D02*
X9889587Y-12264960D01*
X9889587Y-12264960D02*
X9880063Y-12255436D01*
X9880063Y-12255436D02*
X9870539Y-12236388D01*
X9870539Y-12236388D02*
X9870539Y-12179246D01*
X9870539Y-12179246D02*
X9880063Y-12160198D01*
X9880063Y-12160198D02*
X9889587Y-12150674D01*
X9889587Y-12150674D02*
X9908634Y-12141150D01*
X9908634Y-12141150D02*
X9937206Y-12141150D01*
X9937206Y-12141150D02*
X9956253Y-12150674D01*
X9956253Y-12150674D02*
X9965777Y-12160198D01*
X9965777Y-12160198D02*
X9975301Y-12179246D01*
X9975301Y-12179246D02*
X9975301Y-12236388D01*
X9975301Y-12236388D02*
X9965777Y-12255436D01*
X9965777Y-12255436D02*
X9956253Y-12264960D01*
X9956253Y-12264960D02*
X9937206Y-12274484D01*
X9937206Y-12274484D02*
X9908634Y-12274484D01*
X10089587Y-12274484D02*
X10070539Y-12264960D01*
X10070539Y-12264960D02*
X10061015Y-12245912D01*
X10061015Y-12245912D02*
X10061015Y-12074484D01*
X10241968Y-12264960D02*
X10222920Y-12274484D01*
X10222920Y-12274484D02*
X10184825Y-12274484D01*
X10184825Y-12274484D02*
X10165777Y-12264960D01*
X10165777Y-12264960D02*
X10156253Y-12245912D01*
X10156253Y-12245912D02*
X10156253Y-12169722D01*
X10156253Y-12169722D02*
X10165777Y-12150674D01*
X10165777Y-12150674D02*
X10184825Y-12141150D01*
X10184825Y-12141150D02*
X10222920Y-12141150D01*
X10222920Y-12141150D02*
X10241968Y-12150674D01*
X10241968Y-12150674D02*
X10251492Y-12169722D01*
X10251492Y-12169722D02*
X10251492Y-12188769D01*
X10251492Y-12188769D02*
X10156253Y-12207817D01*
X10327682Y-12264960D02*
X10346730Y-12274484D01*
X10346730Y-12274484D02*
X10384825Y-12274484D01*
X10384825Y-12274484D02*
X10403873Y-12264960D01*
X10403873Y-12264960D02*
X10413396Y-12245912D01*
X10413396Y-12245912D02*
X10413396Y-12236388D01*
X10413396Y-12236388D02*
X10403873Y-12217341D01*
X10403873Y-12217341D02*
X10384825Y-12207817D01*
X10384825Y-12207817D02*
X10356253Y-12207817D01*
X10356253Y-12207817D02*
X10337206Y-12198293D01*
X10337206Y-12198293D02*
X10327682Y-12179246D01*
X10327682Y-12179246D02*
X10327682Y-12169722D01*
X10327682Y-12169722D02*
X10337206Y-12150674D01*
X10337206Y-12150674D02*
X10356253Y-12141150D01*
X10356253Y-12141150D02*
X10384825Y-12141150D01*
X10384825Y-12141150D02*
X10403873Y-12150674D01*
X10480063Y-12350674D02*
X10489587Y-12341150D01*
X10489587Y-12341150D02*
X10508634Y-12312579D01*
X10508634Y-12312579D02*
X10518158Y-12293531D01*
X10518158Y-12293531D02*
X10527682Y-12264960D01*
X10527682Y-12264960D02*
X10537206Y-12217341D01*
X10537206Y-12217341D02*
X10537206Y-12179246D01*
X10537206Y-12179246D02*
X10527682Y-12131627D01*
X10527682Y-12131627D02*
X10518158Y-12103055D01*
X10518158Y-12103055D02*
X10508634Y-12084008D01*
X10508634Y-12084008D02*
X10489587Y-12055436D01*
X10489587Y-12055436D02*
X10480063Y-12045912D01*
X5505000Y-12347000D02*
X5705000Y-12547000D01*
X5705000Y-12347000D02*
X5505000Y-12547000D01*
X5605000Y-12547000D02*
X5705000Y-12447000D01*
X5605000Y-12347000D01*
X5505000Y-12447000D01*
X5605000Y-12547000D01*
X5956253Y-12357531D02*
X5965777Y-12348008D01*
X5965777Y-12348008D02*
X5984824Y-12338484D01*
X5984824Y-12338484D02*
X6032443Y-12338484D01*
X6032443Y-12338484D02*
X6051491Y-12348008D01*
X6051491Y-12348008D02*
X6061015Y-12357531D01*
X6061015Y-12357531D02*
X6070539Y-12376579D01*
X6070539Y-12376579D02*
X6070539Y-12395627D01*
X6070539Y-12395627D02*
X6061015Y-12424198D01*
X6061015Y-12424198D02*
X5946729Y-12538484D01*
X5946729Y-12538484D02*
X6070539Y-12538484D01*
X6156253Y-12519436D02*
X6165777Y-12528960D01*
X6165777Y-12528960D02*
X6156253Y-12538484D01*
X6156253Y-12538484D02*
X6146729Y-12528960D01*
X6146729Y-12528960D02*
X6156253Y-12519436D01*
X6156253Y-12519436D02*
X6156253Y-12538484D01*
X6241967Y-12357531D02*
X6251491Y-12348008D01*
X6251491Y-12348008D02*
X6270539Y-12338484D01*
X6270539Y-12338484D02*
X6318158Y-12338484D01*
X6318158Y-12338484D02*
X6337205Y-12348008D01*
X6337205Y-12348008D02*
X6346729Y-12357531D01*
X6346729Y-12357531D02*
X6356253Y-12376579D01*
X6356253Y-12376579D02*
X6356253Y-12395627D01*
X6356253Y-12395627D02*
X6346729Y-12424198D01*
X6346729Y-12424198D02*
X6232443Y-12538484D01*
X6232443Y-12538484D02*
X6356253Y-12538484D01*
X6480062Y-12338484D02*
X6499110Y-12338484D01*
X6499110Y-12338484D02*
X6518158Y-12348008D01*
X6518158Y-12348008D02*
X6527682Y-12357531D01*
X6527682Y-12357531D02*
X6537205Y-12376579D01*
X6537205Y-12376579D02*
X6546729Y-12414674D01*
X6546729Y-12414674D02*
X6546729Y-12462293D01*
X6546729Y-12462293D02*
X6537205Y-12500388D01*
X6537205Y-12500388D02*
X6527682Y-12519436D01*
X6527682Y-12519436D02*
X6518158Y-12528960D01*
X6518158Y-12528960D02*
X6499110Y-12538484D01*
X6499110Y-12538484D02*
X6480062Y-12538484D01*
X6480062Y-12538484D02*
X6461015Y-12528960D01*
X6461015Y-12528960D02*
X6451491Y-12519436D01*
X6451491Y-12519436D02*
X6441967Y-12500388D01*
X6441967Y-12500388D02*
X6432443Y-12462293D01*
X6432443Y-12462293D02*
X6432443Y-12414674D01*
X6432443Y-12414674D02*
X6441967Y-12376579D01*
X6441967Y-12376579D02*
X6451491Y-12357531D01*
X6451491Y-12357531D02*
X6461015Y-12348008D01*
X6461015Y-12348008D02*
X6480062Y-12338484D01*
X6670539Y-12338484D02*
X6689586Y-12338484D01*
X6689586Y-12338484D02*
X6708634Y-12348008D01*
X6708634Y-12348008D02*
X6718158Y-12357531D01*
X6718158Y-12357531D02*
X6727682Y-12376579D01*
X6727682Y-12376579D02*
X6737205Y-12414674D01*
X6737205Y-12414674D02*
X6737205Y-12462293D01*
X6737205Y-12462293D02*
X6727682Y-12500388D01*
X6727682Y-12500388D02*
X6718158Y-12519436D01*
X6718158Y-12519436D02*
X6708634Y-12528960D01*
X6708634Y-12528960D02*
X6689586Y-12538484D01*
X6689586Y-12538484D02*
X6670539Y-12538484D01*
X6670539Y-12538484D02*
X6651491Y-12528960D01*
X6651491Y-12528960D02*
X6641967Y-12519436D01*
X6641967Y-12519436D02*
X6632443Y-12500388D01*
X6632443Y-12500388D02*
X6622920Y-12462293D01*
X6622920Y-12462293D02*
X6622920Y-12414674D01*
X6622920Y-12414674D02*
X6632443Y-12376579D01*
X6632443Y-12376579D02*
X6641967Y-12357531D01*
X6641967Y-12357531D02*
X6651491Y-12348008D01*
X6651491Y-12348008D02*
X6670539Y-12338484D01*
X6822920Y-12538484D02*
X6822920Y-12405150D01*
X6822920Y-12424198D02*
X6832443Y-12414674D01*
X6832443Y-12414674D02*
X6851491Y-12405150D01*
X6851491Y-12405150D02*
X6880063Y-12405150D01*
X6880063Y-12405150D02*
X6899110Y-12414674D01*
X6899110Y-12414674D02*
X6908634Y-12433722D01*
X6908634Y-12433722D02*
X6908634Y-12538484D01*
X6908634Y-12433722D02*
X6918158Y-12414674D01*
X6918158Y-12414674D02*
X6937205Y-12405150D01*
X6937205Y-12405150D02*
X6965777Y-12405150D01*
X6965777Y-12405150D02*
X6984824Y-12414674D01*
X6984824Y-12414674D02*
X6994348Y-12433722D01*
X6994348Y-12433722D02*
X6994348Y-12538484D01*
X7089586Y-12538484D02*
X7089586Y-12405150D01*
X7089586Y-12424198D02*
X7099110Y-12414674D01*
X7099110Y-12414674D02*
X7118158Y-12405150D01*
X7118158Y-12405150D02*
X7146729Y-12405150D01*
X7146729Y-12405150D02*
X7165777Y-12414674D01*
X7165777Y-12414674D02*
X7175301Y-12433722D01*
X7175301Y-12433722D02*
X7175301Y-12538484D01*
X7175301Y-12433722D02*
X7184824Y-12414674D01*
X7184824Y-12414674D02*
X7203872Y-12405150D01*
X7203872Y-12405150D02*
X7232443Y-12405150D01*
X7232443Y-12405150D02*
X7251491Y-12414674D01*
X7251491Y-12414674D02*
X7261015Y-12433722D01*
X7261015Y-12433722D02*
X7261015Y-12538484D01*
X7651491Y-12328960D02*
X7480063Y-12586103D01*
X7908634Y-12338484D02*
X7927682Y-12338484D01*
X7927682Y-12338484D02*
X7946729Y-12348008D01*
X7946729Y-12348008D02*
X7956253Y-12357531D01*
X7956253Y-12357531D02*
X7965777Y-12376579D01*
X7965777Y-12376579D02*
X7975301Y-12414674D01*
X7975301Y-12414674D02*
X7975301Y-12462293D01*
X7975301Y-12462293D02*
X7965777Y-12500388D01*
X7965777Y-12500388D02*
X7956253Y-12519436D01*
X7956253Y-12519436D02*
X7946729Y-12528960D01*
X7946729Y-12528960D02*
X7927682Y-12538484D01*
X7927682Y-12538484D02*
X7908634Y-12538484D01*
X7908634Y-12538484D02*
X7889586Y-12528960D01*
X7889586Y-12528960D02*
X7880063Y-12519436D01*
X7880063Y-12519436D02*
X7870539Y-12500388D01*
X7870539Y-12500388D02*
X7861015Y-12462293D01*
X7861015Y-12462293D02*
X7861015Y-12414674D01*
X7861015Y-12414674D02*
X7870539Y-12376579D01*
X7870539Y-12376579D02*
X7880063Y-12357531D01*
X7880063Y-12357531D02*
X7889586Y-12348008D01*
X7889586Y-12348008D02*
X7908634Y-12338484D01*
X8061015Y-12519436D02*
X8070539Y-12528960D01*
X8070539Y-12528960D02*
X8061015Y-12538484D01*
X8061015Y-12538484D02*
X8051491Y-12528960D01*
X8051491Y-12528960D02*
X8061015Y-12519436D01*
X8061015Y-12519436D02*
X8061015Y-12538484D01*
X8194348Y-12338484D02*
X8213396Y-12338484D01*
X8213396Y-12338484D02*
X8232444Y-12348008D01*
X8232444Y-12348008D02*
X8241967Y-12357531D01*
X8241967Y-12357531D02*
X8251491Y-12376579D01*
X8251491Y-12376579D02*
X8261015Y-12414674D01*
X8261015Y-12414674D02*
X8261015Y-12462293D01*
X8261015Y-12462293D02*
X8251491Y-12500388D01*
X8251491Y-12500388D02*
X8241967Y-12519436D01*
X8241967Y-12519436D02*
X8232444Y-12528960D01*
X8232444Y-12528960D02*
X8213396Y-12538484D01*
X8213396Y-12538484D02*
X8194348Y-12538484D01*
X8194348Y-12538484D02*
X8175301Y-12528960D01*
X8175301Y-12528960D02*
X8165777Y-12519436D01*
X8165777Y-12519436D02*
X8156253Y-12500388D01*
X8156253Y-12500388D02*
X8146729Y-12462293D01*
X8146729Y-12462293D02*
X8146729Y-12414674D01*
X8146729Y-12414674D02*
X8156253Y-12376579D01*
X8156253Y-12376579D02*
X8165777Y-12357531D01*
X8165777Y-12357531D02*
X8175301Y-12348008D01*
X8175301Y-12348008D02*
X8194348Y-12338484D01*
X8375301Y-12424198D02*
X8356253Y-12414674D01*
X8356253Y-12414674D02*
X8346729Y-12405150D01*
X8346729Y-12405150D02*
X8337206Y-12386103D01*
X8337206Y-12386103D02*
X8337206Y-12376579D01*
X8337206Y-12376579D02*
X8346729Y-12357531D01*
X8346729Y-12357531D02*
X8356253Y-12348008D01*
X8356253Y-12348008D02*
X8375301Y-12338484D01*
X8375301Y-12338484D02*
X8413396Y-12338484D01*
X8413396Y-12338484D02*
X8432444Y-12348008D01*
X8432444Y-12348008D02*
X8441968Y-12357531D01*
X8441968Y-12357531D02*
X8451491Y-12376579D01*
X8451491Y-12376579D02*
X8451491Y-12386103D01*
X8451491Y-12386103D02*
X8441968Y-12405150D01*
X8441968Y-12405150D02*
X8432444Y-12414674D01*
X8432444Y-12414674D02*
X8413396Y-12424198D01*
X8413396Y-12424198D02*
X8375301Y-12424198D01*
X8375301Y-12424198D02*
X8356253Y-12433722D01*
X8356253Y-12433722D02*
X8346729Y-12443246D01*
X8346729Y-12443246D02*
X8337206Y-12462293D01*
X8337206Y-12462293D02*
X8337206Y-12500388D01*
X8337206Y-12500388D02*
X8346729Y-12519436D01*
X8346729Y-12519436D02*
X8356253Y-12528960D01*
X8356253Y-12528960D02*
X8375301Y-12538484D01*
X8375301Y-12538484D02*
X8413396Y-12538484D01*
X8413396Y-12538484D02*
X8432444Y-12528960D01*
X8432444Y-12528960D02*
X8441968Y-12519436D01*
X8441968Y-12519436D02*
X8451491Y-12500388D01*
X8451491Y-12500388D02*
X8451491Y-12462293D01*
X8451491Y-12462293D02*
X8441968Y-12443246D01*
X8441968Y-12443246D02*
X8432444Y-12433722D01*
X8432444Y-12433722D02*
X8413396Y-12424198D01*
X8622920Y-12338484D02*
X8584825Y-12338484D01*
X8584825Y-12338484D02*
X8565777Y-12348008D01*
X8565777Y-12348008D02*
X8556253Y-12357531D01*
X8556253Y-12357531D02*
X8537206Y-12386103D01*
X8537206Y-12386103D02*
X8527682Y-12424198D01*
X8527682Y-12424198D02*
X8527682Y-12500388D01*
X8527682Y-12500388D02*
X8537206Y-12519436D01*
X8537206Y-12519436D02*
X8546729Y-12528960D01*
X8546729Y-12528960D02*
X8565777Y-12538484D01*
X8565777Y-12538484D02*
X8603872Y-12538484D01*
X8603872Y-12538484D02*
X8622920Y-12528960D01*
X8622920Y-12528960D02*
X8632444Y-12519436D01*
X8632444Y-12519436D02*
X8641968Y-12500388D01*
X8641968Y-12500388D02*
X8641968Y-12452769D01*
X8641968Y-12452769D02*
X8632444Y-12433722D01*
X8632444Y-12433722D02*
X8622920Y-12424198D01*
X8622920Y-12424198D02*
X8603872Y-12414674D01*
X8603872Y-12414674D02*
X8565777Y-12414674D01*
X8565777Y-12414674D02*
X8546729Y-12424198D01*
X8546729Y-12424198D02*
X8537206Y-12433722D01*
X8537206Y-12433722D02*
X8527682Y-12452769D01*
X8813396Y-12338484D02*
X8775301Y-12338484D01*
X8775301Y-12338484D02*
X8756253Y-12348008D01*
X8756253Y-12348008D02*
X8746729Y-12357531D01*
X8746729Y-12357531D02*
X8727682Y-12386103D01*
X8727682Y-12386103D02*
X8718158Y-12424198D01*
X8718158Y-12424198D02*
X8718158Y-12500388D01*
X8718158Y-12500388D02*
X8727682Y-12519436D01*
X8727682Y-12519436D02*
X8737206Y-12528960D01*
X8737206Y-12528960D02*
X8756253Y-12538484D01*
X8756253Y-12538484D02*
X8794349Y-12538484D01*
X8794349Y-12538484D02*
X8813396Y-12528960D01*
X8813396Y-12528960D02*
X8822920Y-12519436D01*
X8822920Y-12519436D02*
X8832444Y-12500388D01*
X8832444Y-12500388D02*
X8832444Y-12452769D01*
X8832444Y-12452769D02*
X8822920Y-12433722D01*
X8822920Y-12433722D02*
X8813396Y-12424198D01*
X8813396Y-12424198D02*
X8794349Y-12414674D01*
X8794349Y-12414674D02*
X8756253Y-12414674D01*
X8756253Y-12414674D02*
X8737206Y-12424198D01*
X8737206Y-12424198D02*
X8727682Y-12433722D01*
X8727682Y-12433722D02*
X8718158Y-12452769D01*
X8908634Y-12338484D02*
X8908634Y-12376579D01*
X8984825Y-12338484D02*
X8984825Y-12376579D01*
X9280063Y-12614674D02*
X9270539Y-12605150D01*
X9270539Y-12605150D02*
X9251491Y-12576579D01*
X9251491Y-12576579D02*
X9241968Y-12557531D01*
X9241968Y-12557531D02*
X9232444Y-12528960D01*
X9232444Y-12528960D02*
X9222920Y-12481341D01*
X9222920Y-12481341D02*
X9222920Y-12443246D01*
X9222920Y-12443246D02*
X9232444Y-12395627D01*
X9232444Y-12395627D02*
X9241968Y-12367055D01*
X9241968Y-12367055D02*
X9251491Y-12348008D01*
X9251491Y-12348008D02*
X9270539Y-12319436D01*
X9270539Y-12319436D02*
X9280063Y-12309912D01*
X9441968Y-12405150D02*
X9441968Y-12538484D01*
X9394349Y-12328960D02*
X9346730Y-12471817D01*
X9346730Y-12471817D02*
X9470539Y-12471817D01*
X9699111Y-12538484D02*
X9699111Y-12338484D01*
X9784825Y-12538484D02*
X9784825Y-12433722D01*
X9784825Y-12433722D02*
X9775301Y-12414674D01*
X9775301Y-12414674D02*
X9756253Y-12405150D01*
X9756253Y-12405150D02*
X9727682Y-12405150D01*
X9727682Y-12405150D02*
X9708634Y-12414674D01*
X9708634Y-12414674D02*
X9699111Y-12424198D01*
X9908634Y-12538484D02*
X9889587Y-12528960D01*
X9889587Y-12528960D02*
X9880063Y-12519436D01*
X9880063Y-12519436D02*
X9870539Y-12500388D01*
X9870539Y-12500388D02*
X9870539Y-12443246D01*
X9870539Y-12443246D02*
X9880063Y-12424198D01*
X9880063Y-12424198D02*
X9889587Y-12414674D01*
X9889587Y-12414674D02*
X9908634Y-12405150D01*
X9908634Y-12405150D02*
X9937206Y-12405150D01*
X9937206Y-12405150D02*
X9956253Y-12414674D01*
X9956253Y-12414674D02*
X9965777Y-12424198D01*
X9965777Y-12424198D02*
X9975301Y-12443246D01*
X9975301Y-12443246D02*
X9975301Y-12500388D01*
X9975301Y-12500388D02*
X9965777Y-12519436D01*
X9965777Y-12519436D02*
X9956253Y-12528960D01*
X9956253Y-12528960D02*
X9937206Y-12538484D01*
X9937206Y-12538484D02*
X9908634Y-12538484D01*
X10089587Y-12538484D02*
X10070539Y-12528960D01*
X10070539Y-12528960D02*
X10061015Y-12509912D01*
X10061015Y-12509912D02*
X10061015Y-12338484D01*
X10241968Y-12528960D02*
X10222920Y-12538484D01*
X10222920Y-12538484D02*
X10184825Y-12538484D01*
X10184825Y-12538484D02*
X10165777Y-12528960D01*
X10165777Y-12528960D02*
X10156253Y-12509912D01*
X10156253Y-12509912D02*
X10156253Y-12433722D01*
X10156253Y-12433722D02*
X10165777Y-12414674D01*
X10165777Y-12414674D02*
X10184825Y-12405150D01*
X10184825Y-12405150D02*
X10222920Y-12405150D01*
X10222920Y-12405150D02*
X10241968Y-12414674D01*
X10241968Y-12414674D02*
X10251492Y-12433722D01*
X10251492Y-12433722D02*
X10251492Y-12452769D01*
X10251492Y-12452769D02*
X10156253Y-12471817D01*
X10327682Y-12528960D02*
X10346730Y-12538484D01*
X10346730Y-12538484D02*
X10384825Y-12538484D01*
X10384825Y-12538484D02*
X10403873Y-12528960D01*
X10403873Y-12528960D02*
X10413396Y-12509912D01*
X10413396Y-12509912D02*
X10413396Y-12500388D01*
X10413396Y-12500388D02*
X10403873Y-12481341D01*
X10403873Y-12481341D02*
X10384825Y-12471817D01*
X10384825Y-12471817D02*
X10356253Y-12471817D01*
X10356253Y-12471817D02*
X10337206Y-12462293D01*
X10337206Y-12462293D02*
X10327682Y-12443246D01*
X10327682Y-12443246D02*
X10327682Y-12433722D01*
X10327682Y-12433722D02*
X10337206Y-12414674D01*
X10337206Y-12414674D02*
X10356253Y-12405150D01*
X10356253Y-12405150D02*
X10384825Y-12405150D01*
X10384825Y-12405150D02*
X10403873Y-12414674D01*
X10480063Y-12614674D02*
X10489587Y-12605150D01*
X10489587Y-12605150D02*
X10508634Y-12576579D01*
X10508634Y-12576579D02*
X10518158Y-12557531D01*
X10518158Y-12557531D02*
X10527682Y-12528960D01*
X10527682Y-12528960D02*
X10537206Y-12481341D01*
X10537206Y-12481341D02*
X10537206Y-12443246D01*
X10537206Y-12443246D02*
X10527682Y-12395627D01*
X10527682Y-12395627D02*
X10518158Y-12367055D01*
X10518158Y-12367055D02*
X10508634Y-12348008D01*
X10508634Y-12348008D02*
X10489587Y-12319436D01*
X10489587Y-12319436D02*
X10480063Y-12309912D01*
X10841968Y-12614674D02*
X10832444Y-12605150D01*
X10832444Y-12605150D02*
X10813396Y-12576579D01*
X10813396Y-12576579D02*
X10803873Y-12557531D01*
X10803873Y-12557531D02*
X10794349Y-12528960D01*
X10794349Y-12528960D02*
X10784825Y-12481341D01*
X10784825Y-12481341D02*
X10784825Y-12443246D01*
X10784825Y-12443246D02*
X10794349Y-12395627D01*
X10794349Y-12395627D02*
X10803873Y-12367055D01*
X10803873Y-12367055D02*
X10813396Y-12348008D01*
X10813396Y-12348008D02*
X10832444Y-12319436D01*
X10832444Y-12319436D02*
X10841968Y-12309912D01*
X10918158Y-12405150D02*
X10918158Y-12538484D01*
X10918158Y-12424198D02*
X10927682Y-12414674D01*
X10927682Y-12414674D02*
X10946730Y-12405150D01*
X10946730Y-12405150D02*
X10975301Y-12405150D01*
X10975301Y-12405150D02*
X10994349Y-12414674D01*
X10994349Y-12414674D02*
X11003873Y-12433722D01*
X11003873Y-12433722D02*
X11003873Y-12538484D01*
X11127682Y-12538484D02*
X11108634Y-12528960D01*
X11108634Y-12528960D02*
X11099111Y-12519436D01*
X11099111Y-12519436D02*
X11089587Y-12500388D01*
X11089587Y-12500388D02*
X11089587Y-12443246D01*
X11089587Y-12443246D02*
X11099111Y-12424198D01*
X11099111Y-12424198D02*
X11108634Y-12414674D01*
X11108634Y-12414674D02*
X11127682Y-12405150D01*
X11127682Y-12405150D02*
X11156254Y-12405150D01*
X11156254Y-12405150D02*
X11175301Y-12414674D01*
X11175301Y-12414674D02*
X11184825Y-12424198D01*
X11184825Y-12424198D02*
X11194349Y-12443246D01*
X11194349Y-12443246D02*
X11194349Y-12500388D01*
X11194349Y-12500388D02*
X11184825Y-12519436D01*
X11184825Y-12519436D02*
X11175301Y-12528960D01*
X11175301Y-12528960D02*
X11156254Y-12538484D01*
X11156254Y-12538484D02*
X11127682Y-12538484D01*
X11251492Y-12405150D02*
X11327682Y-12405150D01*
X11280063Y-12338484D02*
X11280063Y-12509912D01*
X11280063Y-12509912D02*
X11289587Y-12528960D01*
X11289587Y-12528960D02*
X11308634Y-12538484D01*
X11308634Y-12538484D02*
X11327682Y-12538484D01*
X11546730Y-12405150D02*
X11546730Y-12605150D01*
X11546730Y-12414674D02*
X11565777Y-12405150D01*
X11565777Y-12405150D02*
X11603873Y-12405150D01*
X11603873Y-12405150D02*
X11622920Y-12414674D01*
X11622920Y-12414674D02*
X11632444Y-12424198D01*
X11632444Y-12424198D02*
X11641968Y-12443246D01*
X11641968Y-12443246D02*
X11641968Y-12500388D01*
X11641968Y-12500388D02*
X11632444Y-12519436D01*
X11632444Y-12519436D02*
X11622920Y-12528960D01*
X11622920Y-12528960D02*
X11603873Y-12538484D01*
X11603873Y-12538484D02*
X11565777Y-12538484D01*
X11565777Y-12538484D02*
X11546730Y-12528960D01*
X11756253Y-12538484D02*
X11737206Y-12528960D01*
X11737206Y-12528960D02*
X11727682Y-12509912D01*
X11727682Y-12509912D02*
X11727682Y-12338484D01*
X11918158Y-12538484D02*
X11918158Y-12433722D01*
X11918158Y-12433722D02*
X11908634Y-12414674D01*
X11908634Y-12414674D02*
X11889587Y-12405150D01*
X11889587Y-12405150D02*
X11851492Y-12405150D01*
X11851492Y-12405150D02*
X11832444Y-12414674D01*
X11918158Y-12528960D02*
X11899111Y-12538484D01*
X11899111Y-12538484D02*
X11851492Y-12538484D01*
X11851492Y-12538484D02*
X11832444Y-12528960D01*
X11832444Y-12528960D02*
X11822920Y-12509912D01*
X11822920Y-12509912D02*
X11822920Y-12490865D01*
X11822920Y-12490865D02*
X11832444Y-12471817D01*
X11832444Y-12471817D02*
X11851492Y-12462293D01*
X11851492Y-12462293D02*
X11899111Y-12462293D01*
X11899111Y-12462293D02*
X11918158Y-12452769D01*
X11984825Y-12405150D02*
X12061015Y-12405150D01*
X12013396Y-12338484D02*
X12013396Y-12509912D01*
X12013396Y-12509912D02*
X12022920Y-12528960D01*
X12022920Y-12528960D02*
X12041968Y-12538484D01*
X12041968Y-12538484D02*
X12061015Y-12538484D01*
X12203873Y-12528960D02*
X12184825Y-12538484D01*
X12184825Y-12538484D02*
X12146730Y-12538484D01*
X12146730Y-12538484D02*
X12127682Y-12528960D01*
X12127682Y-12528960D02*
X12118158Y-12509912D01*
X12118158Y-12509912D02*
X12118158Y-12433722D01*
X12118158Y-12433722D02*
X12127682Y-12414674D01*
X12127682Y-12414674D02*
X12146730Y-12405150D01*
X12146730Y-12405150D02*
X12184825Y-12405150D01*
X12184825Y-12405150D02*
X12203873Y-12414674D01*
X12203873Y-12414674D02*
X12213396Y-12433722D01*
X12213396Y-12433722D02*
X12213396Y-12452769D01*
X12213396Y-12452769D02*
X12118158Y-12471817D01*
X12384825Y-12538484D02*
X12384825Y-12338484D01*
X12384825Y-12528960D02*
X12365777Y-12538484D01*
X12365777Y-12538484D02*
X12327682Y-12538484D01*
X12327682Y-12538484D02*
X12308634Y-12528960D01*
X12308634Y-12528960D02*
X12299111Y-12519436D01*
X12299111Y-12519436D02*
X12289587Y-12500388D01*
X12289587Y-12500388D02*
X12289587Y-12443246D01*
X12289587Y-12443246D02*
X12299111Y-12424198D01*
X12299111Y-12424198D02*
X12308634Y-12414674D01*
X12308634Y-12414674D02*
X12327682Y-12405150D01*
X12327682Y-12405150D02*
X12365777Y-12405150D01*
X12365777Y-12405150D02*
X12384825Y-12414674D01*
X12461015Y-12614674D02*
X12470539Y-12605150D01*
X12470539Y-12605150D02*
X12489587Y-12576579D01*
X12489587Y-12576579D02*
X12499111Y-12557531D01*
X12499111Y-12557531D02*
X12508634Y-12528960D01*
X12508634Y-12528960D02*
X12518158Y-12481341D01*
X12518158Y-12481341D02*
X12518158Y-12443246D01*
X12518158Y-12443246D02*
X12508634Y-12395627D01*
X12508634Y-12395627D02*
X12499111Y-12367055D01*
X12499111Y-12367055D02*
X12489587Y-12348008D01*
X12489587Y-12348008D02*
X12470539Y-12319436D01*
X12470539Y-12319436D02*
X12461015Y-12309912D01*
M02*
