%TF.GenerationSoftware,KiCad,Pcbnew,7.0.5*%
%TF.CreationDate,2024-05-20T19:12:35+03:00*%
%TF.ProjectId,Tempuino,54656d70-7569-46e6-9f2e-6b696361645f,rev?*%
%TF.SameCoordinates,Original*%
%TF.FileFunction,Soldermask,Bot*%
%TF.FilePolarity,Negative*%
%FSLAX46Y46*%
G04 Gerber Fmt 4.6, Leading zero omitted, Abs format (unit mm)*
G04 Created by KiCad (PCBNEW 7.0.5) date 2024-05-20 19:12:35*
%MOMM*%
%LPD*%
G01*
G04 APERTURE LIST*
G04 Aperture macros list*
%AMRoundRect*
0 Rectangle with rounded corners*
0 $1 Rounding radius*
0 $2 $3 $4 $5 $6 $7 $8 $9 X,Y pos of 4 corners*
0 Add a 4 corners polygon primitive as box body*
4,1,4,$2,$3,$4,$5,$6,$7,$8,$9,$2,$3,0*
0 Add four circle primitives for the rounded corners*
1,1,$1+$1,$2,$3*
1,1,$1+$1,$4,$5*
1,1,$1+$1,$6,$7*
1,1,$1+$1,$8,$9*
0 Add four rect primitives between the rounded corners*
20,1,$1+$1,$2,$3,$4,$5,0*
20,1,$1+$1,$4,$5,$6,$7,0*
20,1,$1+$1,$6,$7,$8,$9,0*
20,1,$1+$1,$8,$9,$2,$3,0*%
G04 Aperture macros list end*
%ADD10C,2.200000*%
%ADD11C,1.244600*%
%ADD12C,1.712000*%
%ADD13C,1.512000*%
%ADD14C,2.000000*%
%ADD15R,1.700000X1.700000*%
%ADD16O,1.700000X1.700000*%
%ADD17C,1.779000*%
%ADD18RoundRect,0.102000X-0.787500X0.787500X-0.787500X-0.787500X0.787500X-0.787500X0.787500X0.787500X0*%
%ADD19O,1.550000X1.000000*%
%ADD20O,0.950000X1.250000*%
G04 APERTURE END LIST*
D10*
%TO.C,H4*%
X187100000Y-94200000D03*
%TD*%
%TO.C,H3*%
X187100000Y-77500000D03*
%TD*%
%TO.C,H2*%
X59800000Y-94200000D03*
%TD*%
%TO.C,H1*%
X59700000Y-77500000D03*
%TD*%
D11*
%TO.C,U1*%
X210300000Y-84300000D03*
X210300000Y-87892103D03*
X206707897Y-87892103D03*
X206707897Y-84300000D03*
%TD*%
D12*
%TO.C,U4*%
X88500000Y-94400000D03*
X96500000Y-94400000D03*
D13*
X90500000Y-94400000D03*
X92500000Y-94400000D03*
X94500000Y-94400000D03*
%TD*%
D14*
%TO.C,SW1*%
X153250000Y-82550000D03*
X153250000Y-89050000D03*
X157750000Y-82550000D03*
X157750000Y-89050000D03*
%TD*%
D15*
%TO.C,J9*%
X93200000Y-78700000D03*
%TD*%
%TO.C,J8*%
X92400000Y-87400000D03*
%TD*%
%TO.C,J5*%
X64300000Y-92900000D03*
%TD*%
D16*
%TO.C,J2*%
X166000000Y-91080000D03*
X166000000Y-88540000D03*
X166000000Y-86000000D03*
D15*
X166000000Y-83460000D03*
%TD*%
%TO.C,J3*%
X139825000Y-88975000D03*
D16*
X142365000Y-88975000D03*
X139825000Y-91515000D03*
X142365000Y-91515000D03*
X139825000Y-94055000D03*
X142365000Y-94055000D03*
%TD*%
D17*
%TO.C,J7*%
X85400000Y-79500000D03*
D18*
X85400000Y-82000000D03*
%TD*%
D19*
%TO.C,J4*%
X59975000Y-89300000D03*
X59975000Y-82300000D03*
D20*
X62675000Y-83300000D03*
X62675000Y-88300000D03*
%TD*%
D15*
%TO.C,J1*%
X134640000Y-84025000D03*
D16*
X137180000Y-84025000D03*
X139720000Y-84025000D03*
X142260000Y-84025000D03*
X144800000Y-84025000D03*
X147340000Y-84025000D03*
%TD*%
M02*
